STARTFONT 2.1
FONT -wenquanyi-wenquanyi bitmap song-medium-r-normal--14-140-75-75-P-80-iso10646-1
COMMENT ========================================================== 
COMMENT                Wen Quan Yi Bitmap Song 
COMMENT ----------------------------------------------------------
COMMENT Summary:
COMMENT 
COMMENT     	Authors  : WenQuanYi Contributors
COMMENT     	Webpage  : http://wenq.org/en/
COMMENT     	Font Name: WenQuanYi Bitmap Song
COMMENT     	Version  : 0.9.9.8
COMMENT     	Release  : 8
COMMENT     	Copyright: (C)2004-2010, WenQuanYi Project 
COMMENT     		   Board of Trustees and Qianqian Fang
COMMENT     	License  : GPL v2 (with font embedding exception)
COMMENT 
COMMENT           May the Font be with you, forever!
COMMENT ----------------------------------------------------------
COMMENT WenQuanYi bitmap fonts include all 20,932 Unicode 5.2 
COMMENT CJK Unified Ideographs (U4E00 - U9FA5) and 6,582 
COMMENT CJK Extension A characters (U3400 - U4DB5) at 
COMMENT 5 different pixel sizes (9pt-12X12, 10pt-13X13, 
COMMENT 10.5pt-14x14, 11pt-15X15 and 12pt-16x16 pixel).
COMMENT Use of this bitmap font for on-screen display of Chinese 
COMMENT (traditional and simplified) in web pages and elsewhere 
COMMENT eliminates the annoying "blurring" problems caused by 
COMMENT insufficient "hinting" of anti-aliased vector CJK fonts. 
COMMENT In addition, Latin characters, Japanese Kanas and 
COMMENT Korean Hangul glyphs (U+AC00~U+D7A3) are also included.
COMMENT ----------------------------------------------------------
COMMENT WenQuanYi Contributors:
COMMENT 
COMMENT Project Maintainer: Qianqian Fang(fangq<at>nmr.mgh.harvard.edu)
COMMENT 
COMMENT Major contributors: wanghong, tchaikov,ailantian,niqiu,fiag
COMMENT                     caiqian,fundawang
COMMENT Other contributors: activeion,amadeoh,BabyPBC,BenBear,  
COMMENT                     brep,chaoslawful,DannyZeng,farm,fiag,keykeen,
COMMENT                     liyi,lucifer,nilarcs,niqiu,pangwa,pathfinder,

STARTCHAR nounicode-3-1-c
ENCODING 12
SWIDTH 333 0
DWIDTH 6 0
BBX 1 1 0 -1
BITMAP
00
ENDCHAR
STARTCHAR nounicode-3-1-d
ENCODING 13
SWIDTH 333 0
DWIDTH 4 0
BBX 1 1 3 -3
BITMAP
00
ENDCHAR
STARTCHAR space
ENCODING 32
SWIDTH 500 0
DWIDTH 4 0
BBX 1 1 0 -1
BITMAP
00
ENDCHAR
STARTCHAR exclam
ENCODING 33
SWIDTH 500 0
DWIDTH 7 0
BBX 1 11 3 -2
BITMAP
80
80
80
80
80
80
80
00
00
80
80
ENDCHAR
STARTCHAR quotedbl
ENCODING 34
SWIDTH 583 0
DWIDTH 6 0
BBX 4 3 1 7
BITMAP
90
90
90
ENDCHAR
STARTCHAR numbersign
ENCODING 35
SWIDTH 500 0
DWIDTH 7 0
BBX 6 11 0 -1
BITMAP
48
48
48
FC
48
48
48
FC
48
48
48
ENDCHAR
STARTCHAR dollar
ENCODING 36
SWIDTH 500 0
DWIDTH 7 0
BBX 5 11 1 -1
BITMAP
20
70
A8
A0
60
30
28
28
A8
70
20
ENDCHAR
STARTCHAR percent
ENCODING 37
SWIDTH 500 0
DWIDTH 8 0
BBX 7 9 0 0
BITMAP
42
A4
A8
48
10
24
2A
4A
84
ENDCHAR
STARTCHAR ampersand
ENCODING 38
SWIDTH 416 0
DWIDTH 8 0
BBX 7 9 0 0
BITMAP
30
48
48
50
20
54
88
8C
72
ENDCHAR
STARTCHAR quotesingle
ENCODING 39
SWIDTH 500 0
DWIDTH 5 0
BBX 1 3 2 7
BITMAP
80
80
80
ENDCHAR
STARTCHAR parenleft
ENCODING 40
SWIDTH 500 0
DWIDTH 7 0
BBX 3 12 2 -2
BITMAP
20
40
40
80
80
80
80
80
80
40
40
20
ENDCHAR
STARTCHAR parenright
ENCODING 41
SWIDTH 500 0
DWIDTH 7 0
BBX 3 12 2 -2
BITMAP
80
40
40
20
20
20
20
20
20
40
40
80
ENDCHAR
STARTCHAR asterisk
ENCODING 42
SWIDTH 666 0
DWIDTH 8 0
BBX 7 7 0 1
BITMAP
10
54
38
FE
38
54
10
ENDCHAR
STARTCHAR plus
ENCODING 43
SWIDTH 500 0
DWIDTH 7 0
BBX 7 7 0 1
BITMAP
10
10
10
FE
10
10
10
ENDCHAR
STARTCHAR comma
ENCODING 44
SWIDTH 500 0
DWIDTH 5 0
BBX 2 4 1 -2
BITMAP
C0
C0
40
80
ENDCHAR
STARTCHAR hyphen
ENCODING 45
SWIDTH 416 0
DWIDTH 7 0
BBX 6 1 0 4
BITMAP
FC
ENDCHAR
STARTCHAR period
ENCODING 46
SWIDTH 500 0
DWIDTH 5 0
BBX 2 2 1 0
BITMAP
C0
C0
ENDCHAR
STARTCHAR slash
ENCODING 47
SWIDTH 636 0
DWIDTH 7 0
BBX 6 12 0 -2
BITMAP
04
04
08
08
10
10
20
20
40
40
80
80
ENDCHAR
STARTCHAR zero
ENCODING 48
SWIDTH 636 0
DWIDTH 7 0
BBX 6 9 0 0
BITMAP
78
84
84
84
84
84
84
84
78
ENDCHAR
STARTCHAR one
ENCODING 49
SWIDTH 636 0
DWIDTH 6 0
BBX 5 9 0 0
BITMAP
E0
20
20
20
20
20
20
20
F8
ENDCHAR
STARTCHAR two
ENCODING 50
SWIDTH 636 0
DWIDTH 7 0
BBX 6 9 0 0
BITMAP
78
84
84
08
10
20
40
80
FC
ENDCHAR
STARTCHAR three
ENCODING 51
SWIDTH 636 0
DWIDTH 7 0
BBX 6 9 0 0
BITMAP
78
84
04
04
38
04
04
84
78
ENDCHAR
STARTCHAR four
ENCODING 52
SWIDTH 636 0
DWIDTH 7 0
BBX 6 9 0 0
BITMAP
18
28
48
48
88
88
FC
08
08
ENDCHAR
STARTCHAR five
ENCODING 53
SWIDTH 636 0
DWIDTH 7 0
BBX 6 9 0 0
BITMAP
FC
80
80
F8
04
04
04
84
78
ENDCHAR
STARTCHAR six
ENCODING 54
SWIDTH 636 0
DWIDTH 7 0
BBX 6 9 0 0
BITMAP
78
84
80
B8
C4
84
84
84
78
ENDCHAR
STARTCHAR seven
ENCODING 55
SWIDTH 636 0
DWIDTH 7 0
BBX 6 9 0 0
BITMAP
FC
08
08
10
10
10
20
20
20
ENDCHAR
STARTCHAR eight
ENCODING 56
SWIDTH 636 0
DWIDTH 7 0
BBX 6 9 0 0
BITMAP
78
84
84
84
78
84
84
84
78
ENDCHAR
STARTCHAR nine
ENCODING 57
SWIDTH 500 0
DWIDTH 7 0
BBX 6 9 0 0
BITMAP
78
84
84
84
7C
04
04
84
78
ENDCHAR
STARTCHAR colon
ENCODING 58
SWIDTH 500 0
DWIDTH 6 0
BBX 2 7 2 1
BITMAP
C0
C0
00
00
00
C0
C0
ENDCHAR
STARTCHAR semicolon
ENCODING 59
SWIDTH 500 0
DWIDTH 6 0
BBX 2 9 2 -1
BITMAP
C0
C0
00
00
00
C0
C0
40
80
ENDCHAR
STARTCHAR less
ENCODING 60
SWIDTH 500 0
DWIDTH 7 0
BBX 6 11 0 -2
BITMAP
04
08
10
20
40
80
40
20
10
08
04
ENDCHAR
STARTCHAR equal
ENCODING 61
SWIDTH 500 0
DWIDTH 7 0
BBX 6 4 0 2
BITMAP
FC
00
00
FC
ENDCHAR
STARTCHAR greater
ENCODING 62
SWIDTH 500 0
DWIDTH 7 0
BBX 6 11 0 -2
BITMAP
80
40
20
10
08
04
08
10
20
40
80
ENDCHAR
STARTCHAR question
ENCODING 63
SWIDTH 666 0
DWIDTH 7 0
BBX 6 10 0 -1
BITMAP
78
84
84
04
18
10
10
00
10
10
ENDCHAR
STARTCHAR at
ENCODING 64
SWIDTH 714 0
DWIDTH 10 0
BBX 9 10 0 0
BITMAP
3E00
4100
9C80
A280
9E80
A280
A280
9E80
4100
3E00
ENDCHAR
STARTCHAR A
ENCODING 65
SWIDTH 686 0
DWIDTH 9 0
BBX 8 9 0 0
BITMAP
18
18
24
24
42
42
7E
81
81
ENDCHAR
STARTCHAR B
ENCODING 66
SWIDTH 666 0
DWIDTH 7 0
BBX 6 9 0 0
BITMAP
F8
84
84
84
F8
84
84
84
F8
ENDCHAR
STARTCHAR C
ENCODING 67
SWIDTH 750 0
DWIDTH 7 0
BBX 6 9 0 0
BITMAP
3C
40
80
80
80
80
80
40
3C
ENDCHAR
STARTCHAR D
ENCODING 68
SWIDTH 583 0
DWIDTH 8 0
BBX 7 9 0 0
BITMAP
F8
84
82
82
82
82
82
84
F8
ENDCHAR
STARTCHAR E
ENCODING 69
SWIDTH 583 0
DWIDTH 7 0
BBX 6 9 0 0
BITMAP
FC
80
80
80
F8
80
80
80
FC
ENDCHAR
STARTCHAR F
ENCODING 70
SWIDTH 666 0
DWIDTH 7 0
BBX 6 9 0 0
BITMAP
FC
80
80
80
F8
80
80
80
80
ENDCHAR
STARTCHAR G
ENCODING 71
SWIDTH 583 0
DWIDTH 8 0
BBX 7 9 0 0
BITMAP
3C
42
80
80
8E
82
82
42
3E
ENDCHAR
STARTCHAR H
ENCODING 72
SWIDTH 333 0
DWIDTH 8 0
BBX 7 9 0 0
BITMAP
82
82
82
82
FE
82
82
82
82
ENDCHAR
STARTCHAR I
ENCODING 73
SWIDTH 294 0
DWIDTH 4 0
BBX 3 9 0 0
BITMAP
E0
40
40
40
40
40
40
40
E0
ENDCHAR
STARTCHAR J
ENCODING 74
SWIDTH 500 0
DWIDTH 4 0
BBX 3 12 0 -3
BITMAP
20
20
20
20
20
20
20
20
20
20
20
C0
ENDCHAR
STARTCHAR K
ENCODING 75
SWIDTH 557 0
DWIDTH 7 0
BBX 6 9 0 0
BITMAP
84
88
90
A0
C0
A0
90
88
84
ENDCHAR
STARTCHAR L
ENCODING 76
SWIDTH 666 0
DWIDTH 7 0
BBX 6 9 0 0
BITMAP
80
80
80
80
80
80
80
80
FC
ENDCHAR
STARTCHAR M
ENCODING 77
SWIDTH 583 0
DWIDTH 9 0
BBX 8 9 0 0
BITMAP
C3
C3
A5
A5
99
99
81
81
81
ENDCHAR
STARTCHAR N
ENCODING 78
SWIDTH 666 0
DWIDTH 8 0
BBX 7 9 0 0
BITMAP
C2
C2
A2
A2
92
92
8A
8A
86
ENDCHAR
STARTCHAR O
ENCODING 79
SWIDTH 500 0
DWIDTH 8 0
BBX 7 9 0 0
BITMAP
38
44
82
82
82
82
82
44
38
ENDCHAR
STARTCHAR P
ENCODING 80
SWIDTH 666 0
DWIDTH 7 0
BBX 6 9 0 0
BITMAP
F8
84
84
84
84
F8
80
80
80
ENDCHAR
STARTCHAR Q
ENCODING 81
SWIDTH 500 0
DWIDTH 8 0
BBX 7 10 0 -1
BITMAP
38
44
82
82
82
82
82
44
38
06
ENDCHAR
STARTCHAR R
ENCODING 82
SWIDTH 500 0
DWIDTH 7 0
BBX 6 9 0 0
BITMAP
F8
84
84
84
F8
90
88
88
84
ENDCHAR
STARTCHAR S
ENCODING 83
SWIDTH 610 0
DWIDTH 7 0
BBX 6 9 0 0
BITMAP
78
84
80
80
78
04
04
84
78
ENDCHAR
STARTCHAR T
ENCODING 84
SWIDTH 583 0
DWIDTH 8 0
BBX 7 9 0 0
BITMAP
FE
10
10
10
10
10
10
10
10
ENDCHAR
STARTCHAR U
ENCODING 85
SWIDTH 666 0
DWIDTH 8 0
BBX 7 9 0 0
BITMAP
82
82
82
82
82
82
82
44
38
ENDCHAR
STARTCHAR V
ENCODING 86
SWIDTH 833 0
DWIDTH 8 0
BBX 7 9 0 0
BITMAP
82
82
82
44
44
28
28
10
10
ENDCHAR
STARTCHAR W
ENCODING 87
SWIDTH 583 0
DWIDTH 12 0
BBX 11 9 0 0
BITMAP
8420
8420
8A20
4A40
5140
5140
5140
2080
2080
ENDCHAR
STARTCHAR X
ENCODING 88
SWIDTH 666 0
DWIDTH 8 0
BBX 7 9 0 0
BITMAP
82
82
44
28
10
28
44
82
82
ENDCHAR
STARTCHAR Y
ENCODING 89
SWIDTH 666 0
DWIDTH 8 0
BBX 7 9 0 0
BITMAP
82
44
28
10
10
10
10
10
10
ENDCHAR
STARTCHAR Z
ENCODING 90
SWIDTH 500 0
DWIDTH 8 0
BBX 7 9 0 0
BITMAP
FE
02
04
08
10
20
40
80
FE
ENDCHAR
STARTCHAR bracketleft
ENCODING 91
SWIDTH 500 0
DWIDTH 7 0
BBX 3 12 2 -1
BITMAP
E0
80
80
80
80
80
80
80
80
80
80
E0
ENDCHAR
STARTCHAR backslash
ENCODING 92
SWIDTH 500 0
DWIDTH 7 0
BBX 5 10 1 0
BITMAP
80
80
40
40
20
20
10
10
08
08
ENDCHAR
STARTCHAR bracketright
ENCODING 93
SWIDTH 500 0
DWIDTH 7 0
BBX 3 12 2 -1
BITMAP
E0
20
20
20
20
20
20
20
20
20
20
E0
ENDCHAR
STARTCHAR asciicircum
ENCODING 94
SWIDTH 500 0
DWIDTH 7 0
BBX 5 3 1 7
BITMAP
20
50
88
ENDCHAR
STARTCHAR underscore
ENCODING 95
SWIDTH 500 0
DWIDTH 7 0
BBX 6 1 0 -1
BITMAP
FC
ENDCHAR
STARTCHAR grave
ENCODING 96
SWIDTH 500 0
DWIDTH 7 0
BBX 3 3 2 6
BITMAP
C0
40
20
ENDCHAR
STARTCHAR a
ENCODING 97
SWIDTH 500 0
DWIDTH 7 0
BBX 6 7 0 0
BITMAP
78
04
7C
84
84
84
7C
ENDCHAR
STARTCHAR b
ENCODING 98
SWIDTH 416 0
DWIDTH 7 0
BBX 6 10 0 0
BITMAP
80
80
80
B8
C4
84
84
84
C4
B8
ENDCHAR
STARTCHAR c
ENCODING 99
SWIDTH 500 0
DWIDTH 6 0
BBX 5 7 0 0
BITMAP
78
80
80
80
80
80
78
ENDCHAR
STARTCHAR d
ENCODING 100
SWIDTH 500 0
DWIDTH 7 0
BBX 6 10 0 0
BITMAP
04
04
04
74
8C
84
84
84
8C
74
ENDCHAR
STARTCHAR e
ENCODING 101
SWIDTH 416 0
DWIDTH 7 0
BBX 6 7 0 0
BITMAP
78
84
84
FC
80
84
78
ENDCHAR
STARTCHAR f
ENCODING 102
SWIDTH 500 0
DWIDTH 6 0
BBX 5 10 0 0
BITMAP
38
40
40
F8
40
40
40
40
40
40
ENDCHAR
STARTCHAR g
ENCODING 103
SWIDTH 500 0
DWIDTH 7 0
BBX 6 10 0 -3
BITMAP
7C
84
84
84
84
8C
74
04
04
78
ENDCHAR
STARTCHAR h
ENCODING 104
SWIDTH 166 0
DWIDTH 7 0
BBX 6 10 0 0
BITMAP
80
80
80
B8
C4
84
84
84
84
84
ENDCHAR
STARTCHAR i
ENCODING 105
SWIDTH 277 0
DWIDTH 2 0
BBX 1 9 0 0
BITMAP
80
00
80
80
80
80
80
80
80
ENDCHAR
STARTCHAR j
ENCODING 106
SWIDTH 416 0
DWIDTH 3 0
BBX 2 12 0 -3
BITMAP
40
00
40
40
40
40
40
40
40
40
40
80
ENDCHAR
STARTCHAR k
ENCODING 107
SWIDTH 166 0
DWIDTH 6 0
BBX 5 10 0 0
BITMAP
80
80
80
88
90
A0
C0
A0
90
88
ENDCHAR
STARTCHAR l
ENCODING 108
SWIDTH 833 0
DWIDTH 3 0
BBX 1 10 1 0
BITMAP
80
80
80
80
80
80
80
80
80
80
ENDCHAR
STARTCHAR m
ENCODING 109
SWIDTH 500 0
DWIDTH 10 0
BBX 9 7 0 0
BITMAP
B300
CC80
8880
8880
8880
8880
8880
ENDCHAR
STARTCHAR n
ENCODING 110
SWIDTH 500 0
DWIDTH 7 0
BBX 6 7 0 0
BITMAP
B8
C4
84
84
84
84
84
ENDCHAR
STARTCHAR o
ENCODING 111
SWIDTH 500 0
DWIDTH 8 0
BBX 7 7 0 0
BITMAP
38
44
82
82
82
44
38
ENDCHAR
STARTCHAR p
ENCODING 112
SWIDTH 500 0
DWIDTH 7 0
BBX 6 10 0 -3
BITMAP
B8
C4
84
84
84
C4
B8
80
80
80
ENDCHAR
STARTCHAR q
ENCODING 113
SWIDTH 333 0
DWIDTH 7 0
BBX 6 10 0 -3
BITMAP
74
8C
84
84
84
8C
74
04
04
04
ENDCHAR
STARTCHAR r
ENCODING 114
SWIDTH 520 0
DWIDTH 5 0
BBX 4 7 0 0
BITMAP
B0
C0
80
80
80
80
80
ENDCHAR
STARTCHAR s
ENCODING 115
SWIDTH 416 0
DWIDTH 6 0
BBX 5 7 0 0
BITMAP
70
88
80
70
08
88
70
ENDCHAR
STARTCHAR t
ENCODING 116
SWIDTH 500 0
DWIDTH 5 0
BBX 4 9 0 0
BITMAP
40
40
F0
40
40
40
40
40
30
ENDCHAR
STARTCHAR u
ENCODING 117
SWIDTH 500 0
DWIDTH 7 0
BBX 6 7 0 0
BITMAP
84
84
84
84
84
8C
74
ENDCHAR
STARTCHAR v
ENCODING 118
SWIDTH 666 0
DWIDTH 8 0
BBX 7 7 0 0
BITMAP
82
44
44
28
28
10
10
ENDCHAR
STARTCHAR w
ENCODING 119
SWIDTH 500 0
DWIDTH 10 0
BBX 9 7 0 0
BITMAP
8880
8880
5500
5500
5500
2200
2200
ENDCHAR
STARTCHAR x
ENCODING 120
SWIDTH 500 0
DWIDTH 6 0
BBX 5 7 0 0
BITMAP
88
88
50
20
50
88
88
ENDCHAR
STARTCHAR y
ENCODING 121
SWIDTH 500 0
DWIDTH 8 0
BBX 7 10 0 -3
BITMAP
82
82
44
44
28
28
10
10
20
20
ENDCHAR
STARTCHAR z
ENCODING 122
SWIDTH 500 0
DWIDTH 6 0
BBX 5 7 0 0
BITMAP
F8
08
10
20
40
80
F8
ENDCHAR
STARTCHAR braceleft
ENCODING 123
SWIDTH 416 0
DWIDTH 7 0
BBX 3 13 2 -2
BITMAP
20
40
40
40
40
40
80
80
40
40
40
40
20
ENDCHAR
STARTCHAR bar
ENCODING 124
SWIDTH 500 0
DWIDTH 7 0
BBX 1 12 3 -1
BITMAP
80
80
80
80
80
80
80
80
80
80
80
80
ENDCHAR
STARTCHAR braceright
ENCODING 125
SWIDTH 500 0
DWIDTH 7 0
BBX 3 13 2 -2
BITMAP
80
40
40
40
40
40
20
20
40
40
40
40
80
ENDCHAR
STARTCHAR asciitilde
ENCODING 126
SWIDTH 500 0
DWIDTH 7 0
BBX 5 3 1 3
BITMAP
40
A8
10
ENDCHAR
STARTCHAR nounicode-3-1-80
ENCODING 128
SWIDTH 636 0
DWIDTH 6 0
BBX 6 11 0 -1
BITMAP
18
24
40
40
F8
40
F8
40
40
24
18
ENDCHAR
STARTCHAR nonbreakingspace
ENCODING 160
SWIDTH 500 0
DWIDTH 8 0
BBX 1 1 0 -1
BITMAP
00
ENDCHAR
STARTCHAR exclamdown
ENCODING 161
SWIDTH 500 0
DWIDTH 6 0
BBX 1 10 3 -2
BITMAP
80
80
00
80
80
80
80
80
80
80
ENDCHAR
STARTCHAR cent
ENCODING 162
SWIDTH 500 0
DWIDTH 6 0
BBX 5 9 1 -1
BITMAP
20
70
A8
A0
A0
A0
A8
70
20
ENDCHAR
STARTCHAR sterling
ENCODING 163
SWIDTH 500 0
DWIDTH 6 0
BBX 5 9 0 -2
BITMAP
38
48
48
40
F8
20
A0
C8
78
ENDCHAR
STARTCHAR currency
ENCODING 164
SWIDTH 500 0
DWIDTH 6 0
BBX 6 5 0 0
BITMAP
B4
48
48
48
B4
ENDCHAR
STARTCHAR yen
ENCODING 165
SWIDTH 500 0
DWIDTH 6 0
BBX 5 10 0 -2
BITMAP
88
50
20
F8
20
F8
20
20
20
20
ENDCHAR
STARTCHAR section
ENCODING 167
SWIDTH 500 0
DWIDTH 6 0
BBX 4 10 1 -1
BITMAP
60
90
80
60
90
90
60
10
90
60
ENDCHAR
STARTCHAR dieresis
ENCODING 168
SWIDTH 500 0
DWIDTH 6 0
BBX 3 1 1 5
BITMAP
A0
ENDCHAR
STARTCHAR copyright
ENCODING 169
SWIDTH 714 0
DWIDTH 10 0
BBX 9 10 0 0
BITMAP
3E00
4100
9C80
A280
A080
A080
A280
9C80
4100
3E00
ENDCHAR
STARTCHAR ordfeminine
ENCODING 170
SWIDTH 500 0
DWIDTH 6 0
BBX 5 8 1 1
BITMAP
60
90
70
90
90
68
00
F8
ENDCHAR
STARTCHAR guillemotleft
ENCODING 171
SWIDTH 500 0
DWIDTH 6 0
BBX 5 6 0 0
BITMAP
28
50
A0
A0
50
28
ENDCHAR
STARTCHAR registered
ENCODING 174
SWIDTH 714 0
DWIDTH 10 0
BBX 9 10 0 0
BITMAP
3E00
4100
BC80
A280
A280
BC80
A280
A280
4100
3E00
ENDCHAR
STARTCHAR macron
ENCODING 175
SWIDTH 500 0
DWIDTH 6 0
BBX 5 1 0 8
BITMAP
F8
ENDCHAR
STARTCHAR degree
ENCODING 176
SWIDTH 500 0
DWIDTH 6 0
BBX 3 4 1 4
BITMAP
40
A0
A0
40
ENDCHAR
STARTCHAR plusminus
ENCODING 177
SWIDTH 500 0
DWIDTH 6 0
BBX 5 7 0 -1
BITMAP
20
20
F8
20
20
00
F8
ENDCHAR
STARTCHAR periodcentered
ENCODING 183
SWIDTH 500 0
DWIDTH 6 0
BBX 1 1 3 2
BITMAP
80
ENDCHAR
STARTCHAR guillemotright
ENCODING 187
SWIDTH 500 0
DWIDTH 6 0
BBX 5 6 0 0
BITMAP
A0
50
28
28
50
A0
ENDCHAR
STARTCHAR multiply
ENCODING 215
SWIDTH 1000 0
DWIDTH 13 0
BBX 9 9 2 0
BITMAP
8080
4100
2200
1400
0800
1400
2200
4100
8080
ENDCHAR
STARTCHAR agrave
ENCODING 224
SWIDTH 1000 0
DWIDTH 13 0
BBX 7 10 3 0
BITMAP
20
10
00
74
8C
84
84
84
8C
76
ENDCHAR
STARTCHAR aacute
ENCODING 225
SWIDTH 1000 0
DWIDTH 13 0
BBX 7 10 3 0
BITMAP
10
20
00
74
8C
84
84
84
8C
76
ENDCHAR
STARTCHAR egrave
ENCODING 232
SWIDTH 1000 0
DWIDTH 13 0
BBX 6 10 3 0
BITMAP
20
10
00
30
48
84
FC
80
44
38
ENDCHAR
STARTCHAR eacute
ENCODING 233
SWIDTH 1000 0
DWIDTH 13 0
BBX 6 10 3 0
BITMAP
08
10
00
30
48
84
FC
80
44
38
ENDCHAR
STARTCHAR ecircumflex
ENCODING 234
SWIDTH 1000 0
DWIDTH 13 0
BBX 6 10 3 0
BITMAP
30
48
00
30
48
84
FC
80
44
38
ENDCHAR
STARTCHAR igrave
ENCODING 236
SWIDTH 1000 0
DWIDTH 13 0
BBX 3 11 5 -1
BITMAP
80
40
00
00
40
C0
40
40
40
40
E0
ENDCHAR
STARTCHAR iacute
ENCODING 237
SWIDTH 1000 0
DWIDTH 13 0
BBX 3 11 5 -1
BITMAP
40
80
00
00
40
C0
40
40
40
40
E0
ENDCHAR
STARTCHAR ograve
ENCODING 242
SWIDTH 1000 0
DWIDTH 13 0
BBX 7 11 3 -1
BITMAP
20
10
00
38
44
82
82
82
82
44
38
ENDCHAR
STARTCHAR oacute
ENCODING 243
SWIDTH 1000 0
DWIDTH 13 0
BBX 7 11 3 -1
BITMAP
10
20
00
38
44
82
82
82
82
44
38
ENDCHAR
STARTCHAR divide
ENCODING 247
SWIDTH 1000 0
DWIDTH 13 0
BBX 9 9 2 0
BITMAP
0C00
0C00
0000
0000
FF80
0000
0000
0C00
0C00
ENDCHAR
STARTCHAR ugrave
ENCODING 249
SWIDTH 1000 0
DWIDTH 13 0
BBX 7 10 3 0
BITMAP
20
10
00
44
CC
44
44
44
4C
36
ENDCHAR
STARTCHAR uacute
ENCODING 250
SWIDTH 1000 0
DWIDTH 13 0
BBX 7 10 3 0
BITMAP
10
20
00
44
CC
44
44
44
4C
36
ENDCHAR
STARTCHAR udieresis
ENCODING 252
SWIDTH 1000 0
DWIDTH 13 0
BBX 7 9 3 0
BITMAP
44
00
44
CC
44
44
44
4C
36
ENDCHAR
STARTCHAR amacron
ENCODING 257
SWIDTH 1000 0
DWIDTH 13 0
BBX 7 10 3 0
BITMAP
7C
00
00
74
8C
84
84
84
8C
76
ENDCHAR
STARTCHAR emacron
ENCODING 275
SWIDTH 1000 0
DWIDTH 13 0
BBX 6 10 3 0
BITMAP
7C
00
00
30
48
84
FC
80
44
38
ENDCHAR
STARTCHAR ecaron
ENCODING 283
SWIDTH 1000 0
DWIDTH 13 0
BBX 6 10 3 0
BITMAP
28
10
00
30
48
84
FC
80
44
38
ENDCHAR
STARTCHAR imacron
ENCODING 299
SWIDTH 1000 0
DWIDTH 13 0
BBX 5 11 4 -1
BITMAP
F8
00
00
00
20
60
20
20
20
20
70
ENDCHAR
STARTCHAR nacute
ENCODING 324
SWIDTH 1000 0
DWIDTH 13 0
BBX 1 1 12 -3
BITMAP
00
ENDCHAR
STARTCHAR ncaron
ENCODING 328
SWIDTH 1000 0
DWIDTH 13 0
BBX 1 1 12 -3
BITMAP
00
ENDCHAR
STARTCHAR omacron
ENCODING 333
SWIDTH 1000 0
DWIDTH 13 0
BBX 7 10 3 0
BITMAP
7C
00
00
38
44
82
82
82
44
38
ENDCHAR
STARTCHAR umacron
ENCODING 363
SWIDTH 1000 0
DWIDTH 13 0
BBX 7 10 3 0
BITMAP
7C
00
00
44
CC
44
44
44
4C
36
ENDCHAR
STARTCHAR U_01CE
ENCODING 462
SWIDTH 1000 0
DWIDTH 13 0
BBX 7 10 3 0
BITMAP
28
10
00
74
8C
84
84
84
8C
76
ENDCHAR
STARTCHAR U_01D0
ENCODING 464
SWIDTH 1000 0
DWIDTH 13 0
BBX 3 10 5 0
BITMAP
A0
40
00
40
C0
40
40
40
40
E0
ENDCHAR
STARTCHAR U_01D2
ENCODING 466
SWIDTH 1000 0
DWIDTH 13 0
BBX 7 10 3 0
BITMAP
28
10
00
38
44
82
82
82
44
38
ENDCHAR
STARTCHAR U_01D4
ENCODING 468
SWIDTH 1000 0
DWIDTH 13 0
BBX 7 10 3 0
BITMAP
28
10
00
44
CC
44
44
44
4C
36
ENDCHAR
STARTCHAR U_01D6
ENCODING 470
SWIDTH 1000 0
DWIDTH 13 0
BBX 7 10 3 0
BITMAP
7C
00
44
00
CC
44
44
44
4C
36
ENDCHAR
STARTCHAR U_01D8
ENCODING 472
SWIDTH 1000 0
DWIDTH 13 0
BBX 7 10 3 0
BITMAP
08
10
44
00
CC
44
44
44
4C
36
ENDCHAR
STARTCHAR U_01DA
ENCODING 474
SWIDTH 1000 0
DWIDTH 13 0
BBX 7 10 3 0
BITMAP
28
10
44
00
CC
44
44
44
4C
36
ENDCHAR
STARTCHAR U_01DC
ENCODING 476
SWIDTH 1000 0
DWIDTH 13 0
BBX 7 10 3 0
BITMAP
20
10
44
00
CC
44
44
44
4C
36
ENDCHAR
STARTCHAR caron
ENCODING 711
SWIDTH 1000 0
DWIDTH 13 0
BBX 6 6 3 2
BITMAP
84
44
28
38
30
10
ENDCHAR
STARTCHAR U_02C9
ENCODING 713
SWIDTH 1000 0
DWIDTH 13 0
BBX 6 1 4 7
BITMAP
FC
ENDCHAR
STARTCHAR U_02CA
ENCODING 714
SWIDTH 1000 0
DWIDTH 13 0
BBX 5 5 4 3
BITMAP
08
10
20
60
C0
ENDCHAR
STARTCHAR U_02CB
ENCODING 715
SWIDTH 1000 0
DWIDTH 13 0
BBX 5 5 4 3
BITMAP
80
C0
60
20
18
ENDCHAR
STARTCHAR U_02CD
ENCODING 717
SWIDTH 1000 0
DWIDTH 13 0
BBX 13 1 0 -3
BITMAP
FFF8
ENDCHAR
STARTCHAR dotaccent
ENCODING 729
SWIDTH 1000 0
DWIDTH 13 0
BBX 4 4 4 3
BITMAP
60
F0
F0
60
ENDCHAR
STARTCHAR Alpha
ENCODING 913
SWIDTH 1000 0
DWIDTH 13 0
BBX 9 10 1 -2
BITMAP
0800
0800
1400
1400
2200
2200
3E00
4100
4100
E380
ENDCHAR
STARTCHAR Beta
ENCODING 914
SWIDTH 1000 0
DWIDTH 13 0
BBX 7 10 2 -2
BITMAP
F8
44
42
44
78
44
42
42
44
F8
ENDCHAR
STARTCHAR Gamma
ENCODING 915
SWIDTH 1000 0
DWIDTH 13 0
BBX 7 10 2 -2
BITMAP
FC
44
42
40
40
40
40
40
40
E0
ENDCHAR
STARTCHAR U_0394
ENCODING 916
SWIDTH 1000 0
DWIDTH 13 0
BBX 9 10 1 -2
BITMAP
0800
0800
0800
1400
1400
2200
2200
4100
4100
FF80
ENDCHAR
STARTCHAR Epsilon
ENCODING 917
SWIDTH 1000 0
DWIDTH 13 0
BBX 8 10 2 -2
BITMAP
FE
41
40
44
7C
44
40
41
41
FE
ENDCHAR
STARTCHAR Zeta
ENCODING 918
SWIDTH 1000 0
DWIDTH 13 0
BBX 9 10 1 -2
BITMAP
7F80
4100
8200
0400
0800
0800
1000
2080
4080
FF80
ENDCHAR
STARTCHAR Eta
ENCODING 919
SWIDTH 1000 0
DWIDTH 13 0
BBX 9 10 1 -2
BITMAP
E380
4100
4100
4100
7F00
4100
4100
4100
4100
E380
ENDCHAR
STARTCHAR Theta
ENCODING 920
SWIDTH 1000 0
DWIDTH 13 0
BBX 9 10 1 -2
BITMAP
1C00
2200
4100
A280
BE80
A280
8080
4100
2200
1C00
ENDCHAR
STARTCHAR Iota
ENCODING 921
SWIDTH 1000 0
DWIDTH 13 0
BBX 3 10 4 -2
BITMAP
E0
40
40
40
40
40
40
40
40
E0
ENDCHAR
STARTCHAR Kappa
ENCODING 922
SWIDTH 1000 0
DWIDTH 13 0
BBX 8 10 2 -2
BITMAP
EE
44
48
50
60
50
48
44
42
E7
ENDCHAR
STARTCHAR Lambda
ENCODING 923
SWIDTH 1000 0
DWIDTH 13 0
BBX 9 10 1 -2
BITMAP
0800
0800
1400
1400
2200
2200
2200
4100
4100
E380
ENDCHAR
STARTCHAR Mu
ENCODING 924
SWIDTH 1000 0
DWIDTH 13 0
BBX 11 10 0 -2
BITMAP
C060
4040
60C0
60C0
5140
5140
4A40
4A40
4440
E4E0
ENDCHAR
STARTCHAR Nu
ENCODING 925
SWIDTH 1000 0
DWIDTH 13 0
BBX 8 10 2 -2
BITMAP
C7
62
52
52
4A
4A
46
46
42
E2
ENDCHAR
STARTCHAR Xi
ENCODING 926
SWIDTH 1000 0
DWIDTH 13 0
BBX 8 10 2 -2
BITMAP
FF
81
00
42
7E
42
00
00
81
FF
ENDCHAR
STARTCHAR Omicron
ENCODING 927
SWIDTH 1000 0
DWIDTH 13 0
BBX 9 10 1 -2
BITMAP
1C00
2200
4100
8080
8080
8080
8080
4100
2200
1C00
ENDCHAR
STARTCHAR Pi
ENCODING 928
SWIDTH 1000 0
DWIDTH 13 0
BBX 9 10 1 -2
BITMAP
FF80
4100
4100
4100
4100
4100
4100
4100
4100
E380
ENDCHAR
STARTCHAR Rho
ENCODING 929
SWIDTH 1000 0
DWIDTH 13 0
BBX 7 10 2 -2
BITMAP
F8
44
42
42
44
78
40
40
40
E0
ENDCHAR
STARTCHAR Sigma
ENCODING 931
SWIDTH 1000 0
DWIDTH 13 0
BBX 9 10 1 -2
BITMAP
FE00
4200
2100
1000
0800
0800
1000
2080
4080
FF00
ENDCHAR
STARTCHAR Tau
ENCODING 932
SWIDTH 1000 0
DWIDTH 13 0
BBX 9 10 1 -2
BITMAP
FF80
8880
8880
0800
0800
0800
0800
0800
0800
1C00
ENDCHAR
STARTCHAR Upsilon
ENCODING 933
SWIDTH 1000 0
DWIDTH 13 0
BBX 9 10 1 -2
BITMAP
7700
8880
8880
0800
0800
0800
0800
0800
0800
1C00
ENDCHAR
STARTCHAR Phi
ENCODING 934
SWIDTH 1000 0
DWIDTH 13 0
BBX 7 10 2 -2
BITMAP
38
10
7C
92
92
92
7C
10
10
38
ENDCHAR
STARTCHAR Chi
ENCODING 935
SWIDTH 1000 0
DWIDTH 13 0
BBX 9 10 1 -2
BITMAP
E380
4100
2200
1400
0800
0800
1400
2200
4100
E380
ENDCHAR
STARTCHAR Psi
ENCODING 936
SWIDTH 1000 0
DWIDTH 13 0
BBX 9 10 1 -2
BITMAP
1C00
8880
4900
4900
4900
2A00
1C00
0800
0800
1C00
ENDCHAR
STARTCHAR U_03A9
ENCODING 937
SWIDTH 1000 0
DWIDTH 13 0
BBX 9 10 1 -2
BITMAP
1C00
2200
4100
4100
4100
4100
2200
9480
9480
F780
ENDCHAR
STARTCHAR alpha
ENCODING 945
SWIDTH 1000 0
DWIDTH 13 0
BBX 7 7 2 -2
BITMAP
32
4A
8C
88
90
98
66
ENDCHAR
STARTCHAR beta
ENCODING 946
SWIDTH 1000 0
DWIDTH 13 0
BBX 8 11 1 -3
BITMAP
06
09
09
12
14
22
22
64
58
80
80
ENDCHAR
STARTCHAR gamma
ENCODING 947
SWIDTH 1000 0
DWIDTH 13 0
BBX 8 8 2 -2
BITMAP
63
94
08
10
10
20
20
40
ENDCHAR
STARTCHAR delta
ENCODING 948
SWIDTH 1000 0
DWIDTH 13 0
BBX 7 10 2 -2
BITMAP
18
26
10
08
18
24
44
84
88
70
ENDCHAR
STARTCHAR epsilon
ENCODING 949
SWIDTH 1000 0
DWIDTH 13 0
BBX 6 8 2 -2
BITMAP
38
44
40
30
40
84
88
70
ENDCHAR
STARTCHAR zeta
ENCODING 950
SWIDTH 1000 0
DWIDTH 13 0
BBX 7 11 2 -3
BITMAP
20
26
1C
10
20
40
40
40
30
88
70
ENDCHAR
STARTCHAR eta
ENCODING 951
SWIDTH 1000 0
DWIDTH 13 0
BBX 7 8 2 -3
BITMAP
4C
B2
22
44
44
88
08
08
ENDCHAR
STARTCHAR theta
ENCODING 952
SWIDTH 1000 0
DWIDTH 13 0
BBX 7 10 2 -2
BITMAP
0C
12
22
42
7E
84
84
88
90
60
ENDCHAR
STARTCHAR iota
ENCODING 953
SWIDTH 1000 0
DWIDTH 13 0
BBX 6 8 3 -2
BITMAP
10
20
40
40
80
84
98
60
ENDCHAR
STARTCHAR kappa
ENCODING 954
SWIDTH 1000 0
DWIDTH 13 0
BBX 8 8 1 -2
BITMAP
21
12
14
38
28
49
49
86
ENDCHAR
STARTCHAR lambda
ENCODING 955
SWIDTH 1000 0
DWIDTH 13 0
BBX 8 9 2 -2
BITMAP
30
08
08
08
18
28
44
84
83
ENDCHAR
STARTCHAR U_03BC
ENCODING 956
SWIDTH 1000 0
DWIDTH 13 0
BBX 9 9 1 -3
BITMAP
1100
1100
2100
2200
4200
6600
5980
8000
8000
ENDCHAR
STARTCHAR nu
ENCODING 957
SWIDTH 1000 0
DWIDTH 13 0
BBX 7 7 2 -2
BITMAP
42
22
24
44
48
50
E0
ENDCHAR
STARTCHAR xi
ENCODING 958
SWIDTH 1000 0
DWIDTH 13 0
BBX 6 11 3 -3
BITMAP
20
1C
20
40
30
40
80
70
08
88
70
ENDCHAR
STARTCHAR omicron
ENCODING 959
SWIDTH 1000 0
DWIDTH 13 0
BBX 6 7 2 -2
BITMAP
38
44
84
84
84
88
70
ENDCHAR
STARTCHAR pi
ENCODING 960
SWIDTH 1000 0
DWIDTH 13 0
BBX 9 8 1 -2
BITMAP
0080
3F00
5200
1400
2400
2800
4900
8600
ENDCHAR
STARTCHAR rho
ENCODING 961
SWIDTH 1000 0
DWIDTH 13 0
BBX 7 9 2 -3
BITMAP
1C
22
42
42
64
58
80
80
80
ENDCHAR
STARTCHAR sigma
ENCODING 963
SWIDTH 1000 0
DWIDTH 13 0
BBX 8 8 2 -2
BITMAP
01
1E
68
84
84
84
48
30
ENDCHAR
STARTCHAR tau
ENCODING 964
SWIDTH 1000 0
DWIDTH 13 0
BBX 7 9 2 -2
BITMAP
02
7C
90
10
20
20
40
48
30
ENDCHAR
STARTCHAR upsilon
ENCODING 965
SWIDTH 1000 0
DWIDTH 13 0
BBX 8 7 1 -2
BITMAP
42
A1
21
22
42
4C
30
ENDCHAR
STARTCHAR phi
ENCODING 966
SWIDTH 1000 0
DWIDTH 13 0
BBX 8 11 2 -3
BITMAP
04
04
08
3C
4A
89
91
92
7C
20
20
ENDCHAR
STARTCHAR chi
ENCODING 967
SWIDTH 1000 0
DWIDTH 13 0
BBX 7 9 2 -2
BITMAP
02
42
A4
98
10
30
50
8A
84
ENDCHAR
STARTCHAR psi
ENCODING 968
SWIDTH 1000 0
DWIDTH 13 0
BBX 8 11 2 -3
BITMAP
04
04
8A
49
49
91
92
7C
20
20
20
ENDCHAR
STARTCHAR omega
ENCODING 969
SWIDTH 1000 0
DWIDTH 13 0
BBX 9 7 1 -2
BITMAP
2100
4080
4080
8880
8880
9900
6600
ENDCHAR
STARTCHAR afii10023
ENCODING 1025
SWIDTH 1000 0
DWIDTH 13 0
BBX 7 11 3 -1
BITMAP
44
FE
42
42
48
48
78
48
40
42
FE
ENDCHAR
STARTCHAR afii10017
ENCODING 1040
SWIDTH 1000 0
DWIDTH 13 0
BBX 9 10 1 -2
BITMAP
0800
0800
1400
1400
2200
2200
3E00
4100
4100
E380
ENDCHAR
STARTCHAR afii10018
ENCODING 1041
SWIDTH 1000 0
DWIDTH 13 0
BBX 7 10 2 -2
BITMAP
FE
42
40
40
78
44
42
42
44
F8
ENDCHAR
STARTCHAR afii10019
ENCODING 1042
SWIDTH 1000 0
DWIDTH 13 0
BBX 7 10 2 -2
BITMAP
F8
44
42
44
78
44
42
42
44
F8
ENDCHAR
STARTCHAR afii10020
ENCODING 1043
SWIDTH 1000 0
DWIDTH 13 0
BBX 7 10 2 -2
BITMAP
FC
44
42
40
40
40
40
40
40
E0
ENDCHAR
STARTCHAR afii10021
ENCODING 1044
SWIDTH 1000 0
DWIDTH 13 0
BBX 9 11 1 -3
BITMAP
3F80
1200
1200
1200
1200
1200
2200
2200
4200
FF80
8080
ENDCHAR
STARTCHAR afii10022
ENCODING 1045
SWIDTH 1000 0
DWIDTH 13 0
BBX 8 10 2 -2
BITMAP
FE
41
40
44
7C
44
40
41
41
FE
ENDCHAR
STARTCHAR afii10024
ENCODING 1046
SWIDTH 1000 0
DWIDTH 13 0
BBX 9 10 1 -2
BITMAP
9C80
4900
4900
2A00
1C00
2A00
4A00
4900
4900
DD80
ENDCHAR
STARTCHAR afii10025
ENCODING 1047
SWIDTH 1000 0
DWIDTH 13 0
BBX 7 10 2 -2
BITMAP
38
44
84
04
18
04
02
82
C4
B8
ENDCHAR
STARTCHAR afii10026
ENCODING 1048
SWIDTH 1000 0
DWIDTH 13 0
BBX 8 10 2 -2
BITMAP
E3
46
4A
4A
52
52
62
62
42
E7
ENDCHAR
STARTCHAR afii10027
ENCODING 1049
SWIDTH 1000 0
DWIDTH 13 0
BBX 8 11 2 -2
BITMAP
24
18
E3
46
4A
4A
52
62
62
42
E7
ENDCHAR
STARTCHAR afii10028
ENCODING 1050
SWIDTH 1000 0
DWIDTH 13 0
BBX 8 10 2 -2
BITMAP
E2
45
48
50
60
50
48
44
42
E7
ENDCHAR
STARTCHAR afii10029
ENCODING 1051
SWIDTH 1000 0
DWIDTH 13 0
BBX 9 10 1 -2
BITMAP
3F80
0900
0900
0900
0900
1100
1100
1100
A100
4380
ENDCHAR
STARTCHAR afii10030
ENCODING 1052
SWIDTH 1000 0
DWIDTH 13 0
BBX 11 10 0 -2
BITMAP
60C0
2080
3180
3180
2A80
2A80
4440
4440
4440
E0E0
ENDCHAR
STARTCHAR afii10031
ENCODING 1053
SWIDTH 1000 0
DWIDTH 13 0
BBX 9 10 1 -2
BITMAP
E380
4100
4100
4100
7F00
4100
4100
4100
4100
E380
ENDCHAR
STARTCHAR afii10032
ENCODING 1054
SWIDTH 1000 0
DWIDTH 13 0
BBX 9 10 1 -2
BITMAP
1C00
2200
4100
8080
8080
8080
8080
4100
2200
1C00
ENDCHAR
STARTCHAR afii10033
ENCODING 1055
SWIDTH 1000 0
DWIDTH 13 0
BBX 8 10 1 -2
BITMAP
FF
42
42
42
42
42
42
42
42
E7
ENDCHAR
STARTCHAR afii10034
ENCODING 1056
SWIDTH 1000 0
DWIDTH 13 0
BBX 7 10 2 -2
BITMAP
F8
44
42
42
44
78
40
40
40
E0
ENDCHAR
STARTCHAR afii10035
ENCODING 1057
SWIDTH 1000 0
DWIDTH 13 0
BBX 8 10 2 -2
BITMAP
1D
23
41
80
80
80
80
41
22
1C
ENDCHAR
STARTCHAR afii10036
ENCODING 1058
SWIDTH 1000 0
DWIDTH 13 0
BBX 9 10 1 -2
BITMAP
FF80
8880
8880
0800
0800
0800
0800
0800
0800
1C00
ENDCHAR
STARTCHAR afii10037
ENCODING 1059
SWIDTH 1000 0
DWIDTH 13 0
BBX 9 10 1 -2
BITMAP
E380
4100
2200
2200
1400
1400
0800
0800
4800
3000
ENDCHAR
STARTCHAR afii10038
ENCODING 1060
SWIDTH 1000 0
DWIDTH 13 0
BBX 9 10 1 -2
BITMAP
1C00
0800
3E00
4900
8880
8880
4900
3E00
0800
1C00
ENDCHAR
STARTCHAR afii10039
ENCODING 1061
SWIDTH 1000 0
DWIDTH 13 0
BBX 9 10 1 -2
BITMAP
E380
4100
2200
1400
0800
0800
1400
2200
4100
E380
ENDCHAR
STARTCHAR afii10040
ENCODING 1062
SWIDTH 1000 0
DWIDTH 13 0
BBX 9 11 1 -3
BITMAP
E700
4200
4200
4200
4200
4200
4200
4200
4200
FF80
0080
ENDCHAR
STARTCHAR afii10041
ENCODING 1063
SWIDTH 1000 0
DWIDTH 13 0
BBX 8 10 1 -2
BITMAP
E7
42
42
42
42
26
1A
02
02
07
ENDCHAR
STARTCHAR afii10042
ENCODING 1064
SWIDTH 1000 0
DWIDTH 13 0
BBX 11 10 0 -2
BITMAP
EEE0
4440
4440
4440
4440
4440
4440
4440
4440
FFE0
ENDCHAR
STARTCHAR afii10043
ENCODING 1065
SWIDTH 1000 0
DWIDTH 13 0
BBX 12 11 0 -3
BITMAP
EEE0
4440
4440
4440
4440
4440
4440
4440
4440
FFF0
0010
ENDCHAR
STARTCHAR afii10044
ENCODING 1066
SWIDTH 1000 0
DWIDTH 13 0
BBX 9 10 1 -2
BITMAP
7000
9000
1000
1000
1E00
1100
1080
1080
1100
3E00
ENDCHAR
STARTCHAR afii10045
ENCODING 1067
SWIDTH 1000 0
DWIDTH 13 0
BBX 9 10 1 -2
BITMAP
C380
4100
4100
4100
7100
4900
4500
4500
4900
F380
ENDCHAR
STARTCHAR afii10046
ENCODING 1068
SWIDTH 1000 0
DWIDTH 13 0
BBX 7 10 2 -2
BITMAP
C0
40
40
78
44
42
42
42
44
78
ENDCHAR
STARTCHAR afii10047
ENCODING 1069
SWIDTH 1000 0
DWIDTH 13 0
BBX 7 10 2 -2
BITMAP
B8
C4
82
02
32
4E
02
82
44
38
ENDCHAR
STARTCHAR afii10048
ENCODING 1070
SWIDTH 1000 0
DWIDTH 13 0
BBX 10 10 0 -2
BITMAP
E300
4480
4840
4840
7840
4840
4840
4840
4480
E300
ENDCHAR
STARTCHAR afii10049
ENCODING 1071
SWIDTH 1000 0
DWIDTH 13 0
BBX 9 10 1 -2
BITMAP
1F80
2100
4100
2100
1F00
0500
0900
1100
2100
E380
ENDCHAR
STARTCHAR afii10065
ENCODING 1072
SWIDTH 1000 0
DWIDTH 13 0
BBX 6 7 3 -2
BITMAP
30
48
38
48
88
90
6C
ENDCHAR
STARTCHAR afii10066
ENCODING 1073
SWIDTH 1000 0
DWIDTH 13 0
BBX 6 10 2 -2
BITMAP
0C
30
40
80
B0
C8
84
84
48
30
ENDCHAR
STARTCHAR afii10067
ENCODING 1074
SWIDTH 1000 0
DWIDTH 13 0
BBX 6 7 2 -2
BITMAP
F8
44
44
78
44
44
F8
ENDCHAR
STARTCHAR afii10068
ENCODING 1075
SWIDTH 1000 0
DWIDTH 13 0
BBX 6 7 2 -2
BITMAP
F8
44
40
40
40
40
E0
ENDCHAR
STARTCHAR afii10069
ENCODING 1076
SWIDTH 1000 0
DWIDTH 13 0
BBX 8 8 1 -3
BITMAP
3F
12
12
12
22
22
FF
81
ENDCHAR
STARTCHAR afii10070
ENCODING 1077
SWIDTH 1000 0
DWIDTH 13 0
BBX 6 7 2 -2
BITMAP
30
48
84
FC
80
44
38
ENDCHAR
STARTCHAR afii10072
ENCODING 1078
SWIDTH 1000 0
DWIDTH 13 0
BBX 9 7 1 -2
BITMAP
DD80
2A00
2A00
1C00
2A00
4900
DD80
ENDCHAR
STARTCHAR afii10073
ENCODING 1079
SWIDTH 1000 0
DWIDTH 13 0
BBX 6 7 3 -2
BITMAP
38
C4
04
38
04
84
78
ENDCHAR
STARTCHAR afii10074
ENCODING 1080
SWIDTH 1000 0
DWIDTH 13 0
BBX 8 7 2 -2
BITMAP
E7
46
4A
52
62
42
E7
ENDCHAR
STARTCHAR afii10075
ENCODING 1081
SWIDTH 1000 0
DWIDTH 13 0
BBX 8 10 2 -2
BITMAP
24
18
00
E7
46
4A
52
62
42
E7
ENDCHAR
STARTCHAR afii10076
ENCODING 1082
SWIDTH 1000 0
DWIDTH 13 0
BBX 7 7 2 -2
BITMAP
E4
4A
50
60
50
48
E6
ENDCHAR
STARTCHAR afii10077
ENCODING 1083
SWIDTH 1000 0
DWIDTH 13 0
BBX 7 7 1 -2
BITMAP
3E
14
14
14
24
A4
4E
ENDCHAR
STARTCHAR afii10078
ENCODING 1084
SWIDTH 1000 0
DWIDTH 13 0
BBX 9 7 1 -2
BITMAP
C180
6300
6300
5500
5500
4900
EB80
ENDCHAR
STARTCHAR afii10079
ENCODING 1085
SWIDTH 1000 0
DWIDTH 13 0
BBX 7 7 2 -2
BITMAP
EE
44
44
7C
44
44
EE
ENDCHAR
STARTCHAR afii10080
ENCODING 1086
SWIDTH 1000 0
DWIDTH 13 0
BBX 7 7 2 -2
BITMAP
38
44
82
82
82
44
38
ENDCHAR
STARTCHAR afii10081
ENCODING 1087
SWIDTH 1000 0
DWIDTH 13 0
BBX 7 7 2 -2
BITMAP
FE
44
44
44
44
44
EE
ENDCHAR
STARTCHAR afii10082
ENCODING 1088
SWIDTH 1000 0
DWIDTH 13 0
BBX 7 8 2 -3
BITMAP
D8
64
42
42
64
58
40
E0
ENDCHAR
STARTCHAR afii10083
ENCODING 1089
SWIDTH 1000 0
DWIDTH 13 0
BBX 6 7 2 -2
BITMAP
38
44
80
80
80
44
38
ENDCHAR
STARTCHAR afii10084
ENCODING 1090
SWIDTH 1000 0
DWIDTH 13 0
BBX 7 7 2 -2
BITMAP
FE
92
10
10
10
10
38
ENDCHAR
STARTCHAR afii10085
ENCODING 1091
SWIDTH 1000 0
DWIDTH 13 0
BBX 8 9 2 -3
BITMAP
E7
42
22
14
0C
08
10
90
60
ENDCHAR
STARTCHAR afii10086
ENCODING 1092
SWIDTH 1000 0
DWIDTH 13 0
BBX 9 11 1 -3
BITMAP
1C00
0800
2A00
5D00
8880
8880
8880
5D00
2A00
0800
1C00
ENDCHAR
STARTCHAR afii10087
ENCODING 1093
SWIDTH 1000 0
DWIDTH 13 0
BBX 7 7 2 -2
BITMAP
EE
44
28
10
28
44
EE
ENDCHAR
STARTCHAR afii10088
ENCODING 1094
SWIDTH 1000 0
DWIDTH 13 0
BBX 7 8 2 -3
BITMAP
EE
44
44
44
44
44
FE
02
ENDCHAR
STARTCHAR afii10089
ENCODING 1095
SWIDTH 1000 0
DWIDTH 13 0
BBX 7 7 2 -2
BITMAP
EE
44
44
3C
04
04
0E
ENDCHAR
STARTCHAR afii10090
ENCODING 1096
SWIDTH 1000 0
DWIDTH 13 0
BBX 7 7 2 -2
BITMAP
92
92
92
92
92
92
FE
ENDCHAR
STARTCHAR afii10091
ENCODING 1097
SWIDTH 1000 0
DWIDTH 13 0
BBX 9 8 1 -3
BITMAP
9200
9200
9200
9200
9200
9200
FF80
0080
ENDCHAR
STARTCHAR afii10092
ENCODING 1098
SWIDTH 1000 0
DWIDTH 13 0
BBX 7 7 1 -2
BITMAP
60
A0
3C
22
22
22
7C
ENDCHAR
STARTCHAR afii10093
ENCODING 1099
SWIDTH 1000 0
DWIDTH 13 0
BBX 8 7 1 -2
BITMAP
E7
42
42
72
4A
4A
F7
ENDCHAR
STARTCHAR afii10094
ENCODING 1100
SWIDTH 1000 0
DWIDTH 13 0
BBX 6 7 2 -2
BITMAP
E0
40
78
44
44
44
F8
ENDCHAR
STARTCHAR afii10095
ENCODING 1101
SWIDTH 1000 0
DWIDTH 13 0
BBX 6 7 2 -2
BITMAP
78
84
2C
54
04
84
78
ENDCHAR
STARTCHAR afii10096
ENCODING 1102
SWIDTH 1000 0
DWIDTH 13 0
BBX 9 7 1 -2
BITMAP
E600
4900
5080
7080
5080
4900
E600
ENDCHAR
STARTCHAR afii10097
ENCODING 1103
SWIDTH 1000 0
DWIDTH 13 0
BBX 7 7 2 -2
BITMAP
3E
44
44
3C
24
44
EE
ENDCHAR
STARTCHAR afii10071
ENCODING 1105
SWIDTH 1000 0
DWIDTH 13 0
BBX 6 9 2 -2
BITMAP
48
00
30
48
84
FC
80
44
38
ENDCHAR
STARTCHAR endash
ENCODING 8211
SWIDTH 1000 0
DWIDTH 13 0
BBX 11 1 1 3
BITMAP
FFE0
ENDCHAR
STARTCHAR emdash
ENCODING 8212
SWIDTH 1000 0
DWIDTH 13 0
BBX 11 1 1 3
BITMAP
FFE0
ENDCHAR
STARTCHAR U_2016
ENCODING 8214
SWIDTH 1000 0
DWIDTH 13 0
BBX 4 12 4 -2
BITMAP
90
90
90
90
90
90
90
90
90
90
90
90
ENDCHAR
STARTCHAR quoteleft
ENCODING 8216
SWIDTH 1000 0
DWIDTH 13 0
BBX 2 4 8 6
BITMAP
40
80
C0
C0
ENDCHAR
STARTCHAR quoteright
ENCODING 8217
SWIDTH 1000 0
DWIDTH 13 0
BBX 2 4 2 6
BITMAP
C0
C0
40
80
ENDCHAR
STARTCHAR quotedblleft
ENCODING 8220
SWIDTH 1000 0
DWIDTH 13 0
BBX 5 4 7 6
BITMAP
48
90
D8
D8
ENDCHAR
STARTCHAR quotedblright
ENCODING 8221
SWIDTH 1000 0
DWIDTH 13 0
BBX 5 4 1 6
BITMAP
D8
D8
48
90
ENDCHAR
STARTCHAR bullet
ENCODING 8226
SWIDTH 1000 0
DWIDTH 13 0
BBX 2 2 5 3
BITMAP
C0
C0
ENDCHAR
STARTCHAR twodotenleader
ENCODING 8229
SWIDTH 1000 0
DWIDTH 13 0
BBX 9 1 2 3
BITMAP
C180
ENDCHAR
STARTCHAR ellipsis
ENCODING 8230
SWIDTH 1000 0
DWIDTH 13 0
BBX 11 1 1 3
BITMAP
C660
ENDCHAR
STARTCHAR U_2027
ENCODING 8231
SWIDTH 1000 0
DWIDTH 13 0
BBX 2 2 5 3
BITMAP
C0
C0
ENDCHAR
STARTCHAR perthousand
ENCODING 8240
SWIDTH 1000 0
DWIDTH 13 0
BBX 12 12 0 -1
BITMAP
4000
A000
A100
A200
A400
AA20
4D50
1550
2550
4550
8550
0220
ENDCHAR
STARTCHAR minute
ENCODING 8242
SWIDTH 1000 0
DWIDTH 13 0
BBX 2 2 2 7
BITMAP
40
80
ENDCHAR
STARTCHAR second
ENCODING 8243
SWIDTH 1000 0
DWIDTH 13 0
BBX 4 3 1 7
BITMAP
40
50
A0
ENDCHAR
STARTCHAR U_2035
ENCODING 8245
SWIDTH 1000 0
DWIDTH 13 0
BBX 2 2 9 7
BITMAP
80
40
ENDCHAR
STARTCHAR U_203B
ENCODING 8251
SWIDTH 1000 0
DWIDTH 13 0
BBX 11 11 1 -2
BITMAP
8C40
4C80
2100
1200
CCC0
C4C0
0A00
1100
2080
4C40
8C20
ENDCHAR
STARTCHAR U_203E
ENCODING 8254
SWIDTH 1000 0
DWIDTH 13 0
BBX 13 1 0 9
BITMAP
FFF8
ENDCHAR
STARTCHAR Euro
ENCODING 8364
SWIDTH 1000 0
DWIDTH 13 0
BBX 7 10 3 -1
BITMAP
1C
22
40
40
F8
40
F8
40
22
1C
ENDCHAR
STARTCHAR U_2103
ENCODING 8451
SWIDTH 1000 0
DWIDTH 14 0
BBX 13 13 0 -1
BITMAP
6000
9190
9250
6430
0810
0810
0800
0800
0800
0800
0410
0220
01C0
ENDCHAR
STARTCHAR afii61248
ENCODING 8453
SWIDTH 1000 0
DWIDTH 13 0
BBX 12 12 0 -1
BITMAP
3010
4820
8040
8080
8100
4AC0
3520
0A10
1210
2210
4120
80C0
ENDCHAR
STARTCHAR U_2109
ENCODING 8457
SWIDTH 1000 0
DWIDTH 13 0
BBX 11 11 1 -1
BITMAP
4000
AFE0
4420
0400
0480
0780
0480
0400
0400
0400
0E00
ENDCHAR
STARTCHAR afii61352
ENCODING 8470
SWIDTH 1000 0
DWIDTH 13 0
BBX 12 10 0 -1
BITMAP
CE00
6400
6400
54E0
5510
4D10
4D10
44E0
4400
E5F0
ENDCHAR
STARTCHAR U_2154
ENCODING 8532
SWIDTH 1000 0
DWIDTH 14 0
BBX 13 13 0 -1
BITMAP
7020
8840
0840
3080
4100
8100
F270
0488
0408
0830
1008
1088
2070
ENDCHAR
STARTCHAR U_2160
ENCODING 8544
SWIDTH 1000 0
DWIDTH 13 0
BBX 3 11 5 -1
BITMAP
E0
40
40
40
40
40
40
40
40
40
E0
ENDCHAR
STARTCHAR U_2161
ENCODING 8545
SWIDTH 1000 0
DWIDTH 13 0
BBX 8 11 2 -1
BITMAP
E7
42
42
42
42
42
42
42
42
42
E7
ENDCHAR
STARTCHAR U_2162
ENCODING 8546
SWIDTH 1000 0
DWIDTH 13 0
BBX 11 11 1 -1
BITMAP
EEE0
4440
4440
4440
4440
4440
4440
4440
4440
4440
EEE0
ENDCHAR
STARTCHAR U_2163
ENCODING 8547
SWIDTH 1000 0
DWIDTH 13 0
BBX 11 11 1 -1
BITMAP
EEE0
4440
4440
4440
4280
4280
4280
4280
4100
4100
E100
ENDCHAR
STARTCHAR U_2164
ENCODING 8548
SWIDTH 1000 0
DWIDTH 13 0
BBX 9 11 2 -1
BITMAP
E380
4100
4100
2200
2200
2200
1400
1400
0800
0800
0800
ENDCHAR
STARTCHAR U_2165
ENCODING 8549
SWIDTH 1000 0
DWIDTH 13 0
BBX 11 11 1 -1
BITMAP
EEE0
4440
4440
4440
2840
2840
2840
2840
1040
1040
10E0
ENDCHAR
STARTCHAR U_2166
ENCODING 8550
SWIDTH 1000 0
DWIDTH 13 0
BBX 12 11 0 -1
BITMAP
EFF0
4520
4520
4520
2920
2920
2920
2920
1120
1120
13F0
ENDCHAR
STARTCHAR U_2167
ENCODING 8551
SWIDTH 1000 0
DWIDTH 13 0
BBX 12 11 0 -1
BITMAP
8BF0
8AA0
8AA0
8AA0
52A0
52A0
52A0
22A0
22A0
22A0
23F0
ENDCHAR
STARTCHAR U_2168
ENCODING 8552
SWIDTH 1000 0
DWIDTH 13 0
BBX 11 11 1 -1
BITMAP
EEE0
4440
4280
4280
4100
4100
4280
4280
4440
4440
EEE0
ENDCHAR
STARTCHAR U_2169
ENCODING 8553
SWIDTH 1000 0
DWIDTH 13 0
BBX 8 11 2 -1
BITMAP
E7
42
42
24
24
18
18
24
42
42
E7
ENDCHAR
STARTCHAR U_216A
ENCODING 8554
SWIDTH 1000 0
DWIDTH 13 0
BBX 11 11 1 -1
BITMAP
EEE0
4440
2840
2840
1040
1040
1040
2840
2840
4440
EEE0
ENDCHAR
STARTCHAR U_216B
ENCODING 8555
SWIDTH 1000 0
DWIDTH 13 0
BBX 12 11 0 -1
BITMAP
EFF0
44A0
44A0
28A0
28A0
10A0
10A0
28A0
28A0
44A0
E7F0
ENDCHAR
STARTCHAR U_2177
ENCODING 8567
SWIDTH 1000 0
DWIDTH 14 0
BBX 13 13 0 -1
BITMAP
0000
0000
0000
0000
0000
00A0
0000
82A0
44A0
44A0
28A0
28A0
10A0
ENDCHAR
STARTCHAR arrowleft
ENCODING 8592
SWIDTH 1000 0
DWIDTH 13 0
BBX 13 5 0 1
BITMAP
2000
4000
FFF8
4000
2000
ENDCHAR
STARTCHAR arrowup
ENCODING 8593
SWIDTH 1000 0
DWIDTH 13 0
BBX 5 13 4 -3
BITMAP
20
70
A8
20
20
20
20
20
20
20
20
20
20
ENDCHAR
STARTCHAR arrowright
ENCODING 8594
SWIDTH 1000 0
DWIDTH 13 0
BBX 13 5 0 1
BITMAP
0020
0010
FFF8
0010
0020
ENDCHAR
STARTCHAR arrowdown
ENCODING 8595
SWIDTH 1000 0
DWIDTH 13 0
BBX 5 13 4 -3
BITMAP
20
20
20
20
20
20
20
20
20
A8
70
20
20
ENDCHAR
STARTCHAR U_2196
ENCODING 8598
SWIDTH 1000 0
DWIDTH 13 0
BBX 12 12 0 -1
BITMAP
F000
C000
A000
9000
0800
0400
0200
0100
0080
0040
0020
0010
ENDCHAR
STARTCHAR U_2197
ENCODING 8599
SWIDTH 1000 0
DWIDTH 13 0
BBX 13 13 0 -3
BITMAP
0078
0018
0028
0048
0080
0100
0200
0400
0800
1000
2000
4000
8000
ENDCHAR
STARTCHAR U_2198
ENCODING 8600
SWIDTH 1000 0
DWIDTH 13 0
BBX 12 12 0 -1
BITMAP
8000
4000
2000
1000
0800
0400
0200
0100
0090
0050
0030
00F0
ENDCHAR
STARTCHAR U_2199
ENCODING 8601
SWIDTH 1000 0
DWIDTH 13 0
BBX 13 13 0 -3
BITMAP
0008
0010
0020
0040
0080
0100
0200
0400
0800
9000
A000
C000
F000
ENDCHAR
STARTCHAR element
ENCODING 8712
SWIDTH 1000 0
DWIDTH 13 0
BBX 6 10 3 -1
BITMAP
1C
20
40
80
FC
80
80
40
20
1C
ENDCHAR
STARTCHAR product
ENCODING 8719
SWIDTH 1000 0
DWIDTH 13 0
BBX 9 10 2 -1
BITMAP
FF80
4100
4100
4100
4100
4100
4100
4100
4100
E380
ENDCHAR
STARTCHAR summation
ENCODING 8721
SWIDTH 1000 0
DWIDTH 13 0
BBX 9 9 2 0
BITMAP
FF80
4180
3080
0800
0400
0800
3080
4180
FF80
ENDCHAR
STARTCHAR U_2215
ENCODING 8725
SWIDTH 1000 0
DWIDTH 13 0
BBX 7 12 3 -2
BITMAP
02
04
04
08
08
10
10
20
20
40
40
80
ENDCHAR
STARTCHAR radical
ENCODING 8730
SWIDTH 1000 0
DWIDTH 13 0
BBX 13 11 0 -1
BITMAP
01F8
0200
0200
0200
0400
0400
0400
0800
4800
A800
1000
ENDCHAR
STARTCHAR proportional
ENCODING 8733
SWIDTH 1000 0
DWIDTH 13 0
BBX 11 6 1 1
BITMAP
7860
8580
8200
8200
8580
7860
ENDCHAR
STARTCHAR infinity
ENCODING 8734
SWIDTH 1000 0
DWIDTH 13 0
BBX 11 6 1 1
BITMAP
71C0
8A20
8420
8420
8A20
71C0
ENDCHAR
STARTCHAR orthogonal
ENCODING 8735
SWIDTH 1000 0
DWIDTH 13 0
BBX 9 9 2 0
BITMAP
8000
8000
8000
8000
8000
8000
8000
8000
FF80
ENDCHAR
STARTCHAR angle
ENCODING 8736
SWIDTH 1000 0
DWIDTH 13 0
BBX 10 9 2 0
BITMAP
0080
0100
0200
0400
0800
1000
2000
4000
FFC0
ENDCHAR
STARTCHAR U_2223
ENCODING 8739
SWIDTH 1000 0
DWIDTH 13 0
BBX 1 13 6 -3
BITMAP
80
80
80
80
80
80
80
80
80
80
80
80
80
ENDCHAR
STARTCHAR U_2225
ENCODING 8741
SWIDTH 1000 0
DWIDTH 13 0
BBX 4 13 5 -3
BITMAP
90
90
90
90
90
90
90
90
90
90
90
90
90
ENDCHAR
STARTCHAR logicaland
ENCODING 8743
SWIDTH 1000 0
DWIDTH 13 0
BBX 9 9 2 0
BITMAP
0800
1400
1400
2200
2200
4100
4100
8080
8080
ENDCHAR
STARTCHAR logicalor
ENCODING 8744
SWIDTH 1000 0
DWIDTH 13 0
BBX 9 9 2 0
BITMAP
8080
8080
4100
4100
2200
2200
1400
1400
0800
ENDCHAR
STARTCHAR intersection
ENCODING 8745
SWIDTH 1000 0
DWIDTH 13 0
BBX 7 10 3 -1
BITMAP
38
44
82
82
82
82
82
82
82
82
ENDCHAR
STARTCHAR U_on
ENCODING 8746
SWIDTH 1000 0
DWIDTH 13 0
BBX 7 10 3 -1
BITMAP
82
82
82
82
82
82
82
82
44
38
ENDCHAR
STARTCHAR integral
ENCODING 8747
SWIDTH 1000 0
DWIDTH 13 0
BBX 3 12 5 -2
BITMAP
40
A0
80
80
80
40
40
20
20
20
A0
40
ENDCHAR
STARTCHAR U_222E
ENCODING 8750
SWIDTH 1000 0
DWIDTH 13 0
BBX 6 12 3 -2
BITMAP
10
28
20
70
A8
A4
94
54
38
10
50
20
ENDCHAR
STARTCHAR therefore
ENCODING 8756
SWIDTH 1000 0
DWIDTH 13 0
BBX 10 9 2 -1
BITMAP
0C00
0C00
0000
0000
0000
0000
0000
C0C0
C0C0
ENDCHAR
STARTCHAR U_2235
ENCODING 8757
SWIDTH 1000 0
DWIDTH 13 0
BBX 10 9 2 -1
BITMAP
C0C0
C0C0
0000
0000
0000
0000
0000
0C00
0C00
ENDCHAR
STARTCHAR U_2236
ENCODING 8758
SWIDTH 1000 0
DWIDTH 13 0
BBX 1 8 6 0
BITMAP
80
00
00
00
00
00
00
80
ENDCHAR
STARTCHAR U_2237
ENCODING 8759
SWIDTH 1000 0
DWIDTH 13 0
BBX 7 8 3 0
BITMAP
82
00
00
00
00
00
00
82
ENDCHAR
STARTCHAR similar
ENCODING 8764
SWIDTH 1000 0
DWIDTH 13 0
BBX 11 3 1 2
BITMAP
7800
8620
01C0
ENDCHAR
STARTCHAR U_223D
ENCODING 8765
SWIDTH 1000 0
DWIDTH 13 0
BBX 12 6 0 1
BITMAP
20C0
4120
8210
8410
4820
3040
ENDCHAR
STARTCHAR approxequal
ENCODING 8776
SWIDTH 1000 0
DWIDTH 13 0
BBX 12 8 0 0
BITMAP
3C10
4220
81C0
0000
0000
3C10
4220
81C0
ENDCHAR
STARTCHAR U_224C
ENCODING 8780
SWIDTH 1000 0
DWIDTH 13 0
BBX 10 10 2 -1
BITMAP
4380
8440
8840
7080
0000
0000
FF80
0000
0000
FF80
ENDCHAR
STARTCHAR U_2252
ENCODING 8786
SWIDTH 1000 0
DWIDTH 13 0
BBX 9 10 2 -1
BITMAP
3000
3000
0000
FF80
0000
0000
FF80
0000
0600
0600
ENDCHAR
STARTCHAR notequal
ENCODING 8800
SWIDTH 1000 0
DWIDTH 13 0
BBX 9 8 2 0
BITMAP
0400
0400
FF80
0800
0800
FF80
1000
1000
ENDCHAR
STARTCHAR equivalence
ENCODING 8801
SWIDTH 1000 0
DWIDTH 13 0
BBX 9 7 2 0
BITMAP
FF80
0000
0000
FF80
0000
0000
FF80
ENDCHAR
STARTCHAR lessequal
ENCODING 8804
SWIDTH 1000 0
DWIDTH 13 0
BBX 8 10 2 -1
BITMAP
03
0C
30
C0
30
0C
C3
30
0C
03
ENDCHAR
STARTCHAR greaterequal
ENCODING 8805
SWIDTH 1000 0
DWIDTH 13 0
BBX 8 10 3 -1
BITMAP
C0
30
0C
03
0C
30
C3
0C
30
C0
ENDCHAR
STARTCHAR U_2266
ENCODING 8806
SWIDTH 1000 0
DWIDTH 13 0
BBX 9 11 2 -2
BITMAP
0180
0E00
3000
C000
3000
0E00
0180
0000
FF80
0000
FF80
ENDCHAR
STARTCHAR U_2267
ENCODING 8807
SWIDTH 1000 0
DWIDTH 13 0
BBX 9 11 2 -2
BITMAP
C000
3800
0600
0180
0600
3800
C000
0000
FF80
0000
FF80
ENDCHAR
STARTCHAR U_226E
ENCODING 8814
SWIDTH 1000 0
DWIDTH 13 0
BBX 9 9 2 -1
BITMAP
0980
0E00
1800
6800
8800
6800
1800
0E00
0980
ENDCHAR
STARTCHAR U_226F
ENCODING 8815
SWIDTH 1000 0
DWIDTH 13 0
BBX 9 9 2 -1
BITMAP
C800
3800
0C00
0B00
0880
0B00
0C00
3800
C800
ENDCHAR
STARTCHAR circleplus
ENCODING 8853
SWIDTH 1000 0
DWIDTH 13 0
BBX 9 11 2 -2
BITMAP
1C00
2A00
4900
8880
8880
FF80
8880
8880
4900
2A00
1C00
ENDCHAR
STARTCHAR U_2299
ENCODING 8857
SWIDTH 1000 0
DWIDTH 13 0
BBX 9 11 2 -2
BITMAP
1C00
2200
4100
8080
8880
8880
8080
8080
4100
2200
1C00
ENDCHAR
STARTCHAR perpendicular
ENCODING 8869
SWIDTH 1000 0
DWIDTH 13 0
BBX 10 9 2 0
BITMAP
0800
0800
0800
0800
0800
0800
0800
0800
FFC0
ENDCHAR
STARTCHAR U_22BF
ENCODING 8895
SWIDTH 1000 0
DWIDTH 13 0
BBX 9 9 2 0
BITMAP
0080
0180
0280
0480
0880
1080
2080
4080
FF80
ENDCHAR
STARTCHAR U_2312
ENCODING 8978
SWIDTH 1000 0
DWIDTH 13 0
BBX 11 5 1 2
BITMAP
0E00
3180
4040
8020
8020
ENDCHAR
STARTCHAR U_2460
ENCODING 9312
SWIDTH 1000 0
DWIDTH 13 0
BBX 12 12 0 -1
BITMAP
1F80
2040
4220
8610
8210
8210
8210
8210
8210
4220
2040
1F80
ENDCHAR
STARTCHAR U_2461
ENCODING 9313
SWIDTH 1000 0
DWIDTH 13 0
BBX 12 12 0 -1
BITMAP
1F80
2040
4620
8910
8110
8110
8610
8810
8810
4F20
2040
1F80
ENDCHAR
STARTCHAR U_2462
ENCODING 9314
SWIDTH 1000 0
DWIDTH 13 0
BBX 12 12 0 -1
BITMAP
1F80
2040
4E20
8110
8110
8610
8110
8110
8110
4E20
2040
1F80
ENDCHAR
STARTCHAR U_2463
ENCODING 9315
SWIDTH 1000 0
DWIDTH 13 0
BBX 12 12 0 -1
BITMAP
1F80
2040
4E20
9210
9210
9210
9210
9F10
8210
4220
2040
1F80
ENDCHAR
STARTCHAR U_2464
ENCODING 9316
SWIDTH 1000 0
DWIDTH 13 0
BBX 12 12 0 -1
BITMAP
1F80
2040
4F20
8810
8810
8F10
8090
8090
8890
4720
2040
1F80
ENDCHAR
STARTCHAR U_2465
ENCODING 9317
SWIDTH 1000 0
DWIDTH 13 0
BBX 12 12 0 -1
BITMAP
1F80
2040
4720
8810
8810
8F10
8890
8890
8890
4720
2040
1F80
ENDCHAR
STARTCHAR U_2466
ENCODING 9318
SWIDTH 1000 0
DWIDTH 13 0
BBX 12 12 0 -1
BITMAP
1F80
2040
4F20
8910
8110
8610
8410
8410
8410
4420
2040
1F80
ENDCHAR
STARTCHAR U_2467
ENCODING 9319
SWIDTH 1000 0
DWIDTH 13 0
BBX 12 12 0 -1
BITMAP
1F80
2040
4620
8910
8910
8610
8510
8890
8890
4720
2040
1F80
ENDCHAR
STARTCHAR U_2468
ENCODING 9320
SWIDTH 1000 0
DWIDTH 13 0
BBX 12 12 0 -1
BITMAP
1F80
2040
4720
8890
8890
8890
8790
8090
8090
4720
2040
1F80
ENDCHAR
STARTCHAR U_2469
ENCODING 9321
SWIDTH 1000 0
DWIDTH 13 0
BBX 12 12 0 -1
BITMAP
1F80
2040
4920
9A90
8A90
8A90
8A90
8A90
8A90
4920
2040
1F80
ENDCHAR
STARTCHAR U_2474
ENCODING 9332
SWIDTH 1000 0
DWIDTH 13 0
BBX 12 11 0 -2
BITMAP
4220
4620
8210
8210
8210
8210
8210
8210
8210
4220
4020
ENDCHAR
STARTCHAR U_2475
ENCODING 9333
SWIDTH 1000 0
DWIDTH 13 0
BBX 12 12 0 -1
BITMAP
0020
4720
4890
8890
8090
8710
8810
8810
8810
8810
4FA0
4020
ENDCHAR
STARTCHAR U_2476
ENCODING 9334
SWIDTH 1000 0
DWIDTH 13 0
BBX 12 12 0 -1
BITMAP
0020
4F20
4090
8090
8090
8710
8090
8090
8090
8090
4F20
4020
ENDCHAR
STARTCHAR U_2477
ENCODING 9335
SWIDTH 1000 0
DWIDTH 13 0
BBX 12 11 0 -2
BITMAP
4020
4F20
9110
9110
9110
9110
9110
9F90
4110
4120
0020
ENDCHAR
STARTCHAR U_2478
ENCODING 9336
SWIDTH 1000 0
DWIDTH 13 0
BBX 12 10 0 -1
BITMAP
4F20
4820
8810
8810
8F10
8090
8090
8090
48A0
4720
ENDCHAR
STARTCHAR U_2479
ENCODING 9337
SWIDTH 1000 0
DWIDTH 13 0
BBX 12 10 0 -1
BITMAP
4720
4820
8810
8810
8F10
8890
8890
8890
48A0
4720
ENDCHAR
STARTCHAR U_247A
ENCODING 9338
SWIDTH 1000 0
DWIDTH 13 0
BBX 12 10 0 -1
BITMAP
4FA0
40A0
8090
8110
8210
8210
8210
8210
4220
4220
ENDCHAR
STARTCHAR U_247B
ENCODING 9339
SWIDTH 1000 0
DWIDTH 13 0
BBX 12 10 0 -1
BITMAP
4720
48A0
8890
8890
8710
8510
8890
8890
48A0
4720
ENDCHAR
STARTCHAR U_247C
ENCODING 9340
SWIDTH 1000 0
DWIDTH 13 0
BBX 12 10 0 -1
BITMAP
4F20
50A0
9090
9090
9090
8F90
8090
8090
40A0
4F20
ENDCHAR
STARTCHAR U_247D
ENCODING 9341
SWIDTH 1000 0
DWIDTH 13 0
BBX 12 10 0 -1
BITMAP
4920
5AA0
8A90
8A90
8A90
8A90
8A90
8A90
4AA0
4920
ENDCHAR
STARTCHAR U_247E
ENCODING 9342
SWIDTH 1000 0
DWIDTH 13 0
BBX 12 10 0 -1
BITMAP
4920
5B20
8910
8910
8910
8910
8910
8910
4920
4920
ENDCHAR
STARTCHAR U_247F
ENCODING 9343
SWIDTH 1000 0
DWIDTH 13 0
BBX 12 10 0 -1
BITMAP
49A0
5AA0
8A90
8890
8890
8910
8910
8A10
4A20
4BA0
ENDCHAR
STARTCHAR U_2480
ENCODING 9344
SWIDTH 1000 0
DWIDTH 13 0
BBX 12 10 0 -1
BITMAP
4B20
58A0
8890
8890
8910
8890
8890
8890
48A0
4B20
ENDCHAR
STARTCHAR U_2481
ENCODING 9345
SWIDTH 1000 0
DWIDTH 13 0
BBX 12 10 0 -1
BITMAP
48A0
59A0
8A90
8A90
8A90
8A90
8A90
8BD0
48A0
48A0
ENDCHAR
STARTCHAR U_2482
ENCODING 9346
SWIDTH 1000 0
DWIDTH 13 0
BBX 12 10 0 -1
BITMAP
4BA0
5A20
8A10
8A10
8B90
8890
8890
8890
48A0
4B20
ENDCHAR
STARTCHAR U_2483
ENCODING 9347
SWIDTH 1000 0
DWIDTH 13 0
BBX 12 10 0 -1
BITMAP
49A0
5A20
8A10
8A10
8B90
8A90
8A90
8A90
4AA0
4920
ENDCHAR
STARTCHAR U_2484
ENCODING 9348
SWIDTH 1000 0
DWIDTH 13 0
BBX 12 10 0 -1
BITMAP
4BA0
58A0
8890
8890
8910
8910
8910
8910
4920
4920
ENDCHAR
STARTCHAR U_2485
ENCODING 9349
SWIDTH 1000 0
DWIDTH 13 0
BBX 12 10 0 -1
BITMAP
4920
9AA0
8A90
8A90
8910
8910
8A90
8A90
8AA0
5D20
ENDCHAR
STARTCHAR U_2486
ENCODING 9350
SWIDTH 1000 0
DWIDTH 13 0
BBX 12 10 0 -1
BITMAP
4920
5AA0
8A90
8A90
8A90
8990
8890
8890
4AA0
5D20
ENDCHAR
STARTCHAR U_2487
ENCODING 9351
SWIDTH 1000 0
DWIDTH 13 0
BBX 12 10 0 -1
BITMAP
5920
66A0
8690
8690
8A90
8A90
9290
9290
52A0
5D20
ENDCHAR
STARTCHAR U_2488
ENCODING 9352
SWIDTH 1000 0
DWIDTH 13 0
BBX 7 11 5 -2
BITMAP
40
C0
40
40
40
40
40
40
40
46
06
ENDCHAR
STARTCHAR U_2489
ENCODING 9353
SWIDTH 1000 0
DWIDTH 13 0
BBX 8 11 4 -2
BITMAP
70
88
88
08
70
80
80
80
80
FB
03
ENDCHAR
STARTCHAR U_248A
ENCODING 9354
SWIDTH 1000 0
DWIDTH 13 0
BBX 8 11 4 -2
BITMAP
F0
08
08
08
70
08
08
08
08
F3
03
ENDCHAR
STARTCHAR U_248B
ENCODING 9355
SWIDTH 1000 0
DWIDTH 13 0
BBX 9 11 3 -2
BITMAP
7800
8800
8800
8800
8800
8800
8800
FC00
0800
0980
0180
ENDCHAR
STARTCHAR U_248C
ENCODING 9356
SWIDTH 1000 0
DWIDTH 13 0
BBX 8 11 4 -2
BITMAP
F8
80
80
80
F0
08
08
08
08
F3
03
ENDCHAR
STARTCHAR U_248D
ENCODING 9357
SWIDTH 1000 0
DWIDTH 13 0
BBX 8 11 4 -2
BITMAP
78
80
80
80
F0
88
88
88
88
73
03
ENDCHAR
STARTCHAR U_248E
ENCODING 9358
SWIDTH 1000 0
DWIDTH 13 0
BBX 8 11 4 -2
BITMAP
F8
88
08
10
20
20
20
20
20
23
03
ENDCHAR
STARTCHAR U_248F
ENCODING 9359
SWIDTH 1000 0
DWIDTH 13 0
BBX 9 11 3 -2
BITMAP
7000
8800
8800
8800
7000
5000
8800
8800
8800
7180
0180
ENDCHAR
STARTCHAR U_2490
ENCODING 9360
SWIDTH 1000 0
DWIDTH 13 0
BBX 9 11 3 -2
BITMAP
7800
8400
8400
8400
8400
7C00
0400
0400
0400
7980
0180
ENDCHAR
STARTCHAR U_2491
ENCODING 9361
SWIDTH 1000 0
DWIDTH 13 0
BBX 9 11 3 -2
BITMAP
4400
CA00
4A00
4A00
4A00
4A00
4A00
4A00
4A00
4580
0180
ENDCHAR
STARTCHAR U_2492
ENCODING 9362
SWIDTH 1000 0
DWIDTH 13 0
BBX 10 11 2 -2
BITMAP
4400
CC00
4400
4400
4400
4400
4400
4400
4400
44C0
00C0
ENDCHAR
STARTCHAR U_2493
ENCODING 9363
SWIDTH 1000 0
DWIDTH 13 0
BBX 10 11 2 -2
BITMAP
4400
CA00
4A00
4200
4200
4400
4800
4800
4800
4EC0
00C0
ENDCHAR
STARTCHAR U_2494
ENCODING 9364
SWIDTH 1000 0
DWIDTH 13 0
BBX 9 11 3 -2
BITMAP
5C00
C200
4200
4200
4C00
4200
4200
4200
4200
5D80
0180
ENDCHAR
STARTCHAR U_2495
ENCODING 9365
SWIDTH 1000 0
DWIDTH 13 0
BBX 11 11 1 -2
BITMAP
4E00
D200
5200
5200
5200
5200
5200
5F00
4200
4260
0060
ENDCHAR
STARTCHAR U_2496
ENCODING 9366
SWIDTH 1000 0
DWIDTH 13 0
BBX 11 11 1 -2
BITMAP
4F00
C800
4800
4800
4E00
4100
4100
4100
4100
4E60
0060
ENDCHAR
STARTCHAR U_2497
ENCODING 9367
SWIDTH 1000 0
DWIDTH 13 0
BBX 10 11 2 -2
BITMAP
4600
C800
4800
4800
4C00
4A00
4A00
4A00
4A00
44C0
00C0
ENDCHAR
STARTCHAR U_2498
ENCODING 9368
SWIDTH 1000 0
DWIDTH 13 0
BBX 9 11 3 -2
BITMAP
5E00
C200
4200
4400
4800
4800
4800
4800
4800
4980
0180
ENDCHAR
STARTCHAR U_2499
ENCODING 9369
SWIDTH 1000 0
DWIDTH 13 0
BBX 10 11 2 -2
BITMAP
4600
C900
4900
4900
4600
4900
4900
4900
4900
46C0
00C0
ENDCHAR
STARTCHAR U_249A
ENCODING 9370
SWIDTH 1000 0
DWIDTH 13 0
BBX 10 11 2 -2
BITMAP
4600
C900
4900
4900
4900
4700
4100
4100
4100
46C0
00C0
ENDCHAR
STARTCHAR U_249B
ENCODING 9371
SWIDTH 1000 0
DWIDTH 13 0
BBX 10 11 2 -2
BITMAP
6200
9500
9500
1500
1500
6500
8500
8500
8500
F2C0
00C0
ENDCHAR
STARTCHAR U_24EC
ENCODING 9452
SWIDTH 1000 0
DWIDTH 14 0
BBX 13 13 0 -1
BITMAP
0F80
3FE0
6C70
4BB0
EFD8
EFB8
EF78
EEF8
EDF8
6810
7FF0
3FE0
0F80
ENDCHAR
STARTCHAR U_24F0
ENCODING 9456
SWIDTH 1000 0
DWIDTH 14 0
BBX 13 13 0 -1
BITMAP
0700
1FC0
3660
65B0
75F0
F5F8
F478
F5B8
75B0
75B0
3660
1FC0
0700
ENDCHAR
STARTCHAR SF100000
ENCODING 9472
SWIDTH 1000 0
DWIDTH 13 0
BBX 13 1 0 3
BITMAP
FFF8
ENDCHAR
STARTCHAR U_2501
ENCODING 9473
SWIDTH 1000 0
DWIDTH 13 0
BBX 13 2 0 3
BITMAP
FFF8
FFF8
ENDCHAR
STARTCHAR SF110000
ENCODING 9474
SWIDTH 1000 0
DWIDTH 13 0
BBX 1 12 6 -2
BITMAP
80
80
80
80
80
80
80
80
80
80
80
80
ENDCHAR
STARTCHAR U_2503
ENCODING 9475
SWIDTH 1000 0
DWIDTH 13 0
BBX 2 12 5 -2
BITMAP
C0
C0
C0
C0
C0
C0
C0
C0
C0
C0
C0
C0
ENDCHAR
STARTCHAR U_2504
ENCODING 9476
SWIDTH 1000 0
DWIDTH 13 0
BBX 12 1 1 3
BITMAP
EE70
ENDCHAR
STARTCHAR U_2505
ENCODING 9477
SWIDTH 1000 0
DWIDTH 13 0
BBX 12 2 1 3
BITMAP
EE70
EE70
ENDCHAR
STARTCHAR U_2506
ENCODING 9478
SWIDTH 1000 0
DWIDTH 13 0
BBX 1 12 6 -2
BITMAP
80
80
80
00
00
80
80
80
00
80
80
80
ENDCHAR
STARTCHAR U_2507
ENCODING 9479
SWIDTH 1000 0
DWIDTH 13 0
BBX 2 12 5 -2
BITMAP
C0
C0
C0
00
00
C0
C0
C0
00
C0
C0
C0
ENDCHAR
STARTCHAR U_2508
ENCODING 9480
SWIDTH 1000 0
DWIDTH 13 0
BBX 11 1 1 3
BITMAP
DB60
ENDCHAR
STARTCHAR U_2509
ENCODING 9481
SWIDTH 1000 0
DWIDTH 13 0
BBX 11 2 1 3
BITMAP
DB60
DB60
ENDCHAR
STARTCHAR U_250A
ENCODING 9482
SWIDTH 1000 0
DWIDTH 13 0
BBX 1 11 6 -1
BITMAP
80
80
00
80
80
00
80
80
00
80
80
ENDCHAR
STARTCHAR U_250B
ENCODING 9483
SWIDTH 1000 0
DWIDTH 13 0
BBX 2 11 5 -1
BITMAP
C0
C0
00
C0
C0
00
C0
C0
00
C0
C0
ENDCHAR
STARTCHAR SF010000
ENCODING 9484
SWIDTH 1000 0
DWIDTH 13 0
BBX 7 6 6 -2
BITMAP
FE
80
80
80
80
80
ENDCHAR
STARTCHAR U_250D
ENCODING 9485
SWIDTH 1000 0
DWIDTH 13 0
BBX 7 7 6 -2
BITMAP
FE
FE
80
80
80
80
80
ENDCHAR
STARTCHAR U_250E
ENCODING 9486
SWIDTH 1000 0
DWIDTH 13 0
BBX 7 6 6 -2
BITMAP
FE
C0
C0
C0
C0
C0
ENDCHAR
STARTCHAR U_250F
ENCODING 9487
SWIDTH 1000 0
DWIDTH 13 0
BBX 8 7 5 -2
BITMAP
FF
FF
C0
C0
C0
C0
C0
ENDCHAR
STARTCHAR SF030000
ENCODING 9488
SWIDTH 1000 0
DWIDTH 13 0
BBX 7 7 0 -3
BITMAP
FE
02
02
02
02
02
02
ENDCHAR
STARTCHAR U_2511
ENCODING 9489
SWIDTH 1000 0
DWIDTH 13 0
BBX 7 8 0 -3
BITMAP
FE
FE
02
02
02
02
02
02
ENDCHAR
STARTCHAR U_2512
ENCODING 9490
SWIDTH 1000 0
DWIDTH 13 0
BBX 8 7 0 -3
BITMAP
FF
03
03
03
03
03
03
ENDCHAR
STARTCHAR U_2513
ENCODING 9491
SWIDTH 1000 0
DWIDTH 13 0
BBX 8 8 0 -3
BITMAP
FF
FF
03
03
03
03
03
03
ENDCHAR
STARTCHAR SF020000
ENCODING 9492
SWIDTH 1000 0
DWIDTH 13 0
BBX 7 7 6 3
BITMAP
80
80
80
80
80
80
FE
ENDCHAR
STARTCHAR U_2515
ENCODING 9493
SWIDTH 1000 0
DWIDTH 13 0
BBX 7 7 6 3
BITMAP
80
80
80
80
80
FE
FE
ENDCHAR
STARTCHAR U_2516
ENCODING 9494
SWIDTH 1000 0
DWIDTH 13 0
BBX 8 7 5 3
BITMAP
C0
C0
C0
C0
C0
C0
FF
ENDCHAR
STARTCHAR U_2517
ENCODING 9495
SWIDTH 1000 0
DWIDTH 13 0
BBX 8 8 5 2
BITMAP
C0
C0
C0
C0
C0
C0
FF
FF
ENDCHAR
STARTCHAR SF040000
ENCODING 9496
SWIDTH 1000 0
DWIDTH 13 0
BBX 7 7 0 3
BITMAP
02
02
02
02
02
02
FE
ENDCHAR
STARTCHAR U_2519
ENCODING 9497
SWIDTH 1000 0
DWIDTH 13 0
BBX 7 8 0 2
BITMAP
02
02
02
02
02
02
FE
FE
ENDCHAR
STARTCHAR U_251A
ENCODING 9498
SWIDTH 1000 0
DWIDTH 13 0
BBX 8 7 0 3
BITMAP
03
03
03
03
03
03
FF
ENDCHAR
STARTCHAR U_251B
ENCODING 9499
SWIDTH 1000 0
DWIDTH 13 0
BBX 8 8 0 2
BITMAP
03
03
03
03
03
03
FF
FF
ENDCHAR
STARTCHAR SF080000
ENCODING 9500
SWIDTH 1000 0
DWIDTH 13 0
BBX 7 12 6 -2
BITMAP
80
80
80
80
80
80
FE
80
80
80
80
80
ENDCHAR
STARTCHAR U_251D
ENCODING 9501
SWIDTH 1000 0
DWIDTH 13 0
BBX 7 12 6 -2
BITMAP
80
80
80
80
80
FE
FE
80
80
80
80
80
ENDCHAR
STARTCHAR U_251E
ENCODING 9502
SWIDTH 1000 0
DWIDTH 13 0
BBX 7 13 6 -3
BITMAP
C0
C0
C0
C0
C0
C0
FE
80
80
80
80
80
80
ENDCHAR
STARTCHAR U_251F
ENCODING 9503
SWIDTH 1000 0
DWIDTH 13 0
BBX 7 12 6 -2
BITMAP
80
80
80
80
80
80
FE
C0
C0
C0
C0
C0
ENDCHAR
STARTCHAR U_2520
ENCODING 9504
SWIDTH 1000 0
DWIDTH 13 0
BBX 8 12 5 -2
BITMAP
C0
C0
C0
C0
C0
C0
FF
C0
C0
C0
C0
C0
ENDCHAR
STARTCHAR U_2521
ENCODING 9505
SWIDTH 1000 0
DWIDTH 13 0
BBX 7 13 6 -3
BITMAP
C0
C0
C0
C0
C0
FE
FE
80
80
80
80
80
80
ENDCHAR
STARTCHAR U_2522
ENCODING 9506
SWIDTH 1000 0
DWIDTH 13 0
BBX 7 12 6 -2
BITMAP
80
80
80
80
80
FE
FE
80
80
80
80
80
ENDCHAR
STARTCHAR U_2523
ENCODING 9507
SWIDTH 1000 0
DWIDTH 13 0
BBX 7 12 6 -2
BITMAP
C0
C0
C0
C0
C0
FE
FE
C0
C0
C0
C0
C0
ENDCHAR
STARTCHAR SF090000
ENCODING 9508
SWIDTH 1000 0
DWIDTH 13 0
BBX 7 12 0 -2
BITMAP
02
02
02
02
02
02
FE
02
02
02
02
02
ENDCHAR
STARTCHAR U_2525
ENCODING 9509
SWIDTH 1000 0
DWIDTH 13 0
BBX 7 12 0 -2
BITMAP
02
02
02
02
02
FE
FE
02
02
02
02
02
ENDCHAR
STARTCHAR U_2526
ENCODING 9510
SWIDTH 1000 0
DWIDTH 13 0
BBX 7 12 0 -2
BITMAP
06
06
06
06
06
06
FE
02
02
02
02
02
ENDCHAR
STARTCHAR U_2527
ENCODING 9511
SWIDTH 1000 0
DWIDTH 13 0
BBX 7 12 0 -2
BITMAP
02
02
02
02
02
02
FE
06
06
06
06
06
ENDCHAR
STARTCHAR U_2528
ENCODING 9512
SWIDTH 1000 0
DWIDTH 13 0
BBX 8 12 0 -2
BITMAP
03
03
03
03
03
03
FF
03
03
03
03
03
ENDCHAR
STARTCHAR U_2529
ENCODING 9513
SWIDTH 1000 0
DWIDTH 13 0
BBX 7 12 0 -2
BITMAP
06
06
06
06
06
06
FE
02
02
02
02
02
ENDCHAR
STARTCHAR U_252A
ENCODING 9514
SWIDTH 1000 0
DWIDTH 13 0
BBX 7 12 0 -2
BITMAP
02
02
02
02
02
FE
FE
06
06
06
06
06
ENDCHAR
STARTCHAR U_252B
ENCODING 9515
SWIDTH 1000 0
DWIDTH 13 0
BBX 7 12 0 -2
BITMAP
06
06
06
06
06
FE
FE
06
06
06
06
06
ENDCHAR
STARTCHAR SF060000
ENCODING 9516
SWIDTH 1000 0
DWIDTH 13 0
BBX 13 6 0 -2
BITMAP
FFF8
0200
0200
0200
0200
0200
ENDCHAR
STARTCHAR U_252D
ENCODING 9517
SWIDTH 1000 0
DWIDTH 13 0
BBX 13 6 0 -2
BITMAP
FFF8
FE00
0200
0200
0200
0200
ENDCHAR
STARTCHAR U_252E
ENCODING 9518
SWIDTH 1000 0
DWIDTH 13 0
BBX 13 6 0 -2
BITMAP
FFF8
03F8
0200
0200
0200
0200
ENDCHAR
STARTCHAR U_252F
ENCODING 9519
SWIDTH 1000 0
DWIDTH 13 0
BBX 13 6 0 -2
BITMAP
FFF8
FFF8
0200
0200
0200
0200
ENDCHAR
STARTCHAR U_2530
ENCODING 9520
SWIDTH 1000 0
DWIDTH 13 0
BBX 13 6 0 -2
BITMAP
FFF8
0300
0300
0300
0300
0300
ENDCHAR
STARTCHAR U_2531
ENCODING 9521
SWIDTH 1000 0
DWIDTH 13 0
BBX 13 6 0 -2
BITMAP
FFF8
FE00
0600
0600
0600
0600
ENDCHAR
STARTCHAR U_2532
ENCODING 9522
SWIDTH 1000 0
DWIDTH 13 0
BBX 13 6 0 -2
BITMAP
FFF8
03F8
0300
0300
0300
0300
ENDCHAR
STARTCHAR U_2533
ENCODING 9523
SWIDTH 1000 0
DWIDTH 13 0
BBX 13 6 0 -2
BITMAP
FFF8
FFF8
0300
0300
0300
0300
ENDCHAR
STARTCHAR SF070000
ENCODING 9524
SWIDTH 1000 0
DWIDTH 13 0
BBX 13 7 0 3
BITMAP
0200
0200
0200
0200
0200
0200
FFF8
ENDCHAR
STARTCHAR U_2535
ENCODING 9525
SWIDTH 1000 0
DWIDTH 13 0
BBX 13 7 0 3
BITMAP
0200
0200
0200
0200
0200
FE00
FFF8
ENDCHAR
STARTCHAR U_2536
ENCODING 9526
SWIDTH 1000 0
DWIDTH 13 0
BBX 13 7 0 3
BITMAP
0200
0200
0200
0200
0200
03F8
FFF8
ENDCHAR
STARTCHAR U_2537
ENCODING 9527
SWIDTH 1000 0
DWIDTH 13 0
BBX 13 7 0 3
BITMAP
0200
0200
0200
0200
0200
FFF8
FFF8
ENDCHAR
STARTCHAR U_2538
ENCODING 9528
SWIDTH 1000 0
DWIDTH 13 0
BBX 13 7 0 3
BITMAP
0600
0600
0600
0600
0600
0600
FFF8
ENDCHAR
STARTCHAR U_2539
ENCODING 9529
SWIDTH 1000 0
DWIDTH 13 0
BBX 13 7 0 3
BITMAP
0600
0600
0600
0600
0600
FE00
FFF8
ENDCHAR
STARTCHAR U_253A
ENCODING 9530
SWIDTH 1000 0
DWIDTH 13 0
BBX 13 7 0 3
BITMAP
0300
0300
0300
0300
0300
03F8
FFF8
ENDCHAR
STARTCHAR U_253B
ENCODING 9531
SWIDTH 1000 0
DWIDTH 13 0
BBX 13 7 0 3
BITMAP
0300
0300
0300
0300
0300
FFF8
FFF8
ENDCHAR
STARTCHAR SF050000
ENCODING 9532
SWIDTH 1000 0
DWIDTH 13 0
BBX 13 12 0 -2
BITMAP
0200
0200
0200
0200
0200
0200
FFF8
0200
0200
0200
0200
0200
ENDCHAR
STARTCHAR U_253D
ENCODING 9533
SWIDTH 1000 0
DWIDTH 13 0
BBX 13 12 0 -2
BITMAP
0200
0200
0200
0200
0200
FE00
FFF8
0200
0200
0200
0200
0200
ENDCHAR
STARTCHAR U_253E
ENCODING 9534
SWIDTH 1000 0
DWIDTH 13 0
BBX 13 12 0 -2
BITMAP
0200
0200
0200
0200
0200
03F8
FFF8
0200
0200
0200
0200
0200
ENDCHAR
STARTCHAR U_253F
ENCODING 9535
SWIDTH 1000 0
DWIDTH 13 0
BBX 13 12 0 -2
BITMAP
0200
0200
0200
0200
0200
FFF8
FFF8
0200
0200
0200
0200
0200
ENDCHAR
STARTCHAR U_2540
ENCODING 9536
SWIDTH 1000 0
DWIDTH 13 0
BBX 13 12 0 -2
BITMAP
0600
0600
0600
0600
0600
0600
FFF8
0200
0200
0200
0200
0200
ENDCHAR
STARTCHAR U_2541
ENCODING 9537
SWIDTH 1000 0
DWIDTH 13 0
BBX 13 12 0 -2
BITMAP
0200
0200
0200
0200
0200
0200
FFF8
0600
0600
0600
0600
0600
ENDCHAR
STARTCHAR U_2542
ENCODING 9538
SWIDTH 1000 0
DWIDTH 13 0
BBX 13 12 0 -2
BITMAP
0600
0600
0600
0600
0600
0600
FFF8
0600
0600
0600
0600
0600
ENDCHAR
STARTCHAR U_2543
ENCODING 9539
SWIDTH 1000 0
DWIDTH 13 0
BBX 13 12 0 -2
BITMAP
0600
0600
0600
0600
0600
FE00
FFF8
0200
0200
0200
0200
0200
ENDCHAR
STARTCHAR U_2544
ENCODING 9540
SWIDTH 1000 0
DWIDTH 13 0
BBX 13 12 0 -2
BITMAP
0300
0300
0300
0300
0300
03F8
FFF8
0200
0200
0200
0200
0200
ENDCHAR
STARTCHAR U_2545
ENCODING 9541
SWIDTH 1000 0
DWIDTH 13 0
BBX 13 12 0 -2
BITMAP
0200
0200
0200
0200
0200
0200
FFF8
FE00
0600
0600
0600
0600
ENDCHAR
STARTCHAR U_2546
ENCODING 9542
SWIDTH 1000 0
DWIDTH 13 0
BBX 13 12 0 -2
BITMAP
0200
0200
0200
0200
0200
0200
FFF8
03F8
0300
0300
0300
0300
ENDCHAR
STARTCHAR U_2547
ENCODING 9543
SWIDTH 1000 0
DWIDTH 13 0
BBX 13 12 0 -2
BITMAP
0300
0300
0300
0300
0300
FFF8
FFF8
0200
0200
0200
0200
0200
ENDCHAR
STARTCHAR U_2548
ENCODING 9544
SWIDTH 1000 0
DWIDTH 13 0
BBX 13 12 0 -2
BITMAP
0200
0200
0200
0200
0200
FFF8
FFF8
0200
0200
0200
0200
0200
ENDCHAR
STARTCHAR U_2549
ENCODING 9545
SWIDTH 1000 0
DWIDTH 13 0
BBX 13 12 0 -2
BITMAP
0600
0600
0600
0600
0600
FE00
FFF8
0600
0600
0600
0600
0600
ENDCHAR
STARTCHAR U_254A
ENCODING 9546
SWIDTH 1000 0
DWIDTH 13 0
BBX 13 12 0 -2
BITMAP
0300
0300
0300
0300
0300
03F8
FFF8
0300
0300
0300
0300
0300
ENDCHAR
STARTCHAR U_254B
ENCODING 9547
SWIDTH 1000 0
DWIDTH 13 0
BBX 13 12 0 -2
BITMAP
0300
0300
0300
0300
0300
FFF8
FFF8
0300
0300
0300
0300
0300
ENDCHAR
STARTCHAR U_254C
ENCODING 9548
SWIDTH 1000 0
DWIDTH 14 0
BBX 13 13 0 -1
BITMAP
0000
0000
0000
0000
0000
0000
FDF8
0000
0000
0000
0000
0000
0000
ENDCHAR
STARTCHAR U_254D
ENCODING 9549
SWIDTH 1000 0
DWIDTH 14 0
BBX 13 13 0 -1
BITMAP
0000
0000
0000
0000
0000
0000
FDF8
FDF8
0000
0000
0000
0000
0000
ENDCHAR
STARTCHAR U_254E
ENCODING 9550
SWIDTH 1000 0
DWIDTH 14 0
BBX 13 13 0 -1
BITMAP
0200
0200
0200
0200
0200
0200
0000
0200
0200
0200
0200
0200
0200
ENDCHAR
STARTCHAR U_254F
ENCODING 9551
SWIDTH 1000 0
DWIDTH 14 0
BBX 13 13 0 -1
BITMAP
0300
0300
0300
0300
0300
0300
0000
0300
0300
0300
0300
0300
0300
ENDCHAR
STARTCHAR SF430000
ENCODING 9552
SWIDTH 1000 0
DWIDTH 13 0
BBX 13 3 0 2
BITMAP
FFF8
0000
FFF8
ENDCHAR
STARTCHAR SF240000
ENCODING 9553
SWIDTH 1000 0
DWIDTH 13 0
BBX 3 12 5 -2
BITMAP
A0
A0
A0
A0
A0
A0
A0
A0
A0
A0
A0
A0
ENDCHAR
STARTCHAR SF510000
ENCODING 9554
SWIDTH 1000 0
DWIDTH 13 0
BBX 7 7 6 -2
BITMAP
FE
80
FE
80
80
80
80
ENDCHAR
STARTCHAR SF520000
ENCODING 9555
SWIDTH 1000 0
DWIDTH 13 0
BBX 8 6 5 -2
BITMAP
FF
A0
A0
A0
A0
A0
ENDCHAR
STARTCHAR SF390000
ENCODING 9556
SWIDTH 1000 0
DWIDTH 13 0
BBX 8 7 5 -2
BITMAP
FF
80
BF
A0
A0
A0
A0
ENDCHAR
STARTCHAR SF220000
ENCODING 9557
SWIDTH 1000 0
DWIDTH 13 0
BBX 7 7 0 -2
BITMAP
FE
02
FE
02
02
02
02
ENDCHAR
STARTCHAR SF210000
ENCODING 9558
SWIDTH 1000 0
DWIDTH 13 0
BBX 7 6 0 -2
BITMAP
FE
0A
0A
0A
0A
0A
ENDCHAR
STARTCHAR SF250000
ENCODING 9559
SWIDTH 1000 0
DWIDTH 13 0
BBX 7 7 0 -2
BITMAP
FE
02
FA
0A
0A
0A
0A
ENDCHAR
STARTCHAR SF500000
ENCODING 9560
SWIDTH 1000 0
DWIDTH 13 0
BBX 7 7 6 3
BITMAP
80
80
80
80
FE
80
FE
ENDCHAR
STARTCHAR SF490000
ENCODING 9561
SWIDTH 1000 0
DWIDTH 13 0
BBX 8 7 5 3
BITMAP
A0
A0
A0
A0
A0
A0
FF
ENDCHAR
STARTCHAR SF380000
ENCODING 9562
SWIDTH 1000 0
DWIDTH 13 0
BBX 8 7 5 3
BITMAP
A0
A0
A0
A0
BF
80
FF
ENDCHAR
STARTCHAR SF280000
ENCODING 9563
SWIDTH 1000 0
DWIDTH 13 0
BBX 7 7 0 3
BITMAP
02
02
02
02
FE
02
FE
ENDCHAR
STARTCHAR SF270000
ENCODING 9564
SWIDTH 1000 0
DWIDTH 13 0
BBX 7 7 0 3
BITMAP
0A
0A
0A
0A
0A
0A
FE
ENDCHAR
STARTCHAR SF260000
ENCODING 9565
SWIDTH 1000 0
DWIDTH 13 0
BBX 7 7 0 3
BITMAP
0A
0A
0A
0A
FA
02
FE
ENDCHAR
STARTCHAR SF360000
ENCODING 9566
SWIDTH 1000 0
DWIDTH 13 0
BBX 7 12 6 -2
BITMAP
80
80
80
80
80
FE
80
FE
80
80
80
80
ENDCHAR
STARTCHAR SF370000
ENCODING 9567
SWIDTH 1000 0
DWIDTH 13 0
BBX 8 12 5 -2
BITMAP
A0
A0
A0
A0
A0
A0
BF
A0
A0
A0
A0
A0
ENDCHAR
STARTCHAR SF420000
ENCODING 9568
SWIDTH 1000 0
DWIDTH 13 0
BBX 8 12 5 -2
BITMAP
A0
A0
A0
A0
A0
BF
80
BF
A0
A0
A0
A0
ENDCHAR
STARTCHAR SF190000
ENCODING 9569
SWIDTH 1000 0
DWIDTH 13 0
BBX 7 12 0 -2
BITMAP
02
02
02
02
FE
02
FE
02
02
02
02
02
ENDCHAR
STARTCHAR SF200000
ENCODING 9570
SWIDTH 1000 0
DWIDTH 13 0
BBX 8 12 0 -2
BITMAP
05
05
05
05
05
05
FD
05
05
05
05
05
ENDCHAR
STARTCHAR SF230000
ENCODING 9571
SWIDTH 1000 0
DWIDTH 13 0
BBX 7 12 0 -2
BITMAP
0A
0A
0A
0A
0A
FA
02
FA
0A
0A
0A
0A
ENDCHAR
STARTCHAR SF470000
ENCODING 9572
SWIDTH 1000 0
DWIDTH 13 0
BBX 13 7 0 -2
BITMAP
FFF8
0000
FFF8
0200
0200
0200
0200
ENDCHAR
STARTCHAR SF480000
ENCODING 9573
SWIDTH 1000 0
DWIDTH 13 0
BBX 13 6 0 -2
BITMAP
FFF8
0500
0500
0500
0500
0500
ENDCHAR
STARTCHAR SF410000
ENCODING 9574
SWIDTH 1000 0
DWIDTH 13 0
BBX 13 7 0 -2
BITMAP
FFF8
0000
FDF8
0500
0500
0500
0500
ENDCHAR
STARTCHAR SF450000
ENCODING 9575
SWIDTH 1000 0
DWIDTH 13 0
BBX 13 7 0 3
BITMAP
0200
0200
0200
0200
FFF8
0000
FFF8
ENDCHAR
STARTCHAR SF460000
ENCODING 9576
SWIDTH 1000 0
DWIDTH 13 0
BBX 13 7 0 3
BITMAP
0500
0500
0500
0500
0500
0500
FFF8
ENDCHAR
STARTCHAR SF400000
ENCODING 9577
SWIDTH 1000 0
DWIDTH 13 0
BBX 13 8 0 2
BITMAP
0500
0500
0500
0500
0500
FDF8
0000
FFF8
ENDCHAR
STARTCHAR SF540000
ENCODING 9578
SWIDTH 1000 0
DWIDTH 13 0
BBX 13 12 0 -2
BITMAP
0200
0200
0200
0200
0200
FFF8
0000
FFF8
0200
0200
0200
0200
ENDCHAR
STARTCHAR SF530000
ENCODING 9579
SWIDTH 1000 0
DWIDTH 13 0
BBX 13 12 0 -2
BITMAP
0A00
0A00
0A00
0A00
0A00
0A00
FBF8
0A00
0A00
0A00
0A00
0A00
ENDCHAR
STARTCHAR SF440000
ENCODING 9580
SWIDTH 1000 0
DWIDTH 13 0
BBX 13 12 0 -2
BITMAP
0500
0500
0500
0500
0500
FDF8
0000
FDF8
0500
0500
0500
0500
ENDCHAR
STARTCHAR U_256D
ENCODING 9581
SWIDTH 1000 0
DWIDTH 13 0
BBX 7 7 6 -3
BITMAP
0E
10
20
40
80
80
80
ENDCHAR
STARTCHAR U_256E
ENCODING 9582
SWIDTH 1000 0
DWIDTH 13 0
BBX 7 7 0 -3
BITMAP
E0
10
08
04
02
02
02
ENDCHAR
STARTCHAR U_256F
ENCODING 9583
SWIDTH 1000 0
DWIDTH 13 0
BBX 7 7 0 3
BITMAP
02
02
04
04
08
30
C0
ENDCHAR
STARTCHAR U_2570
ENCODING 9584
SWIDTH 1000 0
DWIDTH 13 0
BBX 7 7 6 3
BITMAP
80
80
40
40
20
18
06
ENDCHAR
STARTCHAR U_2571
ENCODING 9585
SWIDTH 1000 0
DWIDTH 13 0
BBX 12 12 0 -1
BITMAP
0010
0020
0040
0080
0100
0200
0400
0800
1000
2000
4000
8000
ENDCHAR
STARTCHAR U_2572
ENCODING 9586
SWIDTH 1000 0
DWIDTH 13 0
BBX 12 12 0 -1
BITMAP
8000
4000
2000
1000
0800
0400
0200
0100
0080
0040
0020
0010
ENDCHAR
STARTCHAR U_2573
ENCODING 9587
SWIDTH 1000 0
DWIDTH 13 0
BBX 13 13 0 -3
BITMAP
8008
4010
2020
1040
0880
0500
0200
0500
0880
1040
2020
4010
8008
ENDCHAR
STARTCHAR U_2574
ENCODING 9588
SWIDTH 1000 0
DWIDTH 13 0
BBX 13 1 0 9
BITMAP
FFF8
ENDCHAR
STARTCHAR U_2581
ENCODING 9601
SWIDTH 1000 0
DWIDTH 13 0
BBX 13 2 0 -3
BITMAP
FFF8
FFF8
ENDCHAR
STARTCHAR U_2582
ENCODING 9602
SWIDTH 1000 0
DWIDTH 13 0
BBX 13 4 0 -3
BITMAP
FFF8
FFF8
FFF8
FFF8
ENDCHAR
STARTCHAR U_2583
ENCODING 9603
SWIDTH 1000 0
DWIDTH 13 0
BBX 13 5 0 -3
BITMAP
FFF8
FFF8
FFF8
FFF8
FFF8
ENDCHAR
STARTCHAR dnblock
ENCODING 9604
SWIDTH 1000 0
DWIDTH 13 0
BBX 13 7 0 -3
BITMAP
FFF8
FFF8
FFF8
FFF8
FFF8
FFF8
FFF8
ENDCHAR
STARTCHAR U_2585
ENCODING 9605
SWIDTH 1000 0
DWIDTH 13 0
BBX 13 8 0 -3
BITMAP
FFF8
FFF8
FFF8
FFF8
FFF8
FFF8
FFF8
FFF8
ENDCHAR
STARTCHAR U_2586
ENCODING 9606
SWIDTH 1000 0
DWIDTH 13 0
BBX 13 10 0 -3
BITMAP
FFF8
FFF8
FFF8
FFF8
FFF8
FFF8
FFF8
FFF8
FFF8
FFF8
ENDCHAR
STARTCHAR U_2587
ENCODING 9607
SWIDTH 1000 0
DWIDTH 13 0
BBX 13 12 0 -3
BITMAP
FFF8
FFF8
FFF8
FFF8
FFF8
FFF8
FFF8
FFF8
FFF8
FFF8
FFF8
FFF8
ENDCHAR
STARTCHAR block
ENCODING 9608
SWIDTH 1000 0
DWIDTH 13 0
BBX 13 13 0 -3
BITMAP
FFF8
FFF8
FFF8
FFF8
FFF8
FFF8
FFF8
FFF8
FFF8
FFF8
FFF8
FFF8
FFF8
ENDCHAR
STARTCHAR U_2589
ENCODING 9609
SWIDTH 1000 0
DWIDTH 13 0
BBX 11 13 0 -3
BITMAP
FFE0
FFE0
FFE0
FFE0
FFE0
FFE0
FFE0
FFE0
FFE0
FFE0
FFE0
FFE0
FFE0
ENDCHAR
STARTCHAR U_258A
ENCODING 9610
SWIDTH 1000 0
DWIDTH 13 0
BBX 10 13 0 -3
BITMAP
FFC0
FFC0
FFC0
FFC0
FFC0
FFC0
FFC0
FFC0
FFC0
FFC0
FFC0
FFC0
FFC0
ENDCHAR
STARTCHAR U_258B
ENCODING 9611
SWIDTH 1000 0
DWIDTH 13 0
BBX 8 13 0 -3
BITMAP
FF
FF
FF
FF
FF
FF
FF
FF
FF
FF
FF
FF
FF
ENDCHAR
STARTCHAR lfblock
ENCODING 9612
SWIDTH 1000 0
DWIDTH 13 0
BBX 7 13 0 -3
BITMAP
FE
FE
FE
FE
FE
FE
FE
FE
FE
FE
FE
FE
FE
ENDCHAR
STARTCHAR U_258D
ENCODING 9613
SWIDTH 1000 0
DWIDTH 13 0
BBX 5 13 0 -3
BITMAP
F8
F8
F8
F8
F8
F8
F8
F8
F8
F8
F8
F8
F8
ENDCHAR
STARTCHAR U_258E
ENCODING 9614
SWIDTH 1000 0
DWIDTH 13 0
BBX 3 13 0 -3
BITMAP
E0
E0
E0
E0
E0
E0
E0
E0
E0
E0
E0
E0
E0
ENDCHAR
STARTCHAR U_258F
ENCODING 9615
SWIDTH 1000 0
DWIDTH 13 0
BBX 2 13 0 -3
BITMAP
C0
C0
C0
C0
C0
C0
C0
C0
C0
C0
C0
C0
C0
ENDCHAR
STARTCHAR U_2591
ENCODING 9617
SWIDTH 1000 0
DWIDTH 14 0
BBX 13 13 0 -1
BITMAP
8888
0000
2220
0000
8888
0000
2220
0000
8888
0000
2220
0000
8888
ENDCHAR
STARTCHAR U_2592
ENCODING 9618
SWIDTH 1000 0
DWIDTH 14 0
BBX 13 13 0 -1
BITMAP
5550
AAA8
5550
AAA8
5550
AAA8
5550
AAA8
5550
AAA8
5550
AAA8
5550
ENDCHAR
STARTCHAR dkshade
ENCODING 9619
SWIDTH 1000 0
DWIDTH 13 0
BBX 11 11 1 -2
BITMAP
FFE0
FFE0
FFE0
FFE0
FFE0
FFE0
FFE0
FFE0
FFE0
FFE0
FFE0
ENDCHAR
STARTCHAR U_2594
ENCODING 9620
SWIDTH 1000 0
DWIDTH 13 0
BBX 13 2 0 8
BITMAP
FFF8
FFF8
ENDCHAR
STARTCHAR U_2595
ENCODING 9621
SWIDTH 1000 0
DWIDTH 13 0
BBX 2 13 11 -3
BITMAP
C0
C0
C0
C0
C0
C0
C0
C0
C0
C0
C0
C0
C0
ENDCHAR
STARTCHAR filledbox
ENCODING 9632
SWIDTH 1000 0
DWIDTH 13 0
BBX 11 11 1 -1
BITMAP
FFE0
FFE0
FFE0
FFE0
FFE0
FFE0
FFE0
FFE0
FFE0
FFE0
FFE0
ENDCHAR
STARTCHAR H22073
ENCODING 9633
SWIDTH 1000 0
DWIDTH 13 0
BBX 11 12 1 -2
BITMAP
FFE0
8020
8020
8020
8020
8020
8020
8020
8020
8020
8020
FFE0
ENDCHAR
STARTCHAR U_25A2
ENCODING 9634
SWIDTH 1000 0
DWIDTH 13 0
BBX 11 11 1 -2
BITMAP
3F80
4040
8020
8020
8020
8020
8020
8020
8020
4040
3F80
ENDCHAR
STARTCHAR triagup
ENCODING 9650
SWIDTH 1000 0
DWIDTH 13 0
BBX 11 10 1 -1
BITMAP
0400
0400
0E00
1F00
1F00
3F80
3F80
7FC0
7FC0
FFE0
ENDCHAR
STARTCHAR U_25B3
ENCODING 9651
SWIDTH 1000 0
DWIDTH 13 0
BBX 11 10 1 -1
BITMAP
0400
0400
0A00
1100
1100
2080
2080
4040
4040
FFE0
ENDCHAR
STARTCHAR triagdn
ENCODING 9660
SWIDTH 1000 0
DWIDTH 13 0
BBX 13 10 0 -1
BITMAP
FFF8
7FF0
3FE0
3FE0
1FC0
0F80
0F80
0700
0200
0200
ENDCHAR
STARTCHAR U_25BD
ENCODING 9661
SWIDTH 1000 0
DWIDTH 13 0
BBX 13 10 0 -1
BITMAP
FFF8
4010
2020
2020
1040
0880
0880
0500
0200
0200
ENDCHAR
STARTCHAR U_25C6
ENCODING 9670
SWIDTH 1000 0
DWIDTH 13 0
BBX 11 12 1 -2
BITMAP
0400
0E00
1F00
3F80
7FC0
FFE0
FFE0
7FC0
3F80
1F00
0E00
0400
ENDCHAR
STARTCHAR U_25C7
ENCODING 9671
SWIDTH 1000 0
DWIDTH 13 0
BBX 11 12 1 -2
BITMAP
0400
0A00
1100
2080
4040
8020
8020
4040
2080
1100
0A00
0400
ENDCHAR
STARTCHAR circle
ENCODING 9675
SWIDTH 1000 0
DWIDTH 13 0
BBX 12 12 0 -1
BITMAP
0F00
30C0
4020
4020
8010
8010
8010
8010
4020
4020
30C0
0F00
ENDCHAR
STARTCHAR U_25CE
ENCODING 9678
SWIDTH 1000 0
DWIDTH 13 0
BBX 12 12 0 -1
BITMAP
0F00
30C0
4020
4620
8910
9090
9090
8910
4620
4020
30C0
0F00
ENDCHAR
STARTCHAR H18533
ENCODING 9679
SWIDTH 1000 0
DWIDTH 13 0
BBX 12 12 0 -1
BITMAP
0F00
3FC0
7FE0
7FE0
FFF0
FFF0
FFF0
FFF0
7FE0
7FE0
3FC0
0F00
ENDCHAR
STARTCHAR U_25E2
ENCODING 9698
SWIDTH 1000 0
DWIDTH 13 0
BBX 13 13 0 -3
BITMAP
0008
0018
0038
0078
00F8
01F8
03F8
07F8
0FF8
1FF8
3FF8
7FF8
FFF8
ENDCHAR
STARTCHAR U_25E3
ENCODING 9699
SWIDTH 1000 0
DWIDTH 13 0
BBX 13 13 0 -3
BITMAP
8000
C000
E000
F000
F800
FC00
FE00
FF00
FF80
FFC0
FFE0
FFF0
FFF8
ENDCHAR
STARTCHAR U_25E4
ENCODING 9700
SWIDTH 1000 0
DWIDTH 13 0
BBX 12 12 0 -1
BITMAP
FFF0
FFE0
FFC0
FF80
FF00
FE00
FC00
F800
F000
E000
C000
8000
ENDCHAR
STARTCHAR U_25E5
ENCODING 9701
SWIDTH 1000 0
DWIDTH 13 0
BBX 12 12 1 -2
BITMAP
FFF0
7FF0
3FF0
1FF0
0FF0
07F0
03F0
01F0
00F0
0070
0030
0010
ENDCHAR
STARTCHAR U_25EE
ENCODING 9710
SWIDTH 1000 0
DWIDTH 14 0
BBX 13 13 0 -1
BITMAP
0200
0200
0700
0700
0B80
0B80
13C0
13C0
23E0
23E0
43F0
43F0
FFF8
ENDCHAR
STARTCHAR U_2605
ENCODING 9733
SWIDTH 1000 0
DWIDTH 13 0
BBX 9 10 2 -1
BITMAP
0800
0800
1C00
1C00
FF80
7F00
3E00
3E00
7700
4100
ENDCHAR
STARTCHAR U_2606
ENCODING 9734
SWIDTH 1000 0
DWIDTH 13 0
BBX 9 10 2 -1
BITMAP
0800
0800
1400
1400
E380
4100
2200
2A00
3600
4100
ENDCHAR
STARTCHAR U_2609
ENCODING 9737
SWIDTH 1000 0
DWIDTH 13 0
BBX 12 12 0 -1
BITMAP
0F00
30C0
4020
4020
8010
8610
8610
8010
4020
4020
30C0
0F00
ENDCHAR
STARTCHAR female
ENCODING 9792
SWIDTH 1000 0
DWIDTH 13 0
BBX 9 12 2 -2
BITMAP
1C00
2200
2200
2200
1C00
0800
0800
FF80
0800
0800
0800
0800
ENDCHAR
STARTCHAR U_2641
ENCODING 9793
SWIDTH 1000 0
DWIDTH 13 0
BBX 12 12 0 -1
BITMAP
0F00
32C0
4220
4220
8210
8210
FFF0
8210
4220
4220
32C0
0F00
ENDCHAR
STARTCHAR male
ENCODING 9794
SWIDTH 1000 0
DWIDTH 13 0
BBX 7 12 3 -2
BITMAP
10
38
54
92
10
10
10
38
44
44
44
38
ENDCHAR
STARTCHAR U_2E82
ENCODING 11906
SWIDTH 1000 0
DWIDTH 14 0
BBX 13 13 0 -1
BITMAP
0020
FFF8
0010
0020
0040
0080
0000
0000
0000
0000
0000
0000
0000
ENDCHAR
STARTCHAR U_2E99
ENCODING 11929
SWIDTH 1000 0
DWIDTH 14 0
BBX 13 13 0 -1
BITMAP
0400
0400
07F8
0820
0820
1420
2440
4240
0280
0100
0280
0C60
7018
ENDCHAR
STARTCHAR U_2EA4
ENCODING 11940
SWIDTH 1000 0
DWIDTH 14 0
BBX 13 13 0 -1
BITMAP
0070
7F80
2420
1240
0000
0000
0000
0000
0000
0000
0000
0000
0000
ENDCHAR
STARTCHAR U_2EBF
ENCODING 11967
SWIDTH 1000 0
DWIDTH 14 0
BBX 13 13 0 -1
BITMAP
1040
1040
FDF8
1040
0000
0000
0000
0000
0000
0000
0000
0000
0000
ENDCHAR
STARTCHAR U_2ECD
ENCODING 11981
SWIDTH 1000 0
DWIDTH 14 0
BBX 13 13 0 -1
BITMAP
4000
2000
0000
8000
4000
0000
0000
E000
2000
2000
2000
5000
8FF8
ENDCHAR
STARTCHAR U_2ECE
ENCODING 11982
SWIDTH 1000 0
DWIDTH 14 0
BBX 13 13 0 -1
BITMAP
4000
2000
0000
0000
F000
1000
2000
7000
1000
1000
2000
5000
8FF8
ENDCHAR
STARTCHAR U_2F00
ENCODING 12032
SWIDTH 1000 0
DWIDTH 13 0
BBX 12 2 0 4
BITMAP
0020
FFF0
ENDCHAR
STARTCHAR U_2F01
ENCODING 12033
SWIDTH 1000 0
DWIDTH 13 0
BBX 1 12 6 -2
BITMAP
80
80
80
80
80
80
80
80
80
80
80
80
ENDCHAR
STARTCHAR U_2F02
ENCODING 12034
SWIDTH 1000 0
DWIDTH 13 0
BBX 4 5 4 2
BITMAP
80
40
20
10
10
ENDCHAR
STARTCHAR U_2F03
ENCODING 12035
SWIDTH 1000 0
DWIDTH 13 0
BBX 5 12 0 -2
BITMAP
08
08
08
08
08
08
08
08
10
10
20
C0
ENDCHAR
STARTCHAR U_2F04
ENCODING 12036
SWIDTH 1000 0
DWIDTH 13 0
BBX 12 12 0 -1
BITMAP
0200
FF00
0200
0400
0800
1000
2000
4000
4020
8020
8030
7FE0
ENDCHAR
STARTCHAR U_2F05
ENCODING 12037
SWIDTH 1000 0
DWIDTH 13 0
BBX 4 12 4 -2
BITMAP
10
10
10
10
10
10
10
10
10
90
70
20
ENDCHAR
STARTCHAR U_2F06
ENCODING 12038
SWIDTH 1000 0
DWIDTH 13 0
BBX 12 12 0 -1
BITMAP
0080
3FC0
0000
0000
0000
0000
0000
0000
0000
0000
0020
FFF0
ENDCHAR
STARTCHAR U_2F07
ENCODING 12039
SWIDTH 1000 0
DWIDTH 13 0
BBX 12 4 0 4
BITMAP
0400
0200
0220
FFF0
ENDCHAR
STARTCHAR U_2F08
ENCODING 12040
SWIDTH 1000 0
DWIDTH 13 0
BBX 12 12 0 -1
BITMAP
0200
0200
0200
0200
0200
0200
0200
0500
0880
1060
2030
C010
ENDCHAR
STARTCHAR U_2F09
ENCODING 12041
SWIDTH 1000 0
DWIDTH 13 0
BBX 12 12 0 -1
BITMAP
1100
1100
1100
1100
1100
1100
1100
1100
2100
2110
4110
80F0
ENDCHAR
STARTCHAR U_2F0A
ENCODING 12042
SWIDTH 1000 0
DWIDTH 13 0
BBX 12 12 0 -1
BITMAP
0C00
0200
0200
0200
0200
0500
0500
0880
0880
1040
2030
C010
ENDCHAR
STARTCHAR U_2F0B
ENCODING 12043
SWIDTH 1000 0
DWIDTH 13 0
BBX 12 12 0 -1
BITMAP
0100
0100
0100
0900
0900
0880
1080
1040
2040
2020
4030
8010
ENDCHAR
STARTCHAR U_2F0C
ENCODING 12044
SWIDTH 1000 0
DWIDTH 13 0
BBX 11 12 1 -2
BITMAP
8040
FFE0
8040
8040
8040
8040
8040
8040
8040
8240
81C0
8080
ENDCHAR
STARTCHAR U_2F0D
ENCODING 12045
SWIDTH 1000 0
DWIDTH 13 0
BBX 12 4 0 3
BITMAP
4020
7FF0
4020
8040
ENDCHAR
STARTCHAR U_2F0E
ENCODING 12046
SWIDTH 1000 0
DWIDTH 13 0
BBX 6 12 3 -2
BITMAP
40
34
14
08
08
10
10
E0
20
20
20
20
ENDCHAR
STARTCHAR U_2F0F
ENCODING 12047
SWIDTH 1000 0
DWIDTH 13 0
BBX 11 11 1 -2
BITMAP
1F00
1100
1100
1100
1100
1100
1100
2100
2120
4120
80E0
ENDCHAR
STARTCHAR U_2F10
ENCODING 12048
SWIDTH 1000 0
DWIDTH 13 0
BBX 10 11 1 -2
BITMAP
8040
8040
8040
8040
8040
8040
8040
8040
8040
FFC0
8040
ENDCHAR
STARTCHAR U_2F11
ENCODING 12049
SWIDTH 1000 0
DWIDTH 13 0
BBX 12 12 0 -1
BITMAP
0020
7FF0
0420
0420
0420
0420
0420
0820
0820
1220
21C0
C080
ENDCHAR
STARTCHAR U_2F12
ENCODING 12050
SWIDTH 1000 0
DWIDTH 13 0
BBX 12 12 0 -1
BITMAP
0400
0400
0400
7FF0
0410
0410
0410
0410
0810
1110
20E0
C040
ENDCHAR
STARTCHAR U_2F13
ENCODING 12051
SWIDTH 1000 0
DWIDTH 13 0
BBX 12 12 0 -1
BITMAP
1000
1020
1FF0
2020
4020
8020
0020
0020
0020
0020
0240
0180
ENDCHAR
STARTCHAR U_2F14
ENCODING 12052
SWIDTH 1000 0
DWIDTH 13 0
BBX 12 11 0 -2
BITMAP
0800
0820
0840
0880
0900
0E00
1800
E800
0810
0810
07F0
ENDCHAR
STARTCHAR U_2F15
ENCODING 12053
SWIDTH 1000 0
DWIDTH 13 0
BBX 11 12 1 -2
BITMAP
FFC0
8000
8000
8000
8000
8000
8000
8000
8000
8000
8000
FFE0
ENDCHAR
STARTCHAR U_2F16
ENCODING 12054
SWIDTH 1000 0
DWIDTH 13 0
BBX 11 11 1 -2
BITMAP
FFE0
4000
4000
4000
4000
4000
4000
4000
4000
4040
7FE0
ENDCHAR
STARTCHAR U_2F17
ENCODING 12055
SWIDTH 1000 0
DWIDTH 13 0
BBX 12 12 0 -1
BITMAP
0200
0200
0200
0200
0220
FFF0
0200
0200
0200
0200
0200
0200
ENDCHAR
STARTCHAR U_2F18
ENCODING 12056
SWIDTH 1000 0
DWIDTH 13 0
BBX 5 12 5 -2
BITMAP
80
80
80
80
C0
A0
90
88
88
80
80
80
ENDCHAR
STARTCHAR U_2F19
ENCODING 12057
SWIDTH 1000 0
DWIDTH 13 0
BBX 5 12 4 -2
BITMAP
F8
88
88
88
88
88
88
A8
90
80
80
80
ENDCHAR
STARTCHAR U_2F1A
ENCODING 12058
SWIDTH 1000 0
DWIDTH 13 0
BBX 12 12 0 -1
BITMAP
3FF0
2000
2000
2000
2000
2000
2000
2000
2000
4000
4000
8000
ENDCHAR
STARTCHAR U_2F1B
ENCODING 12059
SWIDTH 1000 0
DWIDTH 13 0
BBX 11 10 1 -1
BITMAP
0400
0400
0800
0800
1000
1100
2080
4040
FFE0
0020
ENDCHAR
STARTCHAR U_2F1C
ENCODING 12060
SWIDTH 1000 0
DWIDTH 13 0
BBX 12 12 0 -1
BITMAP
0040
7FE0
1040
1040
0880
0880
0500
0500
0300
0C80
3070
C020
ENDCHAR
STARTCHAR U_2F1D
ENCODING 12061
SWIDTH 1000 0
DWIDTH 13 0
BBX 10 10 2 -1
BITMAP
8080
FFC0
8080
8080
8080
8080
8080
8080
FF80
8080
ENDCHAR
STARTCHAR U_2F1E
ENCODING 12062
SWIDTH 1000 0
DWIDTH 13 0
BBX 11 12 1 -2
BITMAP
FFE0
8020
8020
8020
8020
8020
8020
8020
8020
8020
FFE0
8020
ENDCHAR
STARTCHAR U_2F1F
ENCODING 12063
SWIDTH 1000 0
DWIDTH 13 0
BBX 12 12 0 -1
BITMAP
0200
0200
0200
0240
7FE0
0200
0200
0200
0200
0200
0220
FFF0
ENDCHAR
STARTCHAR U_2F20
ENCODING 12064
SWIDTH 1000 0
DWIDTH 13 0
BBX 12 12 0 -1
BITMAP
0400
0400
0400
0420
FFF0
0400
0400
0400
0400
0400
0440
7FE0
ENDCHAR
STARTCHAR U_2F21
ENCODING 12065
SWIDTH 1000 0
DWIDTH 13 0
BBX 12 7 0 3
BITMAP
0840
0FE0
1840
E480
0300
0CC0
F030
ENDCHAR
STARTCHAR U_2F22
ENCODING 12066
SWIDTH 1000 0
DWIDTH 13 0
BBX 12 12 0 -1
BITMAP
0400
0440
27E0
2840
2880
1080
2900
4500
0200
0500
18C0
E030
ENDCHAR
STARTCHAR U_2F23
ENCODING 12067
SWIDTH 1000 0
DWIDTH 13 0
BBX 12 12 0 -1
BITMAP
0400
0420
07F0
0820
0820
1440
2240
C280
0100
0200
0C00
F000
ENDCHAR
STARTCHAR U_2F24
ENCODING 12068
SWIDTH 1000 0
DWIDTH 13 0
BBX 12 12 0 -1
BITMAP
0400
0400
0420
FFF0
0400
0400
0400
0600
0900
1080
2070
C020
ENDCHAR
STARTCHAR U_2F25
ENCODING 12069
SWIDTH 1000 0
DWIDTH 13 0
BBX 12 12 0 -1
BITMAP
0400
0400
0420
FFF0
0880
0880
0880
1100
1D00
0280
0C70
F020
ENDCHAR
STARTCHAR U_2F26
ENCODING 12070
SWIDTH 1000 0
DWIDTH 13 0
BBX 12 12 0 -1
BITMAP
7FE0
0040
0080
0300
0220
FFF0
0200
0200
0200
1200
0E00
0400
ENDCHAR
STARTCHAR U_2F27
ENCODING 12071
SWIDTH 1000 0
DWIDTH 13 0
BBX 12 5 0 3
BITMAP
0600
4210
7FF0
4010
8020
ENDCHAR
STARTCHAR U_2F28
ENCODING 12072
SWIDTH 1000 0
DWIDTH 13 0
BBX 11 12 1 -2
BITMAP
0100
0100
0100
FFE0
0100
2100
1100
1100
0100
0100
0700
0200
ENDCHAR
STARTCHAR U_2F29
ENCODING 12073
SWIDTH 1000 0
DWIDTH 13 0
BBX 12 12 0 -1
BITMAP
0200
0200
0200
1240
1240
2220
2220
4210
8210
1200
0E00
0400
ENDCHAR
STARTCHAR U_2F2A
ENCODING 12074
SWIDTH 1000 0
DWIDTH 13 0
BBX 12 12 0 -1
BITMAP
0400
0400
0420
FFF0
0400
0500
0500
0500
0500
0910
3110
C0F0
ENDCHAR
STARTCHAR U_2F2B
ENCODING 12075
SWIDTH 1000 0
DWIDTH 13 0
BBX 12 12 0 -1
BITMAP
2020
3FF0
2020
2020
3FE0
2020
2000
2000
2000
2000
4000
8000
ENDCHAR
STARTCHAR U_2F2C
ENCODING 12076
SWIDTH 1000 0
DWIDTH 13 0
BBX 12 12 0 -1
BITMAP
0200
0200
4210
4210
4210
4210
7FF0
4210
0200
0400
1800
E000
ENDCHAR
STARTCHAR U_2F2D
ENCODING 12077
SWIDTH 1000 0
DWIDTH 13 0
BBX 11 12 1 -2
BITMAP
0400
0400
0400
8420
8420
8420
8420
8420
8420
8420
FFE0
8020
ENDCHAR
STARTCHAR U_2F2E
ENCODING 12078
SWIDTH 1000 0
DWIDTH 13 0
BBX 11 12 0 -2
BITMAP
2220
2220
2220
4440
4440
8880
8880
4440
4440
2220
2220
2220
ENDCHAR
STARTCHAR U_2F2F
ENCODING 12079
SWIDTH 1000 0
DWIDTH 13 0
BBX 12 12 0 -1
BITMAP
0040
7FE0
0200
0200
0200
0200
0200
0200
0200
0200
0220
FFF0
ENDCHAR
STARTCHAR U_2F30
ENCODING 12080
SWIDTH 1000 0
DWIDTH 13 0
BBX 12 12 0 -1
BITMAP
0040
FFE0
0040
0040
0040
7FC0
4000
4000
4020
4020
4030
3FE0
ENDCHAR
STARTCHAR U_2F31
ENCODING 12081
SWIDTH 1000 0
DWIDTH 13 0
BBX 12 12 0 -1
BITMAP
0400
0400
8420
FFF0
8420
8420
8420
8420
8420
84E0
0440
0400
ENDCHAR
STARTCHAR U_2F32
ENCODING 12082
SWIDTH 1000 0
DWIDTH 13 0
BBX 11 12 1 -2
BITMAP
0080
7FC0
0400
0400
0400
FFE0
0400
0400
0400
0400
0400
0400
ENDCHAR
STARTCHAR U_2F33
ENCODING 12083
SWIDTH 1000 0
DWIDTH 13 0
BBX 10 12 1 -2
BITMAP
0800
0800
1000
1100
2200
7E00
0400
0900
1080
2380
FC40
4040
ENDCHAR
STARTCHAR U_2F34
ENCODING 12084
SWIDTH 1000 0
DWIDTH 13 0
BBX 12 12 0 -1
BITMAP
0200
0120
3FF0
2000
2000
2000
2000
2000
2000
2000
4000
8000
ENDCHAR
STARTCHAR U_2F35
ENCODING 12085
SWIDTH 1000 0
DWIDTH 13 0
BBX 12 12 0 -1
BITMAP
F800
1000
1000
2000
7C00
0800
0800
5000
3000
1000
2800
C7F0
ENDCHAR
STARTCHAR U_2F36
ENCODING 12086
SWIDTH 1000 0
DWIDTH 13 0
BBX 12 12 0 -1
BITMAP
1080
1080
1080
1080
1080
FFF0
1080
1080
2080
2080
4080
8080
ENDCHAR
STARTCHAR U_2F37
ENCODING 12087
SWIDTH 1000 0
DWIDTH 13 0
BBX 12 12 0 -1
BITMAP
0500
0480
0400
0420
FFF0
0400
0400
0200
0200
0120
00A0
0060
ENDCHAR
STARTCHAR U_2F38
ENCODING 12088
SWIDTH 1000 0
DWIDTH 13 0
BBX 9 12 2 -2
BITMAP
FF00
0100
0100
7F00
4000
4000
FF80
0080
0080
0080
0100
0E00
ENDCHAR
STARTCHAR U_2F39
ENCODING 12089
SWIDTH 1000 0
DWIDTH 13 0
BBX 10 12 2 -2
BITMAP
0080
FFC0
0080
0080
0080
7F80
0080
0080
0080
0080
FF80
0080
ENDCHAR
STARTCHAR U_2F3A
ENCODING 12090
SWIDTH 1000 0
DWIDTH 13 0
BBX 6 12 3 -2
BITMAP
18
10
20
40
98
10
20
4C
88
10
20
C0
ENDCHAR
STARTCHAR U_2F3B
ENCODING 12091
SWIDTH 1000 0
DWIDTH 13 0
BBX 6 12 2 -2
BITMAP
04
08
10
64
08
18
28
C8
08
08
08
08
ENDCHAR
STARTCHAR U_2F3C
ENCODING 12092
SWIDTH 1000 0
DWIDTH 13 0
BBX 12 12 0 -1
BITMAP
0200
0100
0080
0880
0800
4800
4820
8810
8810
0850
0840
07C0
ENDCHAR
STARTCHAR U_2F3D
ENCODING 12093
SWIDTH 1000 0
DWIDTH 13 0
BBX 12 12 0 -1
BITMAP
0400
0500
0480
0420
07F0
FC00
0440
0480
0310
0510
1890
E070
ENDCHAR
STARTCHAR U_2F3E
ENCODING 12094
SWIDTH 1000 0
DWIDTH 13 0
BBX 12 12 0 -1
BITMAP
00C0
3F00
2020
3FF0
2020
2020
3FE0
2020
2000
2000
4000
8000
ENDCHAR
STARTCHAR U_2F3F
ENCODING 12095
SWIDTH 1000 0
DWIDTH 13 0
BBX 11 12 1 -2
BITMAP
00C0
FF00
0400
0480
7FC0
0400
0440
FFE0
0400
2400
1C00
0800
ENDCHAR
STARTCHAR U_2F40
ENCODING 12096
SWIDTH 1000 0
DWIDTH 13 0
BBX 12 12 0 -1
BITMAP
0200
0220
FFF0
0200
0200
3FC0
1080
1080
0900
0600
1980
E070
ENDCHAR
STARTCHAR U_2F41
ENCODING 12097
SWIDTH 1000 0
DWIDTH 13 0
BBX 11 12 1 -2
BITMAP
0400
0440
07E0
0400
7FC0
1080
1100
0900
0A00
0400
1B00
E0E0
ENDCHAR
STARTCHAR U_2F42
ENCODING 12098
SWIDTH 1000 0
DWIDTH 13 0
BBX 12 12 0 -1
BITMAP
0600
0200
FFF0
1040
1040
0880
0880
0500
0200
0500
18C0
E030
ENDCHAR
STARTCHAR U_2F43
ENCODING 12099
SWIDTH 1000 0
DWIDTH 13 0
BBX 12 12 0 -1
BITMAP
0080
1080
0C80
0480
2080
1880
08A0
03F0
FC80
0080
0080
0080
ENDCHAR
STARTCHAR U_2F44
ENCODING 12100
SWIDTH 1000 0
DWIDTH 13 0
BBX 12 12 0 -1
BITMAP
0060
1F80
1000
1020
1FF0
1080
1080
1080
2080
2080
4080
8080
ENDCHAR
STARTCHAR U_2F45
ENCODING 12101
SWIDTH 1000 0
DWIDTH 13 0
BBX 11 12 1 -2
BITMAP
0800
0440
FFE0
0800
0840
0FE0
0840
1040
1040
2040
4480
8300
ENDCHAR
STARTCHAR U_2F46
ENCODING 12102
SWIDTH 1000 0
DWIDTH 13 0
BBX 12 12 0 -1
BITMAP
3FC0
0400
0400
0400
FFF0
0A00
0A00
0A00
1200
1210
2210
C1F0
ENDCHAR
STARTCHAR U_2F47
ENCODING 12103
SWIDTH 1000 0
DWIDTH 13 0
BBX 9 12 2 -2
BITMAP
8100
FF80
8100
8100
8100
FF00
8100
8100
8100
8100
FF00
8100
ENDCHAR
STARTCHAR U_2F48
ENCODING 12104
SWIDTH 1000 0
DWIDTH 13 0
BBX 10 12 1 -2
BITMAP
8080
FFC0
8080
8080
8080
FF80
8080
8080
8080
8080
FF80
8080
ENDCHAR
STARTCHAR U_2F49
ENCODING 12105
SWIDTH 1000 0
DWIDTH 13 0
BBX 10 12 0 -2
BITMAP
1FC0
1040
1040
1FC0
1040
1040
1FC0
1040
2040
2240
41C0
8080
ENDCHAR
STARTCHAR U_2F4A
ENCODING 12106
SWIDTH 1000 0
DWIDTH 13 0
BBX 12 12 0 -1
BITMAP
0200
0220
FFF0
0200
0A80
0A80
1240
1240
2220
2220
4210
8210
ENDCHAR
STARTCHAR U_2F4B
ENCODING 12107
SWIDTH 1000 0
DWIDTH 13 0
BBX 11 12 1 -2
BITMAP
2000
2000
3FE0
4040
4480
8400
0400
0A00
0A00
1100
2080
C060
ENDCHAR
STARTCHAR U_2F4C
ENCODING 12108
SWIDTH 1000 0
DWIDTH 13 0
BBX 12 12 0 -1
BITMAP
0200
0200
0200
0200
2240
23E0
2200
2200
2200
2200
2220
FFF0
ENDCHAR
STARTCHAR U_2F4D
ENCODING 12109
SWIDTH 1000 0
DWIDTH 13 0
BBX 12 12 0 -1
BITMAP
0020
FFF0
0400
0840
0FE0
1040
2840
C480
0500
0200
0C00
F000
ENDCHAR
STARTCHAR U_2F4E
ENCODING 12110
SWIDTH 1000 0
DWIDTH 13 0
BBX 11 12 1 -2
BITMAP
1F00
1100
1100
1100
21E0
C000
3F80
1100
0A00
0400
1B00
E0E0
ENDCHAR
STARTCHAR U_2F4F
ENCODING 12111
SWIDTH 1000 0
DWIDTH 13 0
BBX 11 12 1 -2
BITMAP
0080
3FC0
2480
2480
2480
FFE0
4480
4480
7FE0
0880
1080
2300
ENDCHAR
STARTCHAR U_2F50
ENCODING 12112
SWIDTH 1000 0
DWIDTH 13 0
BBX 12 12 0 -1
BITMAP
2100
2100
2110
2120
3D40
2180
2100
2100
2100
2D10
F110
40F0
ENDCHAR
STARTCHAR U_2F51
ENCODING 12113
SWIDTH 1000 0
DWIDTH 13 0
BBX 11 12 1 -2
BITMAP
0180
0600
F800
0980
0E00
F800
0860
0F80
F800
0820
0820
07E0
ENDCHAR
STARTCHAR U_2F52
ENCODING 12114
SWIDTH 1000 0
DWIDTH 13 0
BBX 11 12 1 -2
BITMAP
0180
7E00
4400
4400
4440
7FE0
4400
4400
4200
4220
7120
C0E0
ENDCHAR
STARTCHAR U_2F53
ENCODING 12115
SWIDTH 1000 0
DWIDTH 13 0
BBX 11 12 1 -2
BITMAP
2040
3FE0
4000
5F80
8000
7F80
0080
0080
00A0
00A0
0060
0020
ENDCHAR
STARTCHAR U_2F54
ENCODING 12116
SWIDTH 1000 0
DWIDTH 13 0
BBX 12 12 0 -1
BITMAP
0200
0200
0200
0260
7E40
0B80
0B00
0A80
1280
2A40
4630
8410
ENDCHAR
STARTCHAR U_2F55
ENCODING 12117
SWIDTH 1000 0
DWIDTH 13 0
BBX 12 12 0 -1
BITMAP
0200
0200
0260
2240
2280
2300
4200
0500
0480
0860
3030
C010
ENDCHAR
STARTCHAR U_2F56
ENCODING 12118
SWIDTH 1000 0
DWIDTH 13 0
BBX 12 12 0 -1
BITMAP
0060
1F80
1280
1280
1280
1240
1240
1240
2220
2220
4210
8210
ENDCHAR
STARTCHAR U_2F57
ENCODING 12119
SWIDTH 1000 0
DWIDTH 13 0
BBX 11 12 1 -2
BITMAP
1100
1080
2040
4120
9120
1200
1200
0C00
0400
0A00
3180
C060
ENDCHAR
STARTCHAR U_2F58
ENCODING 12120
SWIDTH 1000 0
DWIDTH 13 0
BBX 11 12 1 -2
BITMAP
2080
1100
0E00
3180
4040
1100
1200
0A00
0400
0C00
1300
E0E0
ENDCHAR
STARTCHAR U_2F59
ENCODING 12121
SWIDTH 1000 0
DWIDTH 13 0
BBX 8 12 2 -2
BITMAP
21
21
21
3F
01
01
FF
21
21
21
41
81
ENDCHAR
STARTCHAR U_2F5A
ENCODING 12122
SWIDTH 1000 0
DWIDTH 13 0
BBX 12 12 0 -1
BITMAP
1100
1100
1100
1FF0
1000
1000
1F80
1080
1080
1080
2080
C080
ENDCHAR
STARTCHAR U_2F5B
ENCODING 12123
SWIDTH 1000 0
DWIDTH 13 0
BBX 12 12 0 -1
BITMAP
FFF0
0100
2100
4100
FFF0
0100
0900
0900
1100
2900
4700
8200
ENDCHAR
STARTCHAR U_2F5C
ENCODING 12124
SWIDTH 1000 0
DWIDTH 13 0
BBX 12 12 0 -1
BITMAP
0200
2200
2240
3FE0
4200
8200
0220
7FF0
0200
0200
0200
0200
ENDCHAR
STARTCHAR U_2F5D
ENCODING 12125
SWIDTH 1000 0
DWIDTH 13 0
BBX 11 12 1 -2
BITMAP
0400
0500
0480
0400
FFE0
0400
0A00
0A00
1100
2080
4040
8020
ENDCHAR
STARTCHAR U_2F5E
ENCODING 12126
SWIDTH 1000 0
DWIDTH 13 0
BBX 11 12 1 -2
BITMAP
0800
0400
FFE0
0400
0800
1100
3E00
0400
0800
1080
2080
7F40
ENDCHAR
STARTCHAR U_2F5F
ENCODING 12127
SWIDTH 1000 0
DWIDTH 13 0
BBX 11 12 1 -2
BITMAP
FFE0
0400
0400
0400
0400
7FC0
0400
0480
0440
0440
0400
FFE0
ENDCHAR
STARTCHAR U_2F60
ENCODING 12128
SWIDTH 1000 0
DWIDTH 13 0
BBX 12 12 0 -1
BITMAP
00C0
3F80
2480
2480
2480
2480
2440
2440
2520
2520
4710
8C90
ENDCHAR
STARTCHAR U_2F61
ENCODING 12129
SWIDTH 1000 0
DWIDTH 13 0
BBX 12 12 0 -1
BITMAP
0020
FFF0
1000
1080
1FC0
1080
2480
2280
4100
4D10
F110
40F0
ENDCHAR
STARTCHAR U_2F62
ENCODING 12130
SWIDTH 1000 0
DWIDTH 13 0
BBX 12 12 0 -1
BITMAP
2080
2080
2080
FFF0
2080
2080
3F80
2080
2080
2080
3F80
2080
ENDCHAR
STARTCHAR U_2F63
ENCODING 12131
SWIDTH 1000 0
DWIDTH 13 0
BBX 12 12 0 -1
BITMAP
0200
4200
4200
7FE0
4200
8200
0200
3FE0
0200
0200
0200
FFF0
ENDCHAR
STARTCHAR U_2F64
ENCODING 12132
SWIDTH 1000 0
DWIDTH 13 0
BBX 12 12 0 -1
BITMAP
3FF0
2210
2210
3FF0
2210
2210
3FF0
2210
2210
4290
4270
8220
ENDCHAR
STARTCHAR U_2F65
ENCODING 12133
SWIDTH 1000 0
DWIDTH 13 0
BBX 12 12 0 -1
BITMAP
8020
FFF0
8420
8420
8420
FFE0
8420
8420
8420
8420
FFE0
8020
ENDCHAR
STARTCHAR U_2F66
ENCODING 12134
SWIDTH 1000 0
DWIDTH 13 0
BBX 11 12 1 -2
BITMAP
FFE0
0440
0480
0400
2400
27C0
2400
2400
2400
2400
5400
8FE0
ENDCHAR
STARTCHAR U_2F67
ENCODING 12135
SWIDTH 1000 0
DWIDTH 13 0
BBX 12 12 0 -1
BITMAP
0100
1FF0
9000
5000
1000
3000
5000
9000
1000
2000
4000
8000
ENDCHAR
STARTCHAR U_2F68
ENCODING 12136
SWIDTH 1000 0
DWIDTH 13 0
BBX 12 7 0 3
BITMAP
0220
7F40
4490
28A0
1040
2020
C010
ENDCHAR
STARTCHAR U_2F69
ENCODING 12137
SWIDTH 1000 0
DWIDTH 13 0
BBX 11 12 1 -2
BITMAP
0C00
8840
FFE0
8040
8040
8040
FFC0
8040
8040
8040
FFC0
8040
ENDCHAR
STARTCHAR U_2F6A
ENCODING 12138
SWIDTH 1000 0
DWIDTH 13 0
BBX 12 12 0 -1
BITMAP
0200
3FF0
2220
2200
2200
3FC0
2880
2480
2500
2300
4680
B870
ENDCHAR
STARTCHAR U_2F6B
ENCODING 12139
SWIDTH 1000 0
DWIDTH 13 0
BBX 12 12 0 -1
BITMAP
0020
7FF0
4920
4920
4920
4920
4920
4920
4920
4920
4920
FFF0
ENDCHAR
STARTCHAR U_2F6C
ENCODING 12140
SWIDTH 1000 0
DWIDTH 13 0
BBX 9 12 1 -2
BITMAP
FF80
8080
8080
8080
FF80
8080
8080
FF80
8080
8080
FF80
8080
ENDCHAR
STARTCHAR U_2F6D
ENCODING 12141
SWIDTH 1000 0
DWIDTH 13 0
BBX 11 12 1 -2
BITMAP
7FC0
0080
0900
0600
FFE0
0240
0680
0A00
1200
2200
4E00
0200
ENDCHAR
STARTCHAR U_2F6E
ENCODING 12142
SWIDTH 1000 0
DWIDTH 13 0
BBX 11 12 1 -2
BITMAP
2000
2000
3FC0
4400
0400
0400
FFE0
0A00
1100
2080
4040
8020
ENDCHAR
STARTCHAR U_2F6F
ENCODING 12143
SWIDTH 1000 0
DWIDTH 13 0
BBX 12 12 0 -1
BITMAP
0020
FFF0
0400
0400
0820
1FF0
3020
5020
9020
1020
1FE0
1020
ENDCHAR
STARTCHAR U_2F70
ENCODING 12144
SWIDTH 1000 0
DWIDTH 13 0
BBX 12 12 0 -1
BITMAP
0080
3FC0
0000
0020
FFF0
0200
1240
1240
2220
2220
4E10
8410
ENDCHAR
STARTCHAR U_2F71
ENCODING 12145
SWIDTH 1000 0
DWIDTH 13 0
BBX 9 12 2 -2
BITMAP
0800
0800
FF80
8880
9080
9080
A480
A280
BE80
8280
8080
8380
ENDCHAR
STARTCHAR U_2F72
ENCODING 12146
SWIDTH 1000 0
DWIDTH 13 0
BBX 12 12 0 -1
BITMAP
00E0
3F00
0200
0220
FFF0
0200
0A80
0A80
1240
2220
4230
8210
ENDCHAR
STARTCHAR U_2F73
ENCODING 12147
SWIDTH 1000 0
DWIDTH 13 0
BBX 11 12 1 -2
BITMAP
0800
0400
FFE0
8020
8220
1200
1200
2100
2100
4080
4040
8020
ENDCHAR
STARTCHAR U_2F74
ENCODING 12148
SWIDTH 1000 0
DWIDTH 13 0
BBX 11 12 1 -2
BITMAP
0800
0400
FFC0
0000
2100
2100
1100
1200
1200
0400
0400
FFE0
ENDCHAR
STARTCHAR U_2F75
ENCODING 12149
SWIDTH 1000 0
DWIDTH 13 0
BBX 12 12 0 -1
BITMAP
2100
2100
2100
3DF0
5240
9440
1040
1040
1040
1040
11C0
1080
ENDCHAR
STARTCHAR U_2F76
ENCODING 12150
SWIDTH 1000 0
DWIDTH 13 0
BBX 12 12 0 -1
BITMAP
0200
2260
1A40
0A80
7FF0
0200
0200
0700
0A80
1260
2230
C210
ENDCHAR
STARTCHAR U_2F77
ENCODING 12151
SWIDTH 1000 0
DWIDTH 13 0
BBX 12 12 0 -1
BITMAP
0C00
0980
1100
3E00
0480
0840
7FA0
0220
1A80
1240
2230
C210
ENDCHAR
STARTCHAR U_2F78
ENCODING 12152
SWIDTH 1000 0
DWIDTH 13 0
BBX 12 12 0 -1
BITMAP
1000
1040
1FE0
2200
0200
FFF0
0200
2220
2220
2220
3FE0
2020
ENDCHAR
STARTCHAR U_2F79
ENCODING 12153
SWIDTH 1000 0
DWIDTH 13 0
BBX 11 12 1 -2
BITMAP
FFE0
8020
88A0
C8A0
AAA0
9120
8AA0
A8A0
C8A0
8020
8020
80E0
ENDCHAR
STARTCHAR U_2F7A
ENCODING 12154
SWIDTH 1000 0
DWIDTH 13 0
BBX 12 12 0 -1
BITMAP
1040
0880
7FF0
0200
0200
3FE0
0200
0200
FFF0
0200
0200
0200
ENDCHAR
STARTCHAR U_2F7B
ENCODING 12155
SWIDTH 1000 0
DWIDTH 13 0
BBX 12 12 0 -1
BITMAP
FDF0
0410
4510
2490
2490
0410
1C70
E790
4510
0410
1C70
0820
ENDCHAR
STARTCHAR U_2F7C
ENCODING 12156
SWIDTH 1000 0
DWIDTH 13 0
BBX 12 12 0 -1
BITMAP
0400
7FA0
0440
0480
FFF0
0200
0C00
1860
2980
CE10
0810
07F0
ENDCHAR
STARTCHAR U_2F7D
ENCODING 12157
SWIDTH 1000 0
DWIDTH 13 0
BBX 12 12 0 -1
BITMAP
FFF0
0200
0400
7FE0
4920
4920
4920
4920
4920
4920
4920
4060
ENDCHAR
STARTCHAR U_2F7E
ENCODING 12158
SWIDTH 1000 0
DWIDTH 13 0
BBX 12 12 0 -1
BITMAP
0200
7FF0
0200
3FE0
0200
FFF0
0200
0A80
0A80
1260
2230
C210
ENDCHAR
STARTCHAR U_2F7F
ENCODING 12159
SWIDTH 1000 0
DWIDTH 13 0
BBX 12 12 0 -1
BITMAP
7FF0
1080
1080
1F80
1080
1080
1F80
1080
1080
13F0
FC80
0080
ENDCHAR
STARTCHAR U_2F80
ENCODING 12160
SWIDTH 1000 0
DWIDTH 13 0
BBX 11 12 1 -2
BITMAP
0400
3F80
0480
FFE0
0480
3F80
0400
7FC0
0400
FFE0
0400
0400
ENDCHAR
STARTCHAR U_2F81
ENCODING 12161
SWIDTH 1000 0
DWIDTH 13 0
BBX 11 12 1 -2
BITMAP
0400
8440
FFE0
8440
8A40
9140
A440
8440
8A40
9140
A040
81C0
ENDCHAR
STARTCHAR U_2F82
ENCODING 12162
SWIDTH 1000 0
DWIDTH 13 0
BBX 10 12 2 -2
BITMAP
0080
FFC0
8800
8800
FF80
8080
8080
FF80
8880
8800
8880
FFC0
ENDCHAR
STARTCHAR U_2F83
ENCODING 12163
SWIDTH 1000 0
DWIDTH 13 0
BBX 10 12 1 -2
BITMAP
1800
9080
FFC0
8080
8080
FF80
8080
8080
FF80
8080
8080
FF80
ENDCHAR
STARTCHAR U_2F84
ENCODING 12164
SWIDTH 1000 0
DWIDTH 13 0
BBX 12 12 0 -1
BITMAP
0020
FFF0
0400
0840
1020
7FF0
2210
0200
7FE0
0200
0220
FFF0
ENDCHAR
STARTCHAR U_2F85
ENCODING 12165
SWIDTH 1000 0
DWIDTH 13 0
BBX 10 12 1 -2
BITMAP
0800
1000
E3C0
8040
8040
8040
FBC0
8040
8040
8040
FFC0
8040
ENDCHAR
STARTCHAR U_2F86
ENCODING 12166
SWIDTH 1000 0
DWIDTH 13 0
BBX 12 12 0 -1
BITMAP
01C0
7E00
0200
0220
FFF0
0200
0200
3FC0
2040
2040
3FC0
2040
ENDCHAR
STARTCHAR U_2F87
ENCODING 12167
SWIDTH 1000 0
DWIDTH 13 0
BBX 12 12 0 -1
BITMAP
1040
1040
1DF0
1440
2540
6540
9D40
07F0
0840
1040
2040
4040
ENDCHAR
STARTCHAR U_2F88
ENCODING 12168
SWIDTH 1000 0
DWIDTH 13 0
BBX 12 12 0 -1
BITMAP
0C00
2840
3FE0
2440
2240
2040
FFF0
2440
2240
2240
41C0
8080
ENDCHAR
STARTCHAR U_2F89
ENCODING 12169
SWIDTH 1000 0
DWIDTH 13 0
BBX 12 12 0 -1
BITMAP
2040
3FE0
2040
3FC0
2040
3FD0
2420
2240
2180
2C80
3070
E020
ENDCHAR
STARTCHAR U_2F8A
ENCODING 12170
SWIDTH 1000 0
DWIDTH 13 0
BBX 12 12 0 -1
BITMAP
1100
1F80
2100
3FE0
6220
A220
3FE0
2020
2000
2010
2010
1FF0
ENDCHAR
STARTCHAR U_2F8B
ENCODING 12171
SWIDTH 1000 0
DWIDTH 13 0
BBX 11 12 1 -2
BITMAP
2080
2080
AAA0
AAA0
AAA0
AAA0
AAA0
FBE0
AAA0
2080
4080
8080
ENDCHAR
STARTCHAR U_2F8C
ENCODING 12172
SWIDTH 1000 0
DWIDTH 13 0
BBX 12 12 0 -1
BITMAP
0200
03F0
0200
3FF0
2020
2200
2260
3F80
2200
2210
4210
81F0
ENDCHAR
STARTCHAR U_2F8D
ENCODING 12173
SWIDTH 1000 0
DWIDTH 13 0
BBX 11 12 1 -2
BITMAP
0400
0400
0400
7FC0
4440
4440
7FC0
4440
0400
0480
07C0
FC20
ENDCHAR
STARTCHAR U_2F8E
ENCODING 12174
SWIDTH 1000 0
DWIDTH 13 0
BBX 11 11 1 -1
BITMAP
0C00
0800
7FC0
4A40
4A40
4A40
4A40
4A40
4A40
4A40
FFE0
ENDCHAR
STARTCHAR U_2F8F
ENCODING 12175
SWIDTH 1000 0
DWIDTH 13 0
BBX 12 12 0 -1
BITMAP
33E0
2000
4000
9800
17F0
2040
6040
A040
2040
2240
21C0
2080
ENDCHAR
STARTCHAR U_2F90
ENCODING 12176
SWIDTH 1000 0
DWIDTH 13 0
BBX 12 12 0 -1
BITMAP
0600
0220
FFF0
0200
0510
0920
1940
2880
C840
0920
0A30
1C10
ENDCHAR
STARTCHAR U_2F91
ENCODING 12177
SWIDTH 1000 0
DWIDTH 13 0
BBX 11 12 1 -2
BITMAP
FFE0
0900
0900
7FC0
4940
4940
4940
4F40
4940
4040
4040
4040
ENDCHAR
STARTCHAR U_2F92
ENCODING 12178
SWIDTH 1000 0
DWIDTH 13 0
BBX 12 12 0 -1
BITMAP
3FC0
2040
3FC0
2040
3FC0
2040
3FC0
2940
0900
0910
1110
E0F0
ENDCHAR
STARTCHAR U_2F93
ENCODING 12179
SWIDTH 1000 0
DWIDTH 13 0
BBX 12 12 0 -1
BITMAP
1000
1F80
2100
7FF0
A210
3FF0
2210
3FF0
2210
2210
42F0
8220
ENDCHAR
STARTCHAR U_2F94
ENCODING 12180
SWIDTH 1000 0
DWIDTH 13 0
BBX 12 12 0 -1
BITMAP
0600
0220
FFF0
0000
3FC0
0000
3FC0
0000
3FC0
2040
3FC0
2040
ENDCHAR
STARTCHAR U_2F95
ENCODING 12181
SWIDTH 1000 0
DWIDTH 13 0
BBX 11 12 1 -2
BITMAP
1900
1080
2460
CA20
1100
2080
4040
BFA0
2080
2080
3F80
2080
ENDCHAR
STARTCHAR U_2F96
ENCODING 12182
SWIDTH 1000 0
DWIDTH 13 0
BBX 12 12 0 -1
BITMAP
7FE0
0000
0000
3FC0
2040
2040
3FC0
0000
2040
1880
0900
FFF0
ENDCHAR
STARTCHAR U_2F97
ENCODING 12183
SWIDTH 1000 0
DWIDTH 13 0
BBX 12 12 0 -1
BITMAP
FFF0
0400
0820
1440
2480
CB00
3300
C680
0A40
3220
CA10
0410
ENDCHAR
STARTCHAR U_2F98
ENCODING 12184
SWIDTH 1000 0
DWIDTH 13 0
BBX 9 12 2 -2
BITMAP
0600
0800
3580
D200
0C00
3600
CA00
1300
E500
1900
E900
0600
ENDCHAR
STARTCHAR U_2F99
ENCODING 12185
SWIDTH 1000 0
DWIDTH 13 0
BBX 12 12 0 -1
BITMAP
3FC0
2040
2040
3FC0
2040
3FC0
2040
2040
3FC0
0900
30C0
C030
ENDCHAR
STARTCHAR U_2F9A
ENCODING 12186
SWIDTH 1000 0
DWIDTH 13 0
BBX 11 12 1 -2
BITMAP
0400
0400
7FC0
0400
FFE0
0900
4900
4940
9120
1120
2700
4100
ENDCHAR
STARTCHAR U_2F9B
ENCODING 12187
SWIDTH 1000 0
DWIDTH 13 0
BBX 12 12 0 -1
BITMAP
0200
3FE0
0200
0200
FFF0
0200
1200
13E0
1200
1200
2A00
47F0
ENDCHAR
STARTCHAR U_2F9C
ENCODING 12188
SWIDTH 1000 0
DWIDTH 13 0
BBX 12 12 0 -1
BITMAP
3FC0
2040
2040
2040
3FC0
0200
1200
13E0
1200
2A00
4600
81F0
ENDCHAR
STARTCHAR U_2F9D
ENCODING 12189
SWIDTH 1000 0
DWIDTH 13 0
BBX 11 12 1 -2
BITMAP
0800
3F80
2080
3F80
20A0
3FC0
2080
FF80
0280
0C80
3380
C100
ENDCHAR
STARTCHAR U_2F9E
ENCODING 12190
SWIDTH 1000 0
DWIDTH 13 0
BBX 11 12 1 -2
BITMAP
0400
FFE0
0400
7FC0
4440
7FC0
4440
7FC0
0400
FFE0
0400
0400
ENDCHAR
STARTCHAR U_2F9F
ENCODING 12191
SWIDTH 1000 0
DWIDTH 13 0
BBX 11 12 1 -2
BITMAP
0C00
0400
7FC0
1100
0A00
FFE0
0400
0400
7FC0
0400
0400
0400
ENDCHAR
STARTCHAR U_2FA0
ENCODING 12192
SWIDTH 1000 0
DWIDTH 13 0
BBX 12 12 0 -1
BITMAP
3FF0
2000
2FE0
2000
3FF0
2900
2920
2940
2880
2840
4E20
8810
ENDCHAR
STARTCHAR U_2FA1
ENCODING 12193
SWIDTH 1000 0
DWIDTH 13 0
BBX 12 12 0 -1
BITMAP
03C0
1C00
03C0
1C00
03C0
3C00
0200
13E0
1200
2A00
4600
81F0
ENDCHAR
STARTCHAR U_2FA2
ENCODING 12194
SWIDTH 1000 0
DWIDTH 13 0
BBX 10 12 2 -2
BITMAP
FF00
8100
FF00
0000
FF00
8900
8900
FF00
8100
8040
8040
7FC0
ENDCHAR
STARTCHAR U_2FA3
ENCODING 12195
SWIDTH 1000 0
DWIDTH 13 0
BBX 12 12 0 -1
BITMAP
FFF0
0900
0900
7FE0
4920
4920
71E0
4020
7FE0
4020
7FE0
4020
ENDCHAR
STARTCHAR U_2FA4
ENCODING 12196
SWIDTH 1000 0
DWIDTH 13 0
BBX 12 12 0 -1
BITMAP
00C0
7F00
0240
2240
1280
FFF0
0200
0B00
0A80
1260
2230
C210
ENDCHAR
STARTCHAR U_2FA5
ENCODING 12197
SWIDTH 1000 0
DWIDTH 13 0
BBX 12 12 0 -1
BITMAP
3FC0
2240
2240
3FC0
2240
3FC0
2240
0200
7FE0
0200
0220
FFF0
ENDCHAR
STARTCHAR U_2FA6
ENCODING 12198
SWIDTH 1000 0
DWIDTH 13 0
BBX 12 12 0 -1
BITMAP
0600
0900
30C0
C030
3FC0
0200
0200
7FE0
2220
1240
1280
FFF0
ENDCHAR
STARTCHAR U_2FA7
ENCODING 12199
SWIDTH 1000 0
DWIDTH 13 0
BBX 12 12 0 -1
BITMAP
1FE0
1000
1FC0
1000
1FC0
1000
FFF0
1220
1140
1080
1670
7820
ENDCHAR
STARTCHAR U_2FA8
ENCODING 12200
SWIDTH 1000 0
DWIDTH 13 0
BBX 12 12 0 -1
BITMAP
F9F0
8910
F9F0
8910
F9F0
8910
8010
8010
8010
8090
8070
8020
ENDCHAR
STARTCHAR U_2FA9
ENCODING 12201
SWIDTH 1000 0
DWIDTH 13 0
BBX 11 12 1 -2
BITMAP
0800
7F80
4080
7F80
4000
7FC0
4040
7FC0
0400
FFE0
0400
0400
ENDCHAR
STARTCHAR U_2FAA
ENCODING 12202
SWIDTH 1000 0
DWIDTH 13 0
BBX 11 12 1 -2
BITMAP
0400
7F80
0480
FFE0
0480
7F80
4440
2680
0D00
1480
E460
0C00
ENDCHAR
STARTCHAR U_2FAB
ENCODING 12203
SWIDTH 1000 0
DWIDTH 13 0
BBX 11 12 1 -2
BITMAP
1400
2200
3FE0
6200
A200
3FC0
2200
2200
3FC0
2200
2200
3FE0
ENDCHAR
STARTCHAR U_2FAC
ENCODING 12204
SWIDTH 1000 0
DWIDTH 13 0
BBX 12 12 0 -1
BITMAP
FFF0
0200
0200
7FF0
4210
5290
4A50
4210
5290
4A50
4210
4270
ENDCHAR
STARTCHAR U_2FAD
ENCODING 12205
SWIDTH 1000 0
DWIDTH 13 0
BBX 11 12 1 -2
BITMAP
0400
FFE0
0400
3F80
0400
FFE0
0000
3F80
2480
3F80
2080
2180
ENDCHAR
STARTCHAR U_2FAE
ENCODING 12206
SWIDTH 1000 0
DWIDTH 13 0
BBX 12 12 0 -1
BITMAP
0900
0900
F9F0
0900
0900
79E0
0900
0900
F9F0
0900
0900
0900
ENDCHAR
STARTCHAR U_2FAF
ENCODING 12207
SWIDTH 1000 0
DWIDTH 13 0
BBX 12 12 0 -1
BITMAP
FFF0
0200
4420
7FF0
4920
4F20
4920
4920
4F20
4920
7FE0
4020
ENDCHAR
STARTCHAR U_2FB0
ENCODING 12208
SWIDTH 1000 0
DWIDTH 13 0
BBX 12 12 0 -1
BITMAP
1080
FFF0
1080
1F80
0200
3FC0
2240
3FC0
0200
FFF0
0200
0200
ENDCHAR
STARTCHAR U_2FB1
ENCODING 12209
SWIDTH 1000 0
DWIDTH 13 0
BBX 11 12 1 -2
BITMAP
0800
7F00
1100
FFE0
2080
3F80
0400
FFC0
2400
7FC0
0400
0400
ENDCHAR
STARTCHAR U_2FB2
ENCODING 12210
SWIDTH 1000 0
DWIDTH 13 0
BBX 11 12 1 -2
BITMAP
1200
1200
F3E0
1200
1200
F3C0
1200
1200
F3E0
1200
1200
FFE0
ENDCHAR
STARTCHAR U_2FB3
ENCODING 12211
SWIDTH 1000 0
DWIDTH 13 0
BBX 12 12 0 -1
BITMAP
0200
7FE0
1080
0900
FFF0
0000
3FC0
2040
3FC0
2040
3FC0
2040
ENDCHAR
STARTCHAR U_2FB4
ENCODING 12212
SWIDTH 1000 0
DWIDTH 13 0
BBX 12 12 0 -1
BITMAP
FFF0
0400
3FC0
2040
3FC0
2040
3FC0
2040
3FC0
0900
30C0
C030
ENDCHAR
STARTCHAR U_2FB5
ENCODING 12213
SWIDTH 1000 0
DWIDTH 13 0
BBX 12 12 0 -1
BITMAP
3FE0
20A0
2F20
2220
2FA0
2AA0
2AA0
2FA0
2220
22A0
4290
9F50
ENDCHAR
STARTCHAR U_2FB6
ENCODING 12214
SWIDTH 1000 0
DWIDTH 13 0
BBX 12 12 0 -1
BITMAP
FF80
10A0
64C0
24A0
2450
FFB0
24A0
24C0
24A0
2480
4450
8430
ENDCHAR
STARTCHAR U_2FB7
ENCODING 12215
SWIDTH 1000 0
DWIDTH 13 0
BBX 11 12 1 -2
BITMAP
0400
0A00
1900
2480
FFE0
2080
3F80
2080
3F80
2500
2200
39C0
ENDCHAR
STARTCHAR U_2FB8
ENCODING 12216
SWIDTH 1000 0
DWIDTH 13 0
BBX 12 12 0 -1
BITMAP
2180
1100
FFF0
0400
7FC0
4040
7FC0
4040
7FC0
4040
7FC0
4040
ENDCHAR
STARTCHAR U_2FB9
ENCODING 12217
SWIDTH 1000 0
DWIDTH 13 0
BBX 12 12 0 -1
BITMAP
00C0
7F00
0200
FFF0
1240
2220
FFD0
2040
3FC0
2040
3FC0
2040
ENDCHAR
STARTCHAR U_2FBA
ENCODING 12218
SWIDTH 1000 0
DWIDTH 13 0
BBX 12 12 0 -1
BITMAP
3FE0
2200
2200
3FC0
2200
3FC0
2200
3FF0
1510
4A90
4A90
8060
ENDCHAR
STARTCHAR U_2FBB
ENCODING 12219
SWIDTH 1000 0
DWIDTH 13 0
BBX 11 12 1 -2
BITMAP
3F80
2080
2780
2480
FFE0
A0A0
BFA0
2080
3F80
2080
2080
2380
ENDCHAR
STARTCHAR U_2FBC
ENCODING 12220
SWIDTH 1000 0
DWIDTH 13 0
BBX 12 12 0 -1
BITMAP
0200
FFF0
0000
1FC0
1040
1FC0
0000
7FF0
4010
4F90
4890
4FB0
ENDCHAR
STARTCHAR U_2FBD
ENCODING 12221
SWIDTH 1000 0
DWIDTH 13 0
BBX 12 12 0 -1
BITMAP
7E20
4040
7C80
4110
7C20
4040
FE80
2110
4820
8840
F480
0300
ENDCHAR
STARTCHAR U_2FBE
ENCODING 12222
SWIDTH 1000 0
DWIDTH 13 0
BBX 11 12 1 -2
BITMAP
BBA0
9120
BBA0
9120
BBA0
8020
8020
8020
8020
8020
80E0
8020
ENDCHAR
STARTCHAR U_2FBF
ENCODING 12223
SWIDTH 1000 0
DWIDTH 13 0
BBX 9 12 2 -2
BITMAP
0800
AA80
D480
AD80
BA80
C480
FF80
4000
4E00
7080
4080
3F80
ENDCHAR
STARTCHAR U_2FC0
ENCODING 12224
SWIDTH 1000 0
DWIDTH 13 0
BBX 11 12 1 -2
BITMAP
FFE0
0000
3F80
2080
3F80
0000
7FC0
4A40
5F40
4440
4440
44C0
ENDCHAR
STARTCHAR U_2FC1
ENCODING 12225
SWIDTH 1000 0
DWIDTH 13 0
BBX 11 12 1 -2
BITMAP
0800
1000
7FC0
4440
7FC0
4440
7FC0
5480
1540
17C0
2420
C7E0
ENDCHAR
STARTCHAR U_2FC2
ENCODING 12226
SWIDTH 1000 0
DWIDTH 13 0
BBX 11 12 1 -2
BITMAP
0800
1F00
2200
7FC0
A440
3FC0
2440
3FC0
2040
5240
4920
8920
ENDCHAR
STARTCHAR U_2FC3
ENCODING 12227
SWIDTH 1000 0
DWIDTH 13 0
BBX 11 12 1 -2
BITMAP
0800
3F80
2080
3F80
2080
3FE0
2000
3FE0
0020
5520
4AA0
8AC0
ENDCHAR
STARTCHAR U_2FC4
ENCODING 12228
SWIDTH 1000 0
DWIDTH 13 0
BBX 9 12 2 -2
BITMAP
1000
1F80
1000
FF80
D180
AA80
D480
A980
9480
AA80
C580
FF80
ENDCHAR
STARTCHAR U_2FC5
ENCODING 12229
SWIDTH 1000 0
DWIDTH 13 0
BBX 11 12 1 -2
BITMAP
0400
7FE0
4900
7FE0
4920
7FE0
5100
5120
5DC0
5120
9D20
91E0
ENDCHAR
STARTCHAR U_2FC6
ENCODING 12230
SWIDTH 1000 0
DWIDTH 13 0
BBX 12 12 0 -1
BITMAP
0220
FFF0
2240
2240
57A0
8A90
3440
CFB0
1080
2900
0680
F860
ENDCHAR
STARTCHAR U_2FC7
ENCODING 12231
SWIDTH 1000 0
DWIDTH 13 0
BBX 12 12 0 -1
BITMAP
0200
7FF0
4880
4880
7FF0
4880
5DA0
6AA0
4AA0
4AA0
48B0
8880
ENDCHAR
STARTCHAR U_2FC8
ENCODING 12232
SWIDTH 1000 0
DWIDTH 13 0
BBX 11 12 1 -2
BITMAP
1100
FFE0
1100
1F00
0000
FFE0
2480
3F80
2480
3F80
0900
70E0
ENDCHAR
STARTCHAR U_2FC9
ENCODING 12233
SWIDTH 1000 0
DWIDTH 13 0
BBX 12 12 0 -1
BITMAP
00C0
3F00
0200
FFF0
0A80
3640
CB30
32C0
0AB0
0700
1AC0
6630
ENDCHAR
STARTCHAR U_2FCA
ENCODING 12234
SWIDTH 1000 0
DWIDTH 13 0
BBX 11 12 1 -2
BITMAP
7FC0
4440
64C0
5540
7FC0
0400
7FC0
0400
FFE0
5240
8920
8920
ENDCHAR
STARTCHAR U_2FCB
ENCODING 12235
SWIDTH 1000 0
DWIDTH 13 0
BBX 11 12 1 -2
BITMAP
4A40
2A80
2A80
FFE0
4440
FFE0
4440
4E40
5540
64C0
4440
44C0
ENDCHAR
STARTCHAR U_2FCC
ENCODING 12236
SWIDTH 1000 0
DWIDTH 13 0
BBX 11 12 1 -2
BITMAP
FFC0
9240
9240
F3C0
1200
F3C0
9240
F3C0
9240
F3C0
1220
1FE0
ENDCHAR
STARTCHAR U_2FCD
ENCODING 12237
SWIDTH 1000 0
DWIDTH 13 0
BBX 11 12 1 -2
BITMAP
1F00
5140
5F40
5140
5F40
5140
7FC0
0A00
FBE0
4A40
4A40
8A40
ENDCHAR
STARTCHAR U_2FCE
ENCODING 12238
SWIDTH 1000 0
DWIDTH 13 0
BBX 11 12 1 -2
BITMAP
2080
F880
27E0
F880
0080
FFE0
8A40
FA40
8980
5080
2140
FA20
ENDCHAR
STARTCHAR U_2FCF
ENCODING 12239
SWIDTH 1000 0
DWIDTH 13 0
BBX 10 12 2 -2
BITMAP
F780
8080
F780
8080
FF80
0000
CD00
AB00
CD00
AB40
CCC0
8840
ENDCHAR
STARTCHAR U_2FD0
ENCODING 12240
SWIDTH 1000 0
DWIDTH 13 0
BBX 11 12 1 -2
BITMAP
0800
3F80
2080
3F80
2080
7FC0
4440
7FC0
4440
FFE0
1100
6100
ENDCHAR
STARTCHAR U_2FD1
ENCODING 12241
SWIDTH 1000 0
DWIDTH 13 0
BBX 11 12 1 -2
BITMAP
0400
FFE0
0A40
F580
5540
55A0
A480
3F80
2080
3F80
2080
C080
ENDCHAR
STARTCHAR U_2FD2
ENCODING 12242
SWIDTH 1000 0
DWIDTH 13 0
BBX 11 12 1 -2
BITMAP
0400
27C0
2400
FFE0
5140
6AC0
4440
7FC0
5140
6AC0
4440
7FC0
ENDCHAR
STARTCHAR U_2FD3
ENCODING 12243
SWIDTH 1000 0
DWIDTH 13 0
BBX 12 12 0 -1
BITMAP
1100
FFF0
4500
29F0
FE10
45F0
7D00
45E0
7D00
45E0
4510
4DF0
ENDCHAR
STARTCHAR U_2FD4
ENCODING 12244
SWIDTH 1000 0
DWIDTH 13 0
BBX 11 12 1 -2
BITMAP
3F00
2100
FFC0
4A40
7BC0
2B40
FAC0
2B40
FAC0
2BE0
F820
07E0
ENDCHAR
STARTCHAR U_2FD5
ENCODING 12245
SWIDTH 1000 0
DWIDTH 13 0
BBX 11 12 1 -2
BITMAP
0400
0A00
3180
DF60
0000
EEE0
AAA0
FFE0
8920
FFE0
8920
8960
ENDCHAR
STARTCHAR U_3000
ENCODING 12288
SWIDTH 1000 0
DWIDTH 13 0
BBX 1 1 12 -3
BITMAP
00
ENDCHAR
STARTCHAR U_3001
ENCODING 12289
SWIDTH 1000 0
DWIDTH 13 0
BBX 3 3 3 -1
BITMAP
80
60
20
ENDCHAR
STARTCHAR U_3002
ENCODING 12290
SWIDTH 1000 0
DWIDTH 13 0
BBX 4 4 3 -1
BITMAP
60
90
90
60
ENDCHAR
STARTCHAR U_3003
ENCODING 12291
SWIDTH 1000 0
DWIDTH 13 0
BBX 4 4 4 2
BITMAP
50
50
A0
A0
ENDCHAR
STARTCHAR U_3005
ENCODING 12293
SWIDTH 1000 0
DWIDTH 13 0
BBX 9 10 1 -1
BITMAP
1000
1F80
2080
2080
4100
4200
8200
0C00
0200
0100
ENDCHAR
STARTCHAR U_3008
ENCODING 12296
SWIDTH 1000 0
DWIDTH 13 0
BBX 3 12 8 -2
BITMAP
20
20
40
40
80
80
80
80
40
40
20
20
ENDCHAR
STARTCHAR U_3009
ENCODING 12297
SWIDTH 1000 0
DWIDTH 13 0
BBX 3 12 2 -2
BITMAP
80
80
40
40
20
20
20
20
40
40
80
80
ENDCHAR
STARTCHAR U_300A
ENCODING 12298
SWIDTH 1000 0
DWIDTH 13 0
BBX 5 12 7 -2
BITMAP
28
28
50
50
A0
A0
A0
A0
50
50
28
28
ENDCHAR
STARTCHAR U_300B
ENCODING 12299
SWIDTH 1000 0
DWIDTH 13 0
BBX 5 12 1 -2
BITMAP
A0
A0
50
50
28
28
28
28
50
50
A0
A0
ENDCHAR
STARTCHAR U_300C
ENCODING 12300
SWIDTH 1000 0
DWIDTH 13 0
BBX 5 9 7 1
BITMAP
F8
80
80
80
80
80
80
80
80
ENDCHAR
STARTCHAR U_300D
ENCODING 12301
SWIDTH 1000 0
DWIDTH 13 0
BBX 4 9 2 -2
BITMAP
10
10
10
10
10
10
10
10
F0
ENDCHAR
STARTCHAR U_300E
ENCODING 12302
SWIDTH 1000 0
DWIDTH 13 0
BBX 5 9 7 1
BITMAP
F8
88
B8
A0
A0
A0
A0
A0
E0
ENDCHAR
STARTCHAR U_300F
ENCODING 12303
SWIDTH 1000 0
DWIDTH 13 0
BBX 5 9 1 -2
BITMAP
38
28
28
28
28
28
E8
88
F8
ENDCHAR
STARTCHAR U_3010
ENCODING 12304
SWIDTH 1000 0
DWIDTH 13 0
BBX 4 12 7 -2
BITMAP
F0
E0
C0
C0
80
80
80
80
C0
C0
E0
F0
ENDCHAR
STARTCHAR U_3011
ENCODING 12305
SWIDTH 1000 0
DWIDTH 13 0
BBX 4 13 2 -3
BITMAP
F0
70
30
30
10
10
10
10
10
30
30
70
F0
ENDCHAR
STARTCHAR U_3012
ENCODING 12306
SWIDTH 1000 0
DWIDTH 13 0
BBX 11 10 1 -1
BITMAP
FFE0
0000
0000
FFE0
0400
0400
0400
0400
0400
0400
ENDCHAR
STARTCHAR U_3013
ENCODING 12307
SWIDTH 1000 0
DWIDTH 13 0
BBX 10 10 1 -1
BITMAP
FFC0
FFC0
FFC0
FFC0
0000
0000
FFC0
FFC0
FFC0
FFC0
ENDCHAR
STARTCHAR U_3014
ENCODING 12308
SWIDTH 1000 0
DWIDTH 13 0
BBX 3 12 8 -2
BITMAP
60
80
80
80
80
80
80
80
80
80
80
60
ENDCHAR
STARTCHAR U_3015
ENCODING 12309
SWIDTH 1000 0
DWIDTH 13 0
BBX 3 12 3 -2
BITMAP
C0
20
20
20
20
20
20
20
20
20
20
C0
ENDCHAR
STARTCHAR U_3016
ENCODING 12310
SWIDTH 1000 0
DWIDTH 13 0
BBX 6 12 5 -2
BITMAP
FC
88
90
A0
A0
A0
A0
A0
A0
90
88
FC
ENDCHAR
STARTCHAR U_3017
ENCODING 12311
SWIDTH 1000 0
DWIDTH 13 0
BBX 6 12 2 -2
BITMAP
FC
44
24
14
14
14
14
14
14
24
44
FC
ENDCHAR
STARTCHAR U_301D
ENCODING 12317
SWIDTH 1000 0
DWIDTH 13 0
BBX 4 2 8 7
BITMAP
A0
50
ENDCHAR
STARTCHAR U_301E
ENCODING 12318
SWIDTH 1000 0
DWIDTH 13 0
BBX 4 2 1 7
BITMAP
50
A0
ENDCHAR
STARTCHAR U_3021
ENCODING 12321
SWIDTH 1000 0
DWIDTH 13 0
BBX 1 12 6 -2
BITMAP
80
80
80
80
80
80
80
80
80
80
80
80
ENDCHAR
STARTCHAR U_3022
ENCODING 12322
SWIDTH 1000 0
DWIDTH 13 0
BBX 6 12 3 -2
BITMAP
04
04
84
84
84
84
84
84
84
04
04
04
ENDCHAR
STARTCHAR U_3023
ENCODING 12323
SWIDTH 1000 0
DWIDTH 13 0
BBX 9 12 2 -2
BITMAP
0080
8080
8880
8880
8880
8880
8880
8880
8880
8880
8080
0080
ENDCHAR
STARTCHAR U_3024
ENCODING 12324
SWIDTH 1000 0
DWIDTH 13 0
BBX 9 10 2 -1
BITMAP
0200
4200
2200
1200
0C00
0400
0A00
1100
2080
C080
ENDCHAR
STARTCHAR U_3025
ENCODING 12325
SWIDTH 1000 0
DWIDTH 13 0
BBX 8 12 3 -2
BITMAP
01
22
44
28
38
44
82
82
82
82
44
38
ENDCHAR
STARTCHAR U_3026
ENCODING 12326
SWIDTH 1000 0
DWIDTH 13 0
BBX 11 4 1 4
BITMAP
0800
0400
0400
FFE0
ENDCHAR
STARTCHAR U_3027
ENCODING 12327
SWIDTH 1000 0
DWIDTH 13 0
BBX 11 7 1 2
BITMAP
0800
0400
FFE0
0000
0000
0000
7FC0
ENDCHAR
STARTCHAR U_3028
ENCODING 12328
SWIDTH 1000 0
DWIDTH 13 0
BBX 11 11 1 -1
BITMAP
0800
0400
0400
FFE0
0000
0000
7FC0
0000
0000
0000
FFE0
ENDCHAR
STARTCHAR U_3029
ENCODING 12329
SWIDTH 1000 0
DWIDTH 13 0
BBX 10 12 2 -2
BITMAP
1000
0800
FF80
4100
4100
2200
2200
1400
0800
0C00
1200
E1C0
ENDCHAR
STARTCHAR U_3038
ENCODING 12344
SWIDTH 1000 0
DWIDTH 14 0
BBX 13 13 0 -1
BITMAP
0200
0200
0200
0200
0200
FFF8
0200
0200
0200
0200
0200
0200
0200
ENDCHAR
STARTCHAR U_3039
ENCODING 12345
SWIDTH 1000 0
DWIDTH 14 0
BBX 13 13 0 -1
BITMAP
1040
1040
1040
1040
1040
FFF8
1040
1040
1040
1040
1040
1040
1040
ENDCHAR
STARTCHAR U_303A
ENCODING 12346
SWIDTH 1000 0
DWIDTH 14 0
BBX 13 13 0 -1
BITMAP
1240
1240
1240
1240
1240
FFF8
1240
1240
1240
1240
2240
2240
4040
ENDCHAR
STARTCHAR U_3041
ENCODING 12353
SWIDTH 1000 0
DWIDTH 13 0
BBX 7 7 2 -2
BITMAP
20
78
28
7C
72
A2
44
ENDCHAR
STARTCHAR U_3042
ENCODING 12354
SWIDTH 1000 0
DWIDTH 13 0
BBX 9 11 1 -2
BITMAP
2000
1600
F800
2400
3E00
2500
6880
A880
9080
A100
4600
ENDCHAR
STARTCHAR U_3043
ENCODING 12355
SWIDTH 1000 0
DWIDTH 13 0
BBX 6 5 2 -1
BITMAP
40
48
84
A4
40
ENDCHAR
STARTCHAR U_3044
ENCODING 12356
SWIDTH 1000 0
DWIDTH 13 0
BBX 10 8 0 -1
BITMAP
8000
4300
4080
4040
4840
50C0
3040
1000
ENDCHAR
STARTCHAR U_3045
ENCODING 12357
SWIDTH 1000 0
DWIDTH 13 0
BBX 5 7 2 -2
BITMAP
40
30
70
88
08
10
20
ENDCHAR
STARTCHAR U_3046
ENCODING 12358
SWIDTH 1000 0
DWIDTH 13 0
BBX 7 12 2 -3
BITMAP
20
18
00
3C
C2
02
02
02
04
04
08
10
ENDCHAR
STARTCHAR U_3047
ENCODING 12359
SWIDTH 1000 0
DWIDTH 13 0
BBX 7 7 1 -2
BITMAP
20
10
7C
08
30
48
8E
ENDCHAR
STARTCHAR U_3048
ENCODING 12360
SWIDTH 1000 0
DWIDTH 13 0
BBX 9 11 1 -2
BITMAP
1000
0C00
0000
4E00
3200
0400
0800
1800
2400
4400
8380
ENDCHAR
STARTCHAR U_3049
ENCODING 12361
SWIDTH 1000 0
DWIDTH 13 0
BBX 7 7 2 -2
BITMAP
20
34
E2
38
64
A4
48
ENDCHAR
STARTCHAR U_304A
ENCODING 12362
SWIDTH 1000 0
DWIDTH 13 0
BBX 10 11 1 -2
BITMAP
1000
1000
1500
78C0
1040
1700
1880
7040
D240
3180
1000
ENDCHAR
STARTCHAR U_304B
ENCODING 12363
SWIDTH 1000 0
DWIDTH 13 0
BBX 10 10 1 -2
BITMAP
2000
1100
9C80
7240
1240
12C0
2200
2200
4A00
4400
ENDCHAR
STARTCHAR U_304C
ENCODING 12364
SWIDTH 1000 0
DWIDTH 13 0
BBX 11 11 1 -2
BITMAP
00A0
20A0
1100
9C80
7240
1240
12C0
2200
2200
4A00
4400
ENDCHAR
STARTCHAR U_304D
ENCODING 12365
SWIDTH 1000 0
DWIDTH 13 0
BBX 7 11 2 -2
BITMAP
10
1C
F0
0E
F8
04
3A
46
80
40
3C
ENDCHAR
STARTCHAR U_304E
ENCODING 12366
SWIDTH 1000 0
DWIDTH 13 0
BBX 8 11 2 -2
BITMAP
15
1D
F0
0E
F8
04
3A
46
80
40
3C
ENDCHAR
STARTCHAR U_304F
ENCODING 12367
SWIDTH 1000 0
DWIDTH 13 0
BBX 5 11 2 -2
BITMAP
10
08
10
20
40
80
40
20
10
08
08
ENDCHAR
STARTCHAR U_3050
ENCODING 12368
SWIDTH 1000 0
DWIDTH 13 0
BBX 8 11 2 -2
BITMAP
10
08
15
25
40
80
40
20
10
08
08
ENDCHAR
STARTCHAR U_3051
ENCODING 12369
SWIDTH 1000 0
DWIDTH 13 0
BBX 10 11 1 -2
BITMAP
0200
8100
41C0
5F00
8100
8100
8100
8100
6200
4200
0400
ENDCHAR
STARTCHAR U_3052
ENCODING 12370
SWIDTH 1000 0
DWIDTH 13 0
BBX 11 11 1 -2
BITMAP
04A0
82A0
41C0
5F00
8100
8100
8100
8100
6200
4200
0400
ENDCHAR
STARTCHAR U_3053
ENCODING 12371
SWIDTH 1000 0
DWIDTH 13 0
BBX 8 9 2 -1
BITMAP
40
3E
04
00
00
80
80
41
3E
ENDCHAR
STARTCHAR U_3054
ENCODING 12372
SWIDTH 1000 0
DWIDTH 13 0
BBX 9 9 1 -1
BITMAP
4280
3E80
0400
0000
0000
8000
8000
4100
3E00
ENDCHAR
STARTCHAR U_3055
ENCODING 12373
SWIDTH 1000 0
DWIDTH 13 0
BBX 7 11 2 -2
BITMAP
20
10
8E
78
04
04
7A
86
80
60
1C
ENDCHAR
STARTCHAR U_3056
ENCODING 12374
SWIDTH 1000 0
DWIDTH 13 0
BBX 9 11 2 -2
BITMAP
2280
1280
8E00
7800
0400
0400
7A00
8600
8000
6000
1C00
ENDCHAR
STARTCHAR U_3057
ENCODING 12375
SWIDTH 1000 0
DWIDTH 13 0
BBX 8 10 1 -2
BITMAP
80
40
40
40
40
40
40
41
26
18
ENDCHAR
STARTCHAR U_3058
ENCODING 12376
SWIDTH 1000 0
DWIDTH 13 0
BBX 8 10 1 -2
BITMAP
80
45
45
40
40
40
40
41
26
18
ENDCHAR
STARTCHAR U_3059
ENCODING 12377
SWIDTH 1000 0
DWIDTH 13 0
BBX 10 12 0 -3
BITMAP
0400
0200
83C0
7E00
0A00
1600
1200
0E00
0200
0200
0400
0800
ENDCHAR
STARTCHAR U_305A
ENCODING 12378
SWIDTH 1000 0
DWIDTH 13 0
BBX 11 12 0 -3
BITMAP
04A0
02A0
83C0
7E00
0A00
1600
1200
0E00
0200
0200
0400
0800
ENDCHAR
STARTCHAR U_305B
ENCODING 12379
SWIDTH 1000 0
DWIDTH 13 0
BBX 11 10 0 -2
BITMAP
0200
2100
11E0
9700
7900
1100
1300
1000
0800
0780
ENDCHAR
STARTCHAR U_305C
ENCODING 12380
SWIDTH 1000 0
DWIDTH 13 0
BBX 12 10 0 -2
BITMAP
0250
2150
11E0
9700
7900
1100
1300
1000
0800
0780
ENDCHAR
STARTCHAR U_305D
ENCODING 12381
SWIDTH 1000 0
DWIDTH 13 0
BBX 9 10 1 -2
BITMAP
4E00
3400
0800
1380
FC00
0800
1000
1000
0800
0600
ENDCHAR
STARTCHAR U_305E
ENCODING 12382
SWIDTH 1000 0
DWIDTH 13 0
BBX 10 10 1 -2
BITMAP
4D40
3540
0800
1380
FC00
0800
1000
1000
0800
0600
ENDCHAR
STARTCHAR U_305F
ENCODING 12383
SWIDTH 1000 0
DWIDTH 13 0
BBX 9 11 1 -2
BITMAP
2000
1000
1C00
E000
2700
2180
4200
4000
4800
8800
8780
ENDCHAR
STARTCHAR U_3060
ENCODING 12384
SWIDTH 1000 0
DWIDTH 13 0
BBX 10 11 1 -2
BITMAP
2000
1140
1D40
E000
2700
2180
4200
4000
4800
8800
8780
ENDCHAR
STARTCHAR U_3061
ENCODING 12385
SWIDTH 1000 0
DWIDTH 13 0
BBX 9 11 0 -2
BITMAP
1000
0800
8F00
7800
1000
1600
3900
2080
0080
0300
1C00
ENDCHAR
STARTCHAR U_3062
ENCODING 12386
SWIDTH 1000 0
DWIDTH 13 0
BBX 11 11 0 -2
BITMAP
1000
08A0
8FA0
7800
1000
1600
3900
2080
0080
0300
1C00
ENDCHAR
STARTCHAR U_3063
ENCODING 12387
SWIDTH 1000 0
DWIDTH 13 0
BBX 6 5 2 -2
BITMAP
38
C4
04
08
30
ENDCHAR
STARTCHAR U_3064
ENCODING 12388
SWIDTH 1000 0
DWIDTH 13 0
BBX 10 7 0 0
BITMAP
0F00
B080
4040
0040
0080
0300
0C00
ENDCHAR
STARTCHAR U_3065
ENCODING 12389
SWIDTH 1000 0
DWIDTH 13 0
BBX 11 8 0 0
BITMAP
00A0
0FA0
B080
4040
0040
0080
0300
0C00
ENDCHAR
STARTCHAR U_3066
ENCODING 12390
SWIDTH 1000 0
DWIDTH 13 0
BBX 9 9 1 -1
BITMAP
8380
7C00
0400
0800
1000
1000
1000
0800
0700
ENDCHAR
STARTCHAR U_3067
ENCODING 12391
SWIDTH 1000 0
DWIDTH 13 0
BBX 10 9 1 -1
BITMAP
8380
7C00
0540
0940
1000
1000
1000
0800
0700
ENDCHAR
STARTCHAR U_3068
ENCODING 12392
SWIDTH 1000 0
DWIDTH 13 0
BBX 7 9 2 -1
BITMAP
40
20
26
28
30
40
80
40
3E
ENDCHAR
STARTCHAR U_3069
ENCODING 12393
SWIDTH 1000 0
DWIDTH 13 0
BBX 9 9 2 -1
BITMAP
4280
2280
2600
2800
3000
4000
8000
4000
3E00
ENDCHAR
STARTCHAR U_306A
ENCODING 12394
SWIDTH 1000 0
DWIDTH 13 0
BBX 9 11 1 -2
BITMAP
2000
1400
FB00
2180
2200
4200
4200
9E00
2300
2280
1C00
ENDCHAR
STARTCHAR U_306B
ENCODING 12395
SWIDTH 1000 0
DWIDTH 13 0
BBX 9 10 1 -2
BITMAP
8000
4700
5980
8200
8000
8000
8800
A800
C780
4000
ENDCHAR
STARTCHAR U_306C
ENCODING 12396
SWIDTH 1000 0
DWIDTH 13 0
BBX 10 11 1 -2
BITMAP
0800
0400
0400
4F00
5480
6440
6840
A840
9340
A480
4380
ENDCHAR
STARTCHAR U_306D
ENCODING 12397
SWIDTH 1000 0
DWIDTH 13 0
BBX 11 11 0 -2
BITMAP
2000
1000
1000
9B80
7440
1840
3040
3040
51C0
B260
1180
ENDCHAR
STARTCHAR U_306E
ENCODING 12398
SWIDTH 1000 0
DWIDTH 13 0
BBX 9 9 1 -1
BITMAP
1C00
2A00
4900
8880
9080
9080
A100
4200
0C00
ENDCHAR
STARTCHAR U_306F
ENCODING 12399
SWIDTH 1000 0
DWIDTH 13 0
BBX 10 11 1 -2
BITMAP
0200
8100
51C0
4F00
8100
8100
8100
8F00
B180
D140
4E00
ENDCHAR
STARTCHAR U_3070
ENCODING 12400
SWIDTH 1000 0
DWIDTH 13 0
BBX 11 11 1 -2
BITMAP
02A0
81A0
51C0
4F00
8100
8100
8100
8F00
B180
D140
4E00
ENDCHAR
STARTCHAR U_3071
ENCODING 12401
SWIDTH 1000 0
DWIDTH 13 0
BBX 11 11 1 -2
BITMAP
02C0
8120
51C0
4F00
8100
8100
8100
8F00
B180
D140
4E00
ENDCHAR
STARTCHAR U_3072
ENCODING 12402
SWIDTH 1000 0
DWIDTH 13 0
BBX 10 10 1 -2
BITMAP
0200
1200
F100
2100
2180
4140
4100
4100
2200
1C00
ENDCHAR
STARTCHAR U_3073
ENCODING 12403
SWIDTH 1000 0
DWIDTH 13 0
BBX 11 10 1 -2
BITMAP
02A0
12A0
F100
2100
2180
4140
4100
4100
2200
1C00
ENDCHAR
STARTCHAR U_3074
ENCODING 12404
SWIDTH 1000 0
DWIDTH 13 0
BBX 11 11 1 -2
BITMAP
00C0
0320
12C0
F100
2100
2180
4140
4100
4100
2200
1C00
ENDCHAR
STARTCHAR U_3075
ENCODING 12405
SWIDTH 1000 0
DWIDTH 13 0
BBX 11 10 1 -2
BITMAP
1000
0E00
0400
0800
0800
0580
A440
C2E0
9200
0C00
ENDCHAR
STARTCHAR U_3076
ENCODING 12406
SWIDTH 1000 0
DWIDTH 13 0
BBX 11 10 1 -2
BITMAP
1140
0F40
0400
0800
0800
0580
A440
C2E0
9200
0C00
ENDCHAR
STARTCHAR U_3077
ENCODING 12407
SWIDTH 1000 0
DWIDTH 13 0
BBX 11 10 1 -2
BITMAP
10C0
0F20
04C0
0800
0800
0580
A440
C2E0
9200
0C00
ENDCHAR
STARTCHAR U_3078
ENCODING 12408
SWIDTH 1000 0
DWIDTH 13 0
BBX 11 6 0 0
BITMAP
1800
2400
C200
0100
0080
0060
ENDCHAR
STARTCHAR U_3079
ENCODING 12409
SWIDTH 1000 0
DWIDTH 13 0
BBX 11 8 0 0
BITMAP
0140
0140
1800
2400
C200
0100
0080
0060
ENDCHAR
STARTCHAR U_307A
ENCODING 12410
SWIDTH 1000 0
DWIDTH 13 0
BBX 11 8 0 0
BITMAP
00C0
0120
18C0
2400
C200
0100
0080
0060
ENDCHAR
STARTCHAR U_307B
ENCODING 12411
SWIDTH 1000 0
DWIDTH 13 0
BBX 10 10 1 -2
BITMAP
91C0
4F00
4140
8F80
8100
8100
8F00
B180
5140
4E00
ENDCHAR
STARTCHAR U_307C
ENCODING 12412
SWIDTH 1000 0
DWIDTH 13 0
BBX 11 11 1 -2
BITMAP
00A0
91A0
4F00
4140
8F80
8100
8100
8F00
B180
5140
4E00
ENDCHAR
STARTCHAR U_307D
ENCODING 12413
SWIDTH 1000 0
DWIDTH 13 0
BBX 11 11 1 -2
BITMAP
00C0
9120
4FC0
4100
8FC0
8100
8100
8F00
B180
5140
4E00
ENDCHAR
STARTCHAR U_307E
ENCODING 12414
SWIDTH 1000 0
DWIDTH 13 0
BBX 8 11 2 -2
BITMAP
10
8F
78
08
8E
78
08
78
8E
89
70
ENDCHAR
STARTCHAR U_307F
ENCODING 12415
SWIDTH 1000 0
DWIDTH 13 0
BBX 10 11 1 -2
BITMAP
4400
3C00
0800
0800
0900
3E80
5180
9140
A100
4200
0400
ENDCHAR
STARTCHAR U_3080
ENCODING 12416
SWIDTH 1000 0
DWIDTH 13 0
BBX 10 11 1 -2
BITMAP
2000
9C00
7180
1040
7000
9000
9000
A100
6080
2080
1F00
ENDCHAR
STARTCHAR U_3081
ENCODING 12417
SWIDTH 1000 0
DWIDTH 13 0
BBX 10 11 1 -2
BITMAP
0800
0400
4E00
5500
6480
4840
A840
9040
9080
6100
0600
ENDCHAR
STARTCHAR U_3082
ENCODING 12418
SWIDTH 1000 0
DWIDTH 13 0
BBX 8 11 1 -2
BITMAP
20
10
70
1C
28
E2
39
21
21
12
0C
ENDCHAR
STARTCHAR U_3083
ENCODING 12419
SWIDTH 1000 0
DWIDTH 13 0
BBX 8 7 2 -2
BITMAP
28
2E
F5
21
16
10
10
ENDCHAR
STARTCHAR U_3084
ENCODING 12420
SWIDTH 1000 0
DWIDTH 13 0
BBX 11 11 0 -2
BITMAP
0200
3700
2000
13C0
9C20
7020
09C0
0800
0800
0400
0400
ENDCHAR
STARTCHAR U_3085
ENCODING 12421
SWIDTH 1000 0
DWIDTH 13 0
BBX 7 7 3 -2
BITMAP
10
9C
B2
D2
9C
10
20
ENDCHAR
STARTCHAR U_3086
ENCODING 12422
SWIDTH 1000 0
DWIDTH 13 0
BBX 11 11 0 -2
BITMAP
0400
8200
4780
4A40
5220
6220
6A40
4780
4200
0400
0800
ENDCHAR
STARTCHAR U_3087
ENCODING 12423
SWIDTH 1000 0
DWIDTH 13 0
BBX 7 7 2 -2
BITMAP
10
1C
10
10
78
96
60
ENDCHAR
STARTCHAR U_3088
ENCODING 12424
SWIDTH 1000 0
DWIDTH 13 0
BBX 9 11 1 -2
BITMAP
1000
0800
0980
0E00
0800
0800
0800
7800
8E00
8980
7000
ENDCHAR
STARTCHAR U_3089
ENCODING 12425
SWIDTH 1000 0
DWIDTH 13 0
BBX 7 11 2 -2
BITMAP
20
18
40
80
80
BC
C2
82
02
0C
70
ENDCHAR
STARTCHAR U_308A
ENCODING 12426
SWIDTH 1000 0
DWIDTH 13 0
BBX 7 11 2 -2
BITMAP
88
54
52
62
62
42
42
04
04
08
10
ENDCHAR
STARTCHAR U_308B
ENCODING 12427
SWIDTH 1000 0
DWIDTH 13 0
BBX 8 10 1 -2
BITMAP
4E
34
08
10
3E
61
81
19
26
1C
ENDCHAR
STARTCHAR U_308C
ENCODING 12428
SWIDTH 1000 0
DWIDTH 13 0
BBX 11 11 0 -2
BITMAP
2000
1000
1300
3480
D880
1080
1080
3080
5080
B060
1000
ENDCHAR
STARTCHAR U_308D
ENCODING 12429
SWIDTH 1000 0
DWIDTH 13 0
BBX 8 10 1 -2
BITMAP
4E
34
08
10
3E
61
81
01
06
18
ENDCHAR
STARTCHAR U_308E
ENCODING 12430
SWIDTH 1000 0
DWIDTH 13 0
BBX 8 7 2 -2
BITMAP
40
30
EE
31
61
A2
24
ENDCHAR
STARTCHAR U_308F
ENCODING 12431
SWIDTH 1000 0
DWIDTH 13 0
BBX 11 11 0 -2
BITMAP
2000
1000
1000
9B80
7C40
1020
1020
3020
5040
B180
1000
ENDCHAR
STARTCHAR U_3090
ENCODING 12432
SWIDTH 1000 0
DWIDTH 13 0
BBX 10 10 1 -2
BITMAP
4E00
3400
0400
1F00
2880
4840
9040
9640
6980
4700
ENDCHAR
STARTCHAR U_3091
ENCODING 12433
SWIDTH 1000 0
DWIDTH 13 0
BBX 10 11 1 -2
BITMAP
2000
1F00
0400
1F00
2080
4C80
1300
0C00
0000
5980
8640
ENDCHAR
STARTCHAR U_3092
ENCODING 12434
SWIDTH 1000 0
DWIDTH 13 0
BBX 9 11 1 -2
BITMAP
0800
0800
9E00
7000
2180
7200
8C00
1400
2400
2000
1F00
ENDCHAR
STARTCHAR U_3093
ENCODING 12435
SWIDTH 1000 0
DWIDTH 13 0
BBX 10 10 1 -2
BITMAP
1000
0800
0800
1000
1000
3800
2400
4440
4480
8300
ENDCHAR
STARTCHAR U_3094
ENCODING 12436
SWIDTH 1000 0
DWIDTH 14 0
BBX 13 13 0 -1
BITMAP
1010
0C48
0020
2380
1C40
0020
0020
0040
0040
0080
0100
0600
0800
ENDCHAR
STARTCHAR U_30A1
ENCODING 12449
SWIDTH 1000 0
DWIDTH 13 0
BBX 7 6 1 -2
BITMAP
9E
72
1C
10
10
20
ENDCHAR
STARTCHAR U_30A2
ENCODING 12450
SWIDTH 1000 0
DWIDTH 13 0
BBX 10 9 0 -2
BITMAP
87C0
7840
0480
0700
0400
0400
0800
0800
1000
ENDCHAR
STARTCHAR U_30A3
ENCODING 12451
SWIDTH 1000 0
DWIDTH 13 0
BBX 5 7 2 -2
BITMAP
08
10
30
D0
10
10
10
ENDCHAR
STARTCHAR U_30A4
ENCODING 12452
SWIDTH 1000 0
DWIDTH 13 0
BBX 7 10 2 -2
BITMAP
02
02
04
08
30
C8
08
08
08
08
ENDCHAR
STARTCHAR U_30A5
ENCODING 12453
SWIDTH 1000 0
DWIDTH 13 0
BBX 6 7 2 -2
BITMAP
20
20
FC
84
88
10
60
ENDCHAR
STARTCHAR U_30A6
ENCODING 12454
SWIDTH 1000 0
DWIDTH 13 0
BBX 9 11 1 -2
BITMAP
0800
0800
0800
8F80
7880
4080
4100
0100
0200
0400
1800
ENDCHAR
STARTCHAR U_30A7
ENCODING 12455
SWIDTH 1000 0
DWIDTH 13 0
BBX 7 5 2 -1
BITMAP
0C
70
10
1C
F2
ENDCHAR
STARTCHAR U_30A8
ENCODING 12456
SWIDTH 1000 0
DWIDTH 13 0
BBX 10 7 1 -1
BITMAP
0780
7800
0800
0800
0800
0F80
F040
ENDCHAR
STARTCHAR U_30A9
ENCODING 12457
SWIDTH 1000 0
DWIDTH 13 0
BBX 7 7 2 -2
BITMAP
08
08
FE
18
28
C8
18
ENDCHAR
STARTCHAR U_30AA
ENCODING 12458
SWIDTH 1000 0
DWIDTH 13 0
BBX 10 11 1 -2
BITMAP
0200
0200
83C0
7E00
0600
0A00
1200
2200
4200
8600
0200
ENDCHAR
STARTCHAR U_30AB
ENCODING 12459
SWIDTH 1000 0
DWIDTH 13 0
BBX 9 11 1 -2
BITMAP
1000
0800
0800
8F80
7880
0880
1080
1100
2100
4500
8200
ENDCHAR
STARTCHAR U_30AC
ENCODING 12460
SWIDTH 1000 0
DWIDTH 13 0
BBX 10 11 1 -2
BITMAP
1000
0940
0940
8F80
7880
0880
1080
1100
2100
4500
8200
ENDCHAR
STARTCHAR U_30AD
ENCODING 12461
SWIDTH 1000 0
DWIDTH 13 0
BBX 10 11 0 -2
BITMAP
0800
0800
0B80
7C00
0400
0FC0
F400
0400
0200
0200
0200
ENDCHAR
STARTCHAR U_30AE
ENCODING 12462
SWIDTH 1000 0
DWIDTH 13 0
BBX 11 11 0 -2
BITMAP
0800
08A0
0BA0
7C00
0400
0FC0
F400
0400
0200
0200
0200
ENDCHAR
STARTCHAR U_30AF
ENCODING 12463
SWIDTH 1000 0
DWIDTH 13 0
BBX 7 11 2 -2
BITMAP
40
26
3A
22
42
44
84
08
10
20
40
ENDCHAR
STARTCHAR U_30B0
ENCODING 12464
SWIDTH 1000 0
DWIDTH 13 0
BBX 10 11 1 -2
BITMAP
4140
2740
3A00
2200
4200
4400
8400
0800
1000
2000
4000
ENDCHAR
STARTCHAR U_30B1
ENCODING 12465
SWIDTH 1000 0
DWIDTH 13 0
BBX 10 11 1 -2
BITMAP
4000
2000
23C0
3C00
2200
2200
4200
8400
0400
0800
1000
ENDCHAR
STARTCHAR U_30B2
ENCODING 12466
SWIDTH 1000 0
DWIDTH 13 0
BBX 10 11 1 -2
BITMAP
4000
2140
2140
2380
3C00
2200
4200
8400
0400
0800
1000
ENDCHAR
STARTCHAR U_30B3
ENCODING 12467
SWIDTH 1000 0
DWIDTH 13 0
BBX 9 8 1 -1
BITMAP
8F80
7080
0080
0080
0100
0100
0F00
7100
ENDCHAR
STARTCHAR U_30B4
ENCODING 12468
SWIDTH 1000 0
DWIDTH 13 0
BBX 10 10 1 -1
BITMAP
0140
0140
8F80
7080
0080
0080
0100
0100
0F00
7100
ENDCHAR
STARTCHAR U_30B5
ENCODING 12469
SWIDTH 1000 0
DWIDTH 13 0
BBX 10 11 1 -2
BITMAP
0200
2100
1100
97C0
7900
1100
1100
1200
0200
0400
0800
ENDCHAR
STARTCHAR U_30B6
ENCODING 12470
SWIDTH 1000 0
DWIDTH 13 0
BBX 11 11 1 -2
BITMAP
02A0
21A0
1100
97C0
7900
1100
1100
1200
0200
0400
0800
ENDCHAR
STARTCHAR U_30B7
ENCODING 12471
SWIDTH 1000 0
DWIDTH 13 0
BBX 9 10 2 -2
BITMAP
6000
1000
0000
C000
2080
0100
0200
0400
9800
6000
ENDCHAR
STARTCHAR U_30B8
ENCODING 12472
SWIDTH 1000 0
DWIDTH 13 0
BBX 9 10 2 -2
BITMAP
6280
1280
0000
C000
2080
0100
0200
0400
9800
6000
ENDCHAR
STARTCHAR U_30B9
ENCODING 12473
SWIDTH 1000 0
DWIDTH 13 0
BBX 10 9 1 -2
BITMAP
4700
3900
0100
0200
0200
0500
0880
3040
C040
ENDCHAR
STARTCHAR U_30BA
ENCODING 12474
SWIDTH 1000 0
DWIDTH 13 0
BBX 10 10 1 -2
BITMAP
0140
4740
3900
0100
0200
0200
0500
0880
3040
C040
ENDCHAR
STARTCHAR U_30BB
ENCODING 12475
SWIDTH 1000 0
DWIDTH 13 0
BBX 10 10 0 -2
BITMAP
2000
1000
11C0
9E40
7080
1100
1200
1000
1000
0F80
ENDCHAR
STARTCHAR U_30BC
ENCODING 12476
SWIDTH 1000 0
DWIDTH 13 0
BBX 11 10 0 -2
BITMAP
20A0
10A0
11C0
9E40
7080
1100
1200
1000
1000
0F80
ENDCHAR
STARTCHAR U_30BD
ENCODING 12477
SWIDTH 1000 0
DWIDTH 13 0
BBX 8 10 2 -2
BITMAP
02
81
41
42
02
04
04
08
10
20
ENDCHAR
STARTCHAR U_30BE
ENCODING 12478
SWIDTH 1000 0
DWIDTH 13 0
BBX 10 10 1 -2
BITMAP
0540
8340
4100
4200
0200
0400
0400
0800
1000
2000
ENDCHAR
STARTCHAR U_30BF
ENCODING 12479
SWIDTH 1000 0
DWIDTH 13 0
BBX 9 11 1 -2
BITMAP
1000
0800
0F80
1080
1100
2900
4600
0400
0800
3000
C000
ENDCHAR
STARTCHAR U_30C0
ENCODING 12480
SWIDTH 1000 0
DWIDTH 13 0
BBX 11 11 1 -2
BITMAP
1000
08A0
0FA0
1080
1100
2900
4600
0400
0800
3000
C000
ENDCHAR
STARTCHAR U_30C1
ENCODING 12481
SWIDTH 1000 0
DWIDTH 13 0
BBX 11 11 0 -2
BITMAP
0100
0600
3C00
0200
87E0
7A00
0200
0200
0400
0400
0800
ENDCHAR
STARTCHAR U_30C2
ENCODING 12482
SWIDTH 1000 0
DWIDTH 13 0
BBX 11 11 0 -2
BITMAP
0100
06A0
3CA0
0200
87E0
7A00
0200
0200
0400
0400
0800
ENDCHAR
STARTCHAR U_30C3
ENCODING 12483
SWIDTH 1000 0
DWIDTH 13 0
BBX 7 7 2 -2
BITMAP
20
92
52
44
04
08
10
ENDCHAR
STARTCHAR U_30C4
ENCODING 12484
SWIDTH 1000 0
DWIDTH 13 0
BBX 9 10 1 -2
BITMAP
0100
1080
8880
4900
4100
0200
0200
0400
0800
1000
ENDCHAR
STARTCHAR U_30C5
ENCODING 12485
SWIDTH 1000 0
DWIDTH 13 0
BBX 10 11 1 -2
BITMAP
0140
1140
8800
4880
4880
4100
0100
0200
0400
1800
6000
ENDCHAR
STARTCHAR U_30C6
ENCODING 12486
SWIDTH 1000 0
DWIDTH 13 0
BBX 11 10 0 -2
BITMAP
2380
1C00
0000
87E0
7A00
0200
0200
0400
0800
1000
ENDCHAR
STARTCHAR U_30C7
ENCODING 12487
SWIDTH 1000 0
DWIDTH 13 0
BBX 11 11 0 -2
BITMAP
00A0
23A0
1C00
0000
87E0
7A00
0200
0200
0400
0800
1000
ENDCHAR
STARTCHAR U_30C8
ENCODING 12488
SWIDTH 1000 0
DWIDTH 13 0
BBX 7 11 2 -2
BITMAP
80
40
40
40
70
4C
42
40
40
40
40
ENDCHAR
STARTCHAR U_30C9
ENCODING 12489
SWIDTH 1000 0
DWIDTH 13 0
BBX 8 11 2 -2
BITMAP
80
45
45
40
70
4C
42
40
40
40
40
ENDCHAR
STARTCHAR U_30CA
ENCODING 12490
SWIDTH 1000 0
DWIDTH 13 0
BBX 10 11 1 -2
BITMAP
0800
0400
0400
87C0
7C00
0400
0400
0800
0800
1000
2000
ENDCHAR
STARTCHAR U_30CB
ENCODING 12491
SWIDTH 1000 0
DWIDTH 13 0
BBX 10 7 1 0
BITMAP
0700
7800
0000
0000
0000
0F80
F040
ENDCHAR
STARTCHAR U_30CC
ENCODING 12492
SWIDTH 1000 0
DWIDTH 13 0
BBX 10 9 1 -2
BITMAP
4780
3880
0100
1900
0600
0500
0880
3040
C000
ENDCHAR
STARTCHAR U_30CD
ENCODING 12493
SWIDTH 1000 0
DWIDTH 13 0
BBX 10 11 1 -2
BITMAP
0800
0400
0F00
7100
0200
0C00
3B00
C8C0
0800
0800
0800
ENDCHAR
STARTCHAR U_30CE
ENCODING 12494
SWIDTH 1000 0
DWIDTH 13 0
BBX 7 10 3 -2
BITMAP
04
02
02
04
04
08
10
20
40
80
ENDCHAR
STARTCHAR U_30CF
ENCODING 12495
SWIDTH 1000 0
DWIDTH 13 0
BBX 11 7 0 -1
BITMAP
1100
0880
1040
1040
2020
4020
8020
ENDCHAR
STARTCHAR U_30D0
ENCODING 12496
SWIDTH 1000 0
DWIDTH 13 0
BBX 11 9 0 -1
BITMAP
00A0
00A0
1100
0880
1040
1040
2020
4020
8020
ENDCHAR
STARTCHAR U_30D1
ENCODING 12497
SWIDTH 1000 0
DWIDTH 13 0
BBX 12 9 0 -1
BITMAP
0060
0090
1160
0880
0840
1040
2020
4020
8020
ENDCHAR
STARTCHAR U_30D2
ENCODING 12498
SWIDTH 1000 0
DWIDTH 13 0
BBX 9 9 1 -1
BITMAP
8000
4000
4000
4700
7800
4000
4000
4000
3F80
ENDCHAR
STARTCHAR U_30D3
ENCODING 12499
SWIDTH 1000 0
DWIDTH 13 0
BBX 10 9 1 -1
BITMAP
8140
4140
4000
4700
7800
4000
4000
4000
3F80
ENDCHAR
STARTCHAR U_30D4
ENCODING 12500
SWIDTH 1000 0
DWIDTH 13 0
BBX 10 9 1 -1
BITMAP
8180
4240
4180
4700
7800
4000
4000
4000
3F80
ENDCHAR
STARTCHAR U_30D5
ENCODING 12501
SWIDTH 1000 0
DWIDTH 13 0
BBX 9 9 1 -2
BITMAP
8780
7880
0080
0100
0100
0200
0400
0800
3000
ENDCHAR
STARTCHAR U_30D6
ENCODING 12502
SWIDTH 1000 0
DWIDTH 13 0
BBX 10 11 0 -2
BITMAP
0140
0140
8780
7880
0080
0100
0100
0200
0400
0800
3000
ENDCHAR
STARTCHAR U_30D7
ENCODING 12503
SWIDTH 1000 0
DWIDTH 13 0
BBX 11 11 0 -2
BITMAP
00C0
0120
87C0
7880
0080
0100
0100
0200
0400
0800
3000
ENDCHAR
STARTCHAR U_30D8
ENCODING 12504
SWIDTH 1000 0
DWIDTH 13 0
BBX 11 6 0 0
BITMAP
0800
1400
2200
C100
0080
0060
ENDCHAR
STARTCHAR U_30D9
ENCODING 12505
SWIDTH 1000 0
DWIDTH 13 0
BBX 11 8 0 0
BITMAP
00A0
00A0
0800
1400
2200
C100
0080
0060
ENDCHAR
STARTCHAR U_30DA
ENCODING 12506
SWIDTH 1000 0
DWIDTH 13 0
BBX 11 8 0 0
BITMAP
00C0
0120
08C0
1400
2200
C100
0080
0060
ENDCHAR
STARTCHAR U_30DB
ENCODING 12507
SWIDTH 1000 0
DWIDTH 13 0
BBX 9 11 1 -2
BITMAP
0800
0800
8F80
7800
0800
2A00
2900
4880
4880
9800
0800
ENDCHAR
STARTCHAR U_30DC
ENCODING 12508
SWIDTH 1000 0
DWIDTH 13 0
BBX 10 11 1 -2
BITMAP
0800
0940
8F40
7800
0800
2A00
2900
4880
4880
9800
0800
ENDCHAR
STARTCHAR U_30DD
ENCODING 12509
SWIDTH 1000 0
DWIDTH 13 0
BBX 11 11 1 -2
BITMAP
0800
08C0
8F20
78C0
0800
2A00
2900
4880
4880
9800
0800
ENDCHAR
STARTCHAR U_30DE
ENCODING 12510
SWIDTH 1000 0
DWIDTH 13 0
BBX 9 8 1 -1
BITMAP
8780
7880
0100
0200
6400
1800
0400
0200
ENDCHAR
STARTCHAR U_30DF
ENCODING 12511
SWIDTH 1000 0
DWIDTH 13 0
BBX 7 10 2 -2
BITMAP
60
18
06
00
70
0C
00
E0
18
06
ENDCHAR
STARTCHAR U_30E0
ENCODING 12512
SWIDTH 1000 0
DWIDTH 13 0
BBX 9 10 1 -2
BITMAP
1000
0800
0800
1000
1400
2200
2100
4F00
F080
0080
ENDCHAR
STARTCHAR U_30E1
ENCODING 12513
SWIDTH 1000 0
DWIDTH 13 0
BBX 9 10 2 -2
BITMAP
0200
0100
0100
3100
0E00
0200
0500
0880
3000
C000
ENDCHAR
STARTCHAR U_30E2
ENCODING 12514
SWIDTH 1000 0
DWIDTH 13 0
BBX 10 8 1 -1
BITMAP
8700
7800
1000
93C0
7C00
1000
1000
0F80
ENDCHAR
STARTCHAR U_30E3
ENCODING 12515
SWIDTH 1000 0
DWIDTH 13 0
BBX 8 7 2 -2
BITMAP
20
20
2F
F2
14
10
10
ENDCHAR
STARTCHAR U_30E4
ENCODING 12516
SWIDTH 1000 0
DWIDTH 13 0
BBX 11 10 0 -2
BITMAP
2000
1000
11E0
9E40
6880
0900
0800
0400
0400
0400
ENDCHAR
STARTCHAR U_30E5
ENCODING 12517
SWIDTH 1000 0
DWIDTH 13 0
BBX 7 4 2 -1
BITMAP
7C
08
08
FE
ENDCHAR
STARTCHAR U_30E6
ENCODING 12518
SWIDTH 1000 0
DWIDTH 13 0
BBX 10 7 1 -1
BITMAP
4700
3900
0100
0200
0200
0F80
F040
ENDCHAR
STARTCHAR U_30E7
ENCODING 12519
SWIDTH 1000 0
DWIDTH 13 0
BBX 7 6 2 -2
BITMAP
3C
C4
3C
04
1C
E2
ENDCHAR
STARTCHAR U_30E8
ENCODING 12520
SWIDTH 1000 0
DWIDTH 13 0
BBX 9 9 1 -2
BITMAP
0F80
F080
0080
0700
3900
0100
0100
0F00
7080
ENDCHAR
STARTCHAR U_30E9
ENCODING 12521
SWIDTH 1000 0
DWIDTH 13 0
BBX 9 10 1 -2
BITMAP
4E00
3000
8780
7880
0080
0100
0100
0200
0C00
3000
ENDCHAR
STARTCHAR U_30EA
ENCODING 12522
SWIDTH 1000 0
DWIDTH 13 0
BBX 7 11 2 -2
BITMAP
04
82
42
42
42
42
42
04
04
08
10
ENDCHAR
STARTCHAR U_30EB
ENCODING 12523
SWIDTH 1000 0
DWIDTH 13 0
BBX 10 10 1 -2
BITMAP
0800
4400
2400
2400
2440
2440
2480
4500
4600
8400
ENDCHAR
STARTCHAR U_30EC
ENCODING 12524
SWIDTH 1000 0
DWIDTH 13 0
BBX 8 10 1 -2
BITMAP
80
40
40
40
40
41
42
44
58
60
ENDCHAR
STARTCHAR U_30ED
ENCODING 12525
SWIDTH 1000 0
DWIDTH 13 0
BBX 10 8 0 -1
BITMAP
87C0
7840
4040
4040
2080
2080
2F80
3040
ENDCHAR
STARTCHAR U_30EE
ENCODING 12526
SWIDTH 1000 0
DWIDTH 13 0
BBX 7 6 1 -2
BITMAP
8E
72
42
04
08
30
ENDCHAR
STARTCHAR U_30EF
ENCODING 12527
SWIDTH 1000 0
DWIDTH 13 0
BBX 9 9 1 -2
BITMAP
8780
7880
4080
4080
0100
0100
0200
0400
1800
ENDCHAR
STARTCHAR U_30F0
ENCODING 12528
SWIDTH 1000 0
DWIDTH 13 0
BBX 10 11 1 -2
BITMAP
0400
0200
0200
0F80
F200
2200
2780
FA40
0200
0200
0200
ENDCHAR
STARTCHAR U_30F1
ENCODING 12529
SWIDTH 1000 0
DWIDTH 13 0
BBX 10 8 0 -1
BITMAP
0780
7880
0500
0600
0400
0400
0F80
F040
ENDCHAR
STARTCHAR U_30F2
ENCODING 12530
SWIDTH 1000 0
DWIDTH 13 0
BBX 8 10 2 -2
BITMAP
0F
F1
01
0F
72
02
04
08
30
C0
ENDCHAR
STARTCHAR U_30F3
ENCODING 12531
SWIDTH 1000 0
DWIDTH 13 0
BBX 9 9 1 -2
BITMAP
6000
1080
0080
0100
0100
0200
0400
9800
6000
ENDCHAR
STARTCHAR U_30F4
ENCODING 12532
SWIDTH 1000 0
DWIDTH 13 0
BBX 10 11 1 -2
BITMAP
0940
0940
0800
8F80
7880
4080
4100
0100
0200
0400
1800
ENDCHAR
STARTCHAR U_30F5
ENCODING 12533
SWIDTH 1000 0
DWIDTH 13 0
BBX 6 7 2 -2
BITMAP
20
20
FC
24
24
44
98
ENDCHAR
STARTCHAR U_30F6
ENCODING 12534
SWIDTH 1000 0
DWIDTH 13 0
BBX 7 7 2 -2
BITMAP
20
20
3E
48
88
10
20
ENDCHAR
STARTCHAR U_3105
ENCODING 12549
SWIDTH 1000 0
DWIDTH 13 0
BBX 9 11 2 -1
BITMAP
2000
2000
2100
7F80
8100
0100
0100
0100
0200
1600
0C00
ENDCHAR
STARTCHAR U_3106
ENCODING 12550
SWIDTH 1000 0
DWIDTH 13 0
BBX 9 10 2 -1
BITMAP
0800
1000
1700
6B00
0200
1400
0C00
1200
2100
C080
ENDCHAR
STARTCHAR U_3107
ENCODING 12551
SWIDTH 1000 0
DWIDTH 13 0
BBX 9 10 2 -1
BITMAP
0080
FF80
4080
4080
4080
4080
4080
4080
4080
0080
ENDCHAR
STARTCHAR U_3108
ENCODING 12552
SWIDTH 1000 0
DWIDTH 13 0
BBX 9 8 2 0
BITMAP
FF00
8000
8000
8000
8000
8000
8000
7F80
ENDCHAR
STARTCHAR U_3109
ENCODING 12553
SWIDTH 1000 0
DWIDTH 13 0
BBX 9 11 2 -1
BITMAP
1000
1000
2000
5F80
F080
1880
1080
2100
4100
8100
0600
ENDCHAR
STARTCHAR U_310A
ENCODING 12554
SWIDTH 1000 0
DWIDTH 13 0
BBX 11 11 1 -2
BITMAP
0400
0200
0200
0400
FFE0
0400
0800
0900
1080
1F80
1040
ENDCHAR
STARTCHAR U_310B
ENCODING 12555
SWIDTH 1000 0
DWIDTH 13 0
BBX 8 10 3 -1
BITMAP
FE
04
04
0F
01
02
02
04
24
18
ENDCHAR
STARTCHAR U_310C
ENCODING 12556
SWIDTH 1000 0
DWIDTH 13 0
BBX 8 11 3 -1
BITMAP
10
10
90
9F
F1
21
22
42
42
84
0C
ENDCHAR
STARTCHAR U_310D
ENCODING 12557
SWIDTH 1000 0
DWIDTH 13 0
BBX 9 11 2 -2
BITMAP
1080
1100
2100
2200
4200
8400
4400
2200
2100
1180
1000
ENDCHAR
STARTCHAR U_310E
ENCODING 12558
SWIDTH 1000 0
DWIDTH 13 0
BBX 11 10 1 -2
BITMAP
FFE0
0800
0F80
1080
0080
0080
0100
0900
0600
0400
ENDCHAR
STARTCHAR U_310F
ENCODING 12559
SWIDTH 1000 0
DWIDTH 13 0
BBX 10 9 2 0
BITMAP
3FC0
2000
2000
2000
2000
4000
4000
8000
8000
ENDCHAR
STARTCHAR U_3110
ENCODING 12560
SWIDTH 1000 0
DWIDTH 13 0
BBX 6 12 3 -2
BITMAP
0C
04
04
44
44
44
4C
74
84
04
04
04
ENDCHAR
STARTCHAR U_3111
ENCODING 12561
SWIDTH 1000 0
DWIDTH 13 0
BBX 8 10 3 -1
BITMAP
02
06
08
30
C0
40
30
08
06
03
ENDCHAR
STARTCHAR U_3112
ENCODING 12562
SWIDTH 1000 0
DWIDTH 13 0
BBX 11 10 1 -1
BITMAP
FFE0
6400
0400
0400
0400
0400
0400
0400
0400
0400
ENDCHAR
STARTCHAR U_3113
ENCODING 12563
SWIDTH 1000 0
DWIDTH 13 0
BBX 11 9 1 -1
BITMAP
0400
0400
2480
2480
2780
3C80
0400
0400
FFE0
ENDCHAR
STARTCHAR U_3114
ENCODING 12564
SWIDTH 1000 0
DWIDTH 13 0
BBX 8 12 2 -2
BITMAP
02
04
08
11
02
0C
14
24
C4
04
04
04
ENDCHAR
STARTCHAR U_3115
ENCODING 12565
SWIDTH 1000 0
DWIDTH 13 0
BBX 10 11 2 -1
BITMAP
0080
7FC0
0080
0080
3F00
2000
2000
2000
4000
4000
8000
ENDCHAR
STARTCHAR U_3116
ENCODING 12566
SWIDTH 1000 0
DWIDTH 13 0
BBX 8 9 3 0
BITMAP
1F
E1
81
81
91
89
81
81
FE
ENDCHAR
STARTCHAR U_3117
ENCODING 12567
SWIDTH 1000 0
DWIDTH 13 0
BBX 9 11 2 -2
BITMAP
0780
F880
1080
1080
1100
1700
1200
1000
1000
1000
1000
ENDCHAR
STARTCHAR U_3118
ENCODING 12568
SWIDTH 1000 0
DWIDTH 13 0
BBX 10 12 2 -2
BITMAP
0800
0800
0800
0FC0
F000
1000
1000
1F00
0200
0200
0400
0800
ENDCHAR
STARTCHAR U_3119
ENCODING 12569
SWIDTH 1000 0
DWIDTH 13 0
BBX 10 9 1 -1
BITMAP
0400
0400
0800
0800
1000
2000
4080
5F40
E040
ENDCHAR
STARTCHAR U_311A
ENCODING 12570
SWIDTH 1000 0
DWIDTH 13 0
BBX 8 10 2 -1
BITMAP
81
63
36
08
08
08
08
08
08
08
ENDCHAR
STARTCHAR U_311B
ENCODING 12571
SWIDTH 1000 0
DWIDTH 13 0
BBX 10 8 2 0
BITMAP
FFC0
0400
0400
3C00
4000
4000
6080
1F00
ENDCHAR
STARTCHAR U_311C
ENCODING 12572
SWIDTH 1000 0
DWIDTH 13 0
BBX 10 12 1 -2
BITMAP
0800
0400
0400
0400
FFC0
0400
1C00
2000
4000
4000
2080
1F00
ENDCHAR
STARTCHAR U_311D
ENCODING 12573
SWIDTH 1000 0
DWIDTH 13 0
BBX 11 9 1 -1
BITMAP
1100
1100
1100
17E0
FA00
1200
1200
1000
0F80
ENDCHAR
STARTCHAR U_311E
ENCODING 12574
SWIDTH 1000 0
DWIDTH 13 0
BBX 10 10 1 -1
BITMAP
7FC0
2400
2400
5F80
68C0
0880
1080
2100
4100
8200
ENDCHAR
STARTCHAR U_311F
ENCODING 12575
SWIDTH 1000 0
DWIDTH 13 0
BBX 9 9 2 -1
BITMAP
1C00
6800
8800
0800
0400
0400
0200
0180
0080
ENDCHAR
STARTCHAR U_3120
ENCODING 12576
SWIDTH 1000 0
DWIDTH 13 0
BBX 9 11 2 -2
BITMAP
0800
0800
1100
1180
2300
7E00
C400
0A00
3100
7F80
0080
ENDCHAR
STARTCHAR U_3121
ENCODING 12577
SWIDTH 1000 0
DWIDTH 13 0
BBX 10 10 2 -1
BITMAP
0100
7F80
0100
2200
1C00
0C00
1A00
2180
4080
8040
ENDCHAR
STARTCHAR U_3122
ENCODING 12578
SWIDTH 1000 0
DWIDTH 13 0
BBX 9 9 2 0
BITMAP
7F00
0100
2200
4400
7F80
C080
0100
0100
0200
ENDCHAR
STARTCHAR U_3123
ENCODING 12579
SWIDTH 1000 0
DWIDTH 13 0
BBX 9 10 2 -1
BITMAP
6000
4000
4000
4000
8380
FC80
0080
0100
0100
0200
ENDCHAR
STARTCHAR U_3124
ENCODING 12580
SWIDTH 1000 0
DWIDTH 13 0
BBX 10 11 2 -2
BITMAP
0800
0800
0800
0F80
F800
1800
2800
2800
4800
8800
07C0
ENDCHAR
STARTCHAR U_3125
ENCODING 12581
SWIDTH 1000 0
DWIDTH 13 0
BBX 11 9 1 0
BITMAP
0400
0600
0400
0800
0800
1000
2000
4000
FFE0
ENDCHAR
STARTCHAR U_3126
ENCODING 12582
SWIDTH 1000 0
DWIDTH 13 0
BBX 11 10 1 -1
BITMAP
2200
1200
1200
1200
1200
1200
2200
2200
4200
81E0
ENDCHAR
STARTCHAR U_3127
ENCODING 12583
SWIDTH 1000 0
DWIDTH 14 0
BBX 13 13 0 -1
BITMAP
0200
0300
0200
0200
0200
0200
0200
0200
0200
0200
0200
0200
0200
ENDCHAR
STARTCHAR U_3128
ENCODING 12584
SWIDTH 1000 0
DWIDTH 13 0
BBX 9 10 2 -1
BITMAP
0100
4100
2300
1200
0C00
0C00
0A00
1100
2180
C080
ENDCHAR
STARTCHAR U_3129
ENCODING 12585
SWIDTH 1000 0
DWIDTH 13 0
BBX 9 9 2 -1
BITMAP
4080
4080
4080
4080
4080
8080
8080
BF80
4080
ENDCHAR
STARTCHAR U_312D
ENCODING 12589
SWIDTH 1000 0
DWIDTH 14 0
BBX 13 13 0 -1
BITMAP
0000
FFF8
0200
0200
3FE0
2220
2220
2220
2220
2220
2220
0200
0200
ENDCHAR
STARTCHAR U_3220
ENCODING 12832
SWIDTH 1000 0
DWIDTH 13 0
BBX 12 10 0 -1
BITMAP
4020
4020
8010
8010
8010
BFD0
8010
8010
4020
4020
ENDCHAR
STARTCHAR U_3221
ENCODING 12833
SWIDTH 1000 0
DWIDTH 13 0
BBX 12 10 0 -1
BITMAP
4020
4020
9F90
8010
8010
8010
8010
BFD0
4020
4020
ENDCHAR
STARTCHAR U_3222
ENCODING 12834
SWIDTH 1000 0
DWIDTH 13 0
BBX 12 10 0 -1
BITMAP
4020
5FA0
8010
8010
8F10
8010
8010
8010
5FA0
4020
ENDCHAR
STARTCHAR U_3223
ENCODING 12835
SWIDTH 1000 0
DWIDTH 13 0
BBX 12 10 0 -1
BITMAP
4020
5FE0
9550
9550
9550
99D0
9050
9FD0
4020
4020
ENDCHAR
STARTCHAR U_3224
ENCODING 12836
SWIDTH 1000 0
DWIDTH 13 0
BBX 12 10 0 -1
BITMAP
4020
5FB0
8410
8410
9F90
8490
8890
8890
5FE0
4020
ENDCHAR
STARTCHAR U_3225
ENCODING 12837
SWIDTH 1000 0
DWIDTH 13 0
BBX 12 10 0 -1
BITMAP
4020
4220
8210
9FD0
8010
8510
8490
8890
5060
4020
ENDCHAR
STARTCHAR U_3226
ENCODING 12838
SWIDTH 1000 0
DWIDTH 13 0
BBX 12 10 0 -1
BITMAP
4820
4820
8810
8990
BE10
8810
8890
8890
47A0
4020
ENDCHAR
STARTCHAR U_3227
ENCODING 12839
SWIDTH 1000 0
DWIDTH 13 0
BBX 12 11 0 -2
BITMAP
4020
4720
8110
8910
8910
8910
8890
9090
A060
4020
4000
ENDCHAR
STARTCHAR U_3228
ENCODING 12840
SWIDTH 1000 0
DWIDTH 13 0
BBX 12 10 0 -1
BITMAP
4420
4420
BF10
8510
8510
8510
8950
8950
51E0
4020
ENDCHAR
STARTCHAR U_3229
ENCODING 12841
SWIDTH 1000 0
DWIDTH 13 0
BBX 12 10 0 -1
BITMAP
4220
4220
8210
8210
BFD0
8210
8210
8210
4220
4220
ENDCHAR
STARTCHAR U_3243
ENCODING 12867
SWIDTH 1000 0
DWIDTH 14 0
BBX 13 13 0 -1
BITMAP
4010
5FD0
8408
8888
9FC8
8248
8208
9FC8
8208
8208
BFE8
4010
4010
ENDCHAR
STARTCHAR U_32A3
ENCODING 12963
SWIDTH 1000 0
DWIDTH 13 0
BBX 12 12 0 -1
BITMAP
1F80
2040
5FA0
4220
8210
8B90
8A10
8A10
4A20
5FA0
2040
1F80
ENDCHAR
STARTCHAR U_338E
ENCODING 13198
SWIDTH 1000 0
DWIDTH 13 0
BBX 12 8 0 -2
BITMAP
28D0
D520
5520
5520
54C0
5520
5520
00C0
ENDCHAR
STARTCHAR U_338F
ENCODING 13199
SWIDTH 1000 0
DWIDTH 13 0
BBX 11 11 1 -2
BITMAP
C000
4000
4000
59A0
5240
6240
6240
5180
5240
DA40
03C0
ENDCHAR
STARTCHAR U_339C
ENCODING 13212
SWIDTH 1000 0
DWIDTH 13 0
BBX 12 8 0 -1
BITMAP
AAA0
5550
5550
5550
5550
5550
5550
5550
ENDCHAR
STARTCHAR U_339D
ENCODING 13213
SWIDTH 1000 0
DWIDTH 13 0
BBX 11 8 1 -1
BITMAP
3540
4AA0
8AA0
82A0
82A0
82A0
4AA0
32A0
ENDCHAR
STARTCHAR U_339E
ENCODING 13214
SWIDTH 1000 0
DWIDTH 13 0
BBX 11 10 1 -1
BITMAP
C000
4000
4540
5AA0
52A0
62A0
62A0
52A0
52A0
DAA0
ENDCHAR
STARTCHAR U_33A1
ENCODING 13217
SWIDTH 1000 0
DWIDTH 13 0
BBX 11 11 1 -1
BITMAP
0040
00A0
0020
0040
B6E0
4900
4900
4900
4900
4900
4900
ENDCHAR
STARTCHAR U_33C4
ENCODING 13252
SWIDTH 1000 0
DWIDTH 13 0
BBX 11 7 1 -1
BITMAP
30C0
4920
8200
8200
8200
4920
30C0
ENDCHAR
STARTCHAR U_33CE
ENCODING 13262
SWIDTH 1000 0
DWIDTH 13 0
BBX 12 10 0 -1
BITMAP
8C10
9630
9550
A550
C550
A490
A490
9490
9490
8C90
ENDCHAR
STARTCHAR U_33D1
ENCODING 13265
SWIDTH 1000 0
DWIDTH 13 0
BBX 10 10 2 -1
BITMAP
C000
4000
4000
4B00
4480
4480
4480
4480
4480
ECC0
ENDCHAR
STARTCHAR U_33D2
ENCODING 13266
SWIDTH 1000 0
DWIDTH 13 0
BBX 12 11 0 -2
BITMAP
C000
4000
4000
48D0
5520
5520
5520
54C0
5520
E920
00C0
ENDCHAR
STARTCHAR U_33D5
ENCODING 13269
SWIDTH 1000 0
DWIDTH 13 0
BBX 13 10 0 -1
BITMAP
0030
0090
0010
A890
5590
5490
5490
5490
5490
54B8
ENDCHAR
STARTCHAR U_3A22
ENCODING 14882
SWIDTH 1000 0
DWIDTH 14 0
BBX 13 10 0 -1
BITMAP
9040
0D00
2280
AC00
0140
AA00
15C0
4A00
1440
8900
ENDCHAR
STARTCHAR U_4E00
ENCODING 19968
SWIDTH 1000 0
DWIDTH 14 0
BBX 13 1 0 5
BITMAP
FFF8
ENDCHAR
STARTCHAR U_4E01
ENCODING 19969
SWIDTH 1000 0
DWIDTH 14 0
BBX 13 12 0 -1
BITMAP
FFF8
0200
0200
0200
0200
0200
0200
0200
0200
0200
0A00
0400
ENDCHAR
STARTCHAR U_4E02
ENCODING 19970
SWIDTH 1000 0
DWIDTH 14 0
BBX 13 13 0 -1
BITMAP
FFF8
0400
0400
0800
1FE0
0020
0020
0020
0040
0040
0040
0280
0100
ENDCHAR
STARTCHAR U_4E03
ENCODING 19971
SWIDTH 1000 0
DWIDTH 14 0
BBX 13 13 0 -1
BITMAP
0400
0400
0400
0400
0478
0F80
F400
0400
0408
0408
0408
0408
03F8
ENDCHAR
STARTCHAR U_4E04
ENCODING 19972
SWIDTH 1000 0
DWIDTH 14 0
BBX 13 12 0 0
BITMAP
0400
0400
0400
0400
0400
0400
0400
0400
0400
0400
0400
FFF8
ENDCHAR
STARTCHAR U_4E05
ENCODING 19973
SWIDTH 1000 0
DWIDTH 14 0
BBX 13 13 0 -1
BITMAP
0010
FFF8
0400
0400
0400
0400
0400
0400
0400
0400
0400
0400
0400
ENDCHAR
STARTCHAR U_4E06
ENCODING 19974
SWIDTH 1000 0
DWIDTH 14 0
BBX 11 8 1 3
BITMAP
0040
FFE0
0800
0800
1000
1000
2000
C000
ENDCHAR
STARTCHAR U_4E07
ENCODING 19975
SWIDTH 1000 0
DWIDTH 14 0
BBX 13 12 0 -1
BITMAP
FFF8
0800
0800
0FE0
0820
0820
0820
1020
1020
2020
4340
8080
ENDCHAR
STARTCHAR U_4E08
ENCODING 19976
SWIDTH 1000 0
DWIDTH 14 0
BBX 13 13 0 -1
BITMAP
0100
0100
0100
FFF8
0100
1100
1100
0A00
0A00
0400
0A00
3180
C078
ENDCHAR
STARTCHAR U_4E09
ENCODING 19977
SWIDTH 1000 0
DWIDTH 14 0
BBX 13 12 0 -1
BITMAP
7FF0
0000
0000
0000
0000
3FE0
0000
0000
0000
0000
0000
FFF8
ENDCHAR
STARTCHAR U_4E0A
ENCODING 19978
SWIDTH 1000 0
DWIDTH 14 0
BBX 13 13 0 -1
BITMAP
0400
0400
0400
0400
07E0
0400
0400
0400
0400
0400
0400
0400
FFF8
ENDCHAR
STARTCHAR U_4E0B
ENCODING 19979
SWIDTH 1000 0
DWIDTH 14 0
BBX 13 13 0 -1
BITMAP
FFF8
0200
0200
0300
0280
0260
0220
0200
0200
0200
0200
0200
0200
ENDCHAR
STARTCHAR U_4E0C
ENCODING 19980
SWIDTH 1000 0
DWIDTH 14 0
BBX 13 13 0 -1
BITMAP
0010
FFF8
0880
0880
0880
0880
0880
0880
1080
1080
1080
2080
4080
ENDCHAR
STARTCHAR U_4E0D
ENCODING 19981
SWIDTH 1000 0
DWIDTH 14 0
BBX 13 12 0 -1
BITMAP
FFF8
0100
0200
0600
0A80
1240
2220
4210
8210
0200
0200
0200
ENDCHAR
STARTCHAR U_4E0E
ENCODING 19982
SWIDTH 1000 0
DWIDTH 14 0
BBX 12 13 0 -1
BITMAP
1000
1000
1FF0
1000
1000
1FF0
0010
0010
FFD0
0010
0010
00A0
0040
ENDCHAR
STARTCHAR U_4E0F
ENCODING 19983
SWIDTH 1000 0
DWIDTH 14 0
BBX 13 13 0 -1
BITMAP
FFF8
0400
0400
47F0
4410
4410
7FF0
0010
0010
0010
0010
03A0
0040
ENDCHAR
STARTCHAR U_4E10
ENCODING 19984
SWIDTH 1000 0
DWIDTH 14 0
BBX 13 13 0 -1
BITMAP
FFF8
0100
0100
21F0
2100
2100
3FF0
0010
0010
0010
0010
00A0
0040
ENDCHAR
STARTCHAR U_4E11
ENCODING 19985
SWIDTH 1000 0
DWIDTH 14 0
BBX 13 12 0 -1
BITMAP
3FE0
0420
0420
0420
0420
3FE0
0820
0820
0820
0820
0820
FFF8
ENDCHAR
STARTCHAR U_4E12
ENCODING 19986
SWIDTH 1000 0
DWIDTH 14 0
BBX 13 13 0 -1
BITMAP
7FE0
0820
0820
2820
1820
0C20
1220
1020
2020
4140
8080
0000
FFF8
ENDCHAR
STARTCHAR U_4E13
ENCODING 19987
SWIDTH 1000 0
DWIDTH 14 0
BBX 13 13 0 -1
BITMAP
0400
7FF0
0400
0800
FFF8
0800
1000
1FC0
0080
0D00
0200
0100
0100
ENDCHAR
STARTCHAR U_4E14
ENCODING 19988
SWIDTH 1000 0
DWIDTH 14 0
BBX 13 12 0 -1
BITMAP
1FC0
1040
1040
1FC0
1040
1040
1040
1FC0
1040
1040
1040
FFF8
ENDCHAR
STARTCHAR U_4E15
ENCODING 19989
SWIDTH 1000 0
DWIDTH 14 0
BBX 13 13 0 -1
BITMAP
0010
FFF8
0200
0400
0C80
1440
2420
4410
8400
0400
0400
0410
FFF8
ENDCHAR
STARTCHAR U_4E16
ENCODING 19990
SWIDTH 1000 0
DWIDTH 14 0
BBX 13 13 0 -1
BITMAP
0440
2440
2440
FFF8
2440
2440
2440
2440
27C0
2440
2000
2000
3FF8
ENDCHAR
STARTCHAR U_4E17
ENCODING 19991
SWIDTH 1000 0
DWIDTH 14 0
BBX 13 13 0 -1
BITMAP
0400
2420
2420
2420
FFF8
2420
2420
2420
2420
2420
2420
3FE0
2020
ENDCHAR
STARTCHAR U_4E18
ENCODING 19992
SWIDTH 1000 0
DWIDTH 14 0
BBX 13 13 0 -1
BITMAP
03C0
3C00
2000
2000
2000
3FF0
2100
2100
2100
2100
2100
2100
FFF8
ENDCHAR
STARTCHAR U_4E19
ENCODING 19993
SWIDTH 1000 0
DWIDTH 14 0
BBX 13 12 0 -1
BITMAP
FFF8
0200
0200
7FF0
4210
4210
4510
4890
5090
4010
4050
4020
ENDCHAR
STARTCHAR U_4E1A
ENCODING 19994
SWIDTH 1000 0
DWIDTH 14 0
BBX 13 13 0 -1
BITMAP
0900
0900
0900
0920
8920
4940
2940
2980
0900
0900
0900
0900
FFF8
ENDCHAR
STARTCHAR U_4E1B
ENCODING 19995
SWIDTH 1000 0
DWIDTH 14 0
BBX 13 13 0 -1
BITMAP
1080
1080
1080
1080
1080
1080
2940
2540
4540
4220
8C18
0000
FFF8
ENDCHAR
STARTCHAR U_4E1C
ENCODING 19996
SWIDTH 1000 0
DWIDTH 14 0
BBX 13 13 0 -1
BITMAP
0400
0400
FFF8
0800
1200
2200
7FF0
0200
1240
1220
2210
4A10
0400
ENDCHAR
STARTCHAR U_4E1D
ENCODING 19997
SWIDTH 1000 0
DWIDTH 14 0
BBX 13 13 0 -1
BITMAP
1040
1040
1040
2080
2490
79E0
1020
1040
2080
7DF0
0000
0000
FFF8
ENDCHAR
STARTCHAR U_4E1E
ENCODING 19998
SWIDTH 1000 0
DWIDTH 14 0
BBX 13 13 0 -1
BITMAP
3FC0
0080
0100
FA10
0A20
0B40
1280
2240
4220
8218
0A00
0400
FFF8
ENDCHAR
STARTCHAR U_4E1F
ENCODING 19999
SWIDTH 1000 0
DWIDTH 14 0
BBX 13 12 0 -1
BITMAP
7FE0
0400
3FC0
0400
0400
FFF8
0400
0800
0880
1040
3FC0
1040
ENDCHAR
STARTCHAR U_4E20
ENCODING 20000
SWIDTH 1000 0
DWIDTH 14 0
BBX 13 13 0 -1
BITMAP
0900
0900
0908
F910
09E0
0900
0900
0900
3908
C908
08F8
0000
FFF8
ENDCHAR
STARTCHAR U_4E21
ENCODING 20001
SWIDTH 1000 0
DWIDTH 14 0
BBX 13 12 0 -1
BITMAP
FFF8
0200
7FF0
4210
5250
5250
5250
5FD0
5050
4010
4010
4070
ENDCHAR
STARTCHAR U_4E22
ENCODING 20002
SWIDTH 1000 0
DWIDTH 14 0
BBX 13 13 0 -1
BITMAP
01C0
3E00
0200
3FF0
0200
0200
FFF8
0400
0880
0880
1040
3FE0
1020
ENDCHAR
STARTCHAR U_4E23
ENCODING 20003
SWIDTH 1000 0
DWIDTH 14 0
BBX 13 13 0 -1
BITMAP
0010
FFF8
0880
0880
78F0
4890
4890
78F0
0880
1080
1080
1080
2080
ENDCHAR
STARTCHAR U_4E24
ENCODING 20004
SWIDTH 1000 0
DWIDTH 14 0
BBX 13 13 0 -1
BITMAP
FFF8
0900
0900
7FF0
4910
4910
4910
5590
5250
6430
4010
4050
4020
ENDCHAR
STARTCHAR U_4E25
ENCODING 20005
SWIDTH 1000 0
DWIDTH 14 0
BBX 13 12 0 -1
BITMAP
7FF8
0480
24A0
14C0
0480
3FF0
2000
2000
2000
4000
4000
8000
ENDCHAR
STARTCHAR U_4E26
ENCODING 20006
SWIDTH 1000 0
DWIDTH 14 0
BBX 13 13 0 -1
BITMAP
2020
1040
1080
FFF8
0880
0880
4890
28A0
28C0
0880
0880
0880
FFF8
ENDCHAR
STARTCHAR U_4E27
ENCODING 20007
SWIDTH 1000 0
DWIDTH 14 0
BBX 13 13 0 -1
BITMAP
0400
FFF8
0400
2480
1500
FFF0
2400
2440
2440
2280
2100
28C0
3038
ENDCHAR
STARTCHAR U_4E28
ENCODING 20008
SWIDTH 1000 0
DWIDTH 14 0
BBX 2 13 7 -1
BITMAP
80
C0
80
80
80
80
80
80
80
80
80
80
80
ENDCHAR
STARTCHAR U_4E29
ENCODING 20009
SWIDTH 1000 0
DWIDTH 14 0
BBX 6 13 4 -1
BITMAP
04
84
84
84
84
8C
B4
C4
84
04
04
04
04
ENDCHAR
STARTCHAR U_4E2A
ENCODING 20010
SWIDTH 1000 0
DWIDTH 14 0
BBX 13 13 0 -1
BITMAP
0400
0400
0A00
1100
2480
4440
8438
0400
0400
0400
0400
0400
0400
ENDCHAR
STARTCHAR U_4E2B
ENCODING 20011
SWIDTH 1000 0
DWIDTH 14 0
BBX 9 13 3 -1
BITMAP
8080
4080
2100
2200
0C00
0800
0800
0800
0800
0800
0800
0800
0800
ENDCHAR
STARTCHAR U_4E2C
ENCODING 20012
SWIDTH 1000 0
DWIDTH 14 0
BBX 6 13 2 -1
BITMAP
04
44
24
24
04
14
24
C4
44
04
04
04
04
ENDCHAR
STARTCHAR U_4E2D
ENCODING 20013
SWIDTH 1000 0
DWIDTH 14 0
BBX 11 14 1 -1
BITMAP
0400
0400
0400
FFE0
8420
8420
8420
FFE0
8420
0400
0400
0400
0400
0400
ENDCHAR
STARTCHAR U_4E2E
ENCODING 20014
SWIDTH 1000 0
DWIDTH 14 0
BBX 13 12 0 -1
BITMAP
FFC0
1040
1040
FE40
1040
1040
FE40
1048
1028
1018
1008
1008
ENDCHAR
STARTCHAR U_4E2F
ENCODING 20015
SWIDTH 1000 0
DWIDTH 14 0
BBX 13 13 0 -1
BITMAP
0200
0270
0F80
7200
0270
0F80
7208
0270
0F80
F200
0200
0200
0200
ENDCHAR
STARTCHAR U_4E30
ENCODING 20016
SWIDTH 1000 0
DWIDTH 14 0
BBX 13 13 0 -1
BITMAP
0200
0200
7FF0
0200
0200
3FE0
0200
0200
FFF8
0200
0200
0200
0200
ENDCHAR
STARTCHAR U_4E31
ENCODING 20017
SWIDTH 1000 0
DWIDTH 14 0
BBX 10 13 1 -1
BITMAP
1200
1200
9240
9240
9240
9240
B3C0
D240
1200
2200
4200
8200
8200
ENDCHAR
STARTCHAR U_4E32
ENCODING 20018
SWIDTH 1000 0
DWIDTH 14 0
BBX 11 13 1 -1
BITMAP
0800
0800
7FC0
4840
7FC0
0800
FFE0
8820
8820
FFE0
0800
0800
0800
ENDCHAR
STARTCHAR U_4E33
ENCODING 20019
SWIDTH 1000 0
DWIDTH 14 0
BBX 10 13 1 -1
BITMAP
1200
1200
1200
7F80
5280
7F80
1200
FFC0
9240
FFC0
1200
2200
C200
ENDCHAR
STARTCHAR U_4E34
ENCODING 20020
SWIDTH 1000 0
DWIDTH 14 0
BBX 13 13 0 -1
BITMAP
2400
2400
A7F8
A800
B080
A040
AFF0
A890
A890
2890
2890
2FF0
2810
ENDCHAR
STARTCHAR U_4E35
ENCODING 20021
SWIDTH 1000 0
DWIDTH 14 0
BBX 13 13 0 -1
BITMAP
0500
4520
3520
1540
FFF8
0880
0500
7FF8
0200
FFF8
0200
0200
0200
ENDCHAR
STARTCHAR U_4E36
ENCODING 20022
SWIDTH 1000 0
DWIDTH 14 0
BBX 4 5 5 5
BITMAP
80
40
20
30
10
ENDCHAR
STARTCHAR U_4E37
ENCODING 20023
SWIDTH 1000 0
DWIDTH 14 0
BBX 11 5 1 3
BITMAP
8060
4040
3080
1100
0600
ENDCHAR
STARTCHAR U_4E38
ENCODING 20024
SWIDTH 1000 0
DWIDTH 14 0
BBX 13 13 0 -1
BITMAP
0800
0800
0800
7F00
0900
2900
1900
0D00
1500
1500
1108
2108
C0F8
ENDCHAR
STARTCHAR U_4E39
ENCODING 20025
SWIDTH 1000 0
DWIDTH 14 0
BBX 13 13 0 -1
BITMAP
1FE0
1020
1420
1220
1220
1020
FFF8
1020
1020
2020
2020
2120
40C0
ENDCHAR
STARTCHAR U_4E3A
ENCODING 20026
SWIDTH 1000 0
DWIDTH 14 0
BBX 12 13 0 -1
BITMAP
0200
1200
0A00
FFF0
0410
0410
0510
0890
0890
1010
2010
40A0
8040
ENDCHAR
STARTCHAR U_4E3B
ENCODING 20027
SWIDTH 1000 0
DWIDTH 14 0
BBX 13 13 0 -1
BITMAP
0400
0200
0000
7FF0
0200
0200
0200
3FE0
0200
0200
0200
0200
FFF8
ENDCHAR
STARTCHAR U_4E3C
ENCODING 20028
SWIDTH 1000 0
DWIDTH 14 0
BBX 13 13 0 -1
BITMAP
0880
0880
0880
7FE0
0880
0C80
0A80
FFF8
0880
0880
1080
2080
2080
ENDCHAR
STARTCHAR U_4E3D
ENCODING 20029
SWIDTH 1000 0
DWIDTH 14 0
BBX 13 12 0 -1
BITMAP
FFF8
0000
7DF0
4510
4510
6590
5550
5550
4510
4510
4510
4D30
ENDCHAR
STARTCHAR U_4E3E
ENCODING 20030
SWIDTH 1000 0
DWIDTH 14 0
BBX 13 13 0 -1
BITMAP
4840
2480
2500
FFF0
1100
2480
5F40
8438
0400
FFF0
0400
0400
0400
ENDCHAR
STARTCHAR U_4E3F
ENCODING 20031
SWIDTH 1000 0
DWIDTH 14 0
BBX 4 13 5 -1
BITMAP
10
10
10
10
10
10
10
10
20
20
20
40
80
ENDCHAR
STARTCHAR U_4E40
ENCODING 20032
SWIDTH 1000 0
DWIDTH 14 0
BBX 13 10 0 1
BITMAP
2000
2000
5000
9000
0800
0400
0200
0180
0078
0010
ENDCHAR
STARTCHAR U_4E41
ENCODING 20033
SWIDTH 1000 0
DWIDTH 14 0
BBX 13 12 0 -1
BITMAP
FE00
0200
0200
0200
0200
0200
0100
0100
0080
0040
0020
0018
ENDCHAR
STARTCHAR U_4E42
ENCODING 20034
SWIDTH 1000 0
DWIDTH 14 0
BBX 11 13 2 -1
BITMAP
0080
20C0
2080
2100
1100
1100
1100
0A00
0400
0A00
1100
20E0
C040
ENDCHAR
STARTCHAR U_4E43
ENCODING 20035
SWIDTH 1000 0
DWIDTH 14 0
BBX 12 12 0 -1
BITMAP
7FE0
0840
0840
0880
08F0
0810
1010
1010
1010
2010
40A0
8040
ENDCHAR
STARTCHAR U_4E44
ENCODING 20036
SWIDTH 1000 0
DWIDTH 14 0
BBX 12 13 0 -1
BITMAP
0010
0010
0010
0420
0420
0220
0140
00C0
00A0
0130
8210
9C00
E000
ENDCHAR
STARTCHAR U_4E45
ENCODING 20037
SWIDTH 1000 0
DWIDTH 14 0
BBX 13 13 0 -1
BITMAP
0800
0800
0F00
1100
1100
2200
4200
0200
0500
0900
1080
2040
C038
ENDCHAR
STARTCHAR U_4E46
ENCODING 20038
SWIDTH 1000 0
DWIDTH 14 0
BBX 13 13 0 -1
BITMAP
1000
1100
1100
2100
2100
3E00
0200
0200
0500
0880
1040
2038
C010
ENDCHAR
STARTCHAR U_4E47
ENCODING 20039
SWIDTH 1000 0
DWIDTH 14 0
BBX 13 13 0 -1
BITMAP
00E0
0300
7C00
0400
0400
07F0
FC00
0400
0400
0408
0408
0408
03F8
ENDCHAR
STARTCHAR U_4E48
ENCODING 20040
SWIDTH 1000 0
DWIDTH 14 0
BBX 11 13 0 -1
BITMAP
0400
0400
0400
0900
0900
1100
2200
4200
8400
0880
1040
3FE0
1020
ENDCHAR
STARTCHAR U_4E49
ENCODING 20041
SWIDTH 1000 0
DWIDTH 14 0
BBX 13 13 0 -1
BITMAP
0400
0240
1240
1040
1040
0880
0880
0500
0200
0500
0880
3060
C018
ENDCHAR
STARTCHAR U_4E4A
ENCODING 20042
SWIDTH 1000 0
DWIDTH 14 0
BBX 11 9 1 2
BITMAP
00E0
0F00
F040
0060
8040
4080
2080
2100
0600
ENDCHAR
STARTCHAR U_4E4B
ENCODING 20043
SWIDTH 1000 0
DWIDTH 14 0
BBX 13 13 0 -1
BITMAP
0400
0200
0240
7FE0
0080
0100
0200
0400
0800
1000
6000
9800
07F8
ENDCHAR
STARTCHAR U_4E4C
ENCODING 20044
SWIDTH 1000 0
DWIDTH 14 0
BBX 12 13 0 -1
BITMAP
0400
3FC0
2040
2040
2180
2000
3FF0
0010
0010
FFD0
0010
00A0
0040
ENDCHAR
STARTCHAR U_4E4D
ENCODING 20045
SWIDTH 1000 0
DWIDTH 14 0
BBX 13 13 0 -1
BITMAP
0800
0800
0FF8
1200
2200
C3F0
0200
0200
03F0
0200
0200
0200
0200
ENDCHAR
STARTCHAR U_4E4E
ENCODING 20046
SWIDTH 1000 0
DWIDTH 14 0
BBX 13 13 0 -1
BITMAP
01C0
7E00
0480
2480
1500
0400
FFF8
0400
0400
0400
0400
1400
0800
ENDCHAR
STARTCHAR U_4E4F
ENCODING 20047
SWIDTH 1000 0
DWIDTH 14 0
BBX 12 13 1 -1
BITMAP
03C0
FC00
0800
0400
FFC0
0100
0200
0400
0800
1000
3000
4C00
83F0
ENDCHAR
STARTCHAR U_4E50
ENCODING 20048
SWIDTH 1000 0
DWIDTH 14 0
BBX 13 13 0 -1
BITMAP
03E0
3C00
2000
2200
2200
3FF8
0200
1240
1220
2220
4210
8210
0E00
ENDCHAR
STARTCHAR U_4E51
ENCODING 20049
SWIDTH 1000 0
DWIDTH 14 0
BBX 13 13 0 -1
BITMAP
01E0
7E00
0200
1240
1280
2300
4A00
8B00
1280
2278
C220
0200
0200
ENDCHAR
STARTCHAR U_4E52
ENCODING 20050
SWIDTH 1000 0
DWIDTH 14 0
BBX 13 13 0 -1
BITMAP
0180
1E00
1000
1000
1FF0
1080
1080
FFF8
0000
1000
1000
2000
C000
ENDCHAR
STARTCHAR U_4E53
ENCODING 20051
SWIDTH 1000 0
DWIDTH 14 0
BBX 13 13 0 -1
BITMAP
0180
3E00
2000
2000
3FF0
2200
2200
FFF8
0000
0100
0100
0080
0070
ENDCHAR
STARTCHAR U_4E54
ENCODING 20052
SWIDTH 1000 0
DWIDTH 14 0
BBX 13 13 0 -1
BITMAP
00E0
7F00
0400
0400
FFF8
0880
1040
30A0
D098
1080
1080
2080
4080
ENDCHAR
STARTCHAR U_4E55
ENCODING 20053
SWIDTH 1000 0
DWIDTH 14 0
BBX 13 13 0 -1
BITMAP
00F0
7F00
4200
5FF0
4200
7FF8
4200
5FF0
5210
5210
9270
8200
8200
ENDCHAR
STARTCHAR U_4E56
ENCODING 20054
SWIDTH 1000 0
DWIDTH 14 0
BBX 13 13 0 -1
BITMAP
01E0
7E00
0410
FFF8
1500
F510
15E0
1500
3510
D4F0
0400
0400
0400
ENDCHAR
STARTCHAR U_4E57
ENCODING 20055
SWIDTH 1000 0
DWIDTH 14 0
BBX 13 13 0 -1
BITMAP
00F0
7F00
0400
7FF0
1480
FFF8
1480
7FF0
0D00
1480
2440
2440
C438
ENDCHAR
STARTCHAR U_4E58
ENCODING 20056
SWIDTH 1000 0
DWIDTH 14 0
BBX 13 13 0 -1
BITMAP
01C0
3E00
0200
FFF8
0A90
7AE0
0A90
7670
0B00
1280
2260
C218
0200
ENDCHAR
STARTCHAR U_4E59
ENCODING 20057
SWIDTH 1000 0
DWIDTH 14 0
BBX 12 12 1 -1
BITMAP
FFC0
0100
0200
0400
0800
1000
2000
4000
8010
8010
8010
7FF0
ENDCHAR
STARTCHAR U_4E5A
ENCODING 20058
SWIDTH 1000 0
DWIDTH 14 0
BBX 9 13 2 -1
BITMAP
8000
8000
8000
8000
8000
8000
8000
8000
8080
8080
8080
8080
7F80
ENDCHAR
STARTCHAR U_4E5B
ENCODING 20059
SWIDTH 1000 0
DWIDTH 14 0
BBX 13 4 0 7
BITMAP
0010
FFF8
0010
0020
ENDCHAR
STARTCHAR U_4E5C
ENCODING 20060
SWIDTH 1000 0
DWIDTH 14 0
BBX 13 13 0 -1
BITMAP
0800
0800
0820
08F0
0B20
FC20
0820
08A0
0840
0840
0808
0808
07F8
ENDCHAR
STARTCHAR U_4E5D
ENCODING 20061
SWIDTH 1000 0
DWIDTH 14 0
BBX 13 13 0 -1
BITMAP
0800
0800
0840
FFE0
0840
0840
0840
0840
1040
1040
1048
2048
C038
ENDCHAR
STARTCHAR U_4E5E
ENCODING 20062
SWIDTH 1000 0
DWIDTH 14 0
BBX 12 13 0 -1
BITMAP
2000
2000
3FE0
4000
8000
3F00
0400
0800
1000
2010
2010
2010
1FF0
ENDCHAR
STARTCHAR U_4E5F
ENCODING 20063
SWIDTH 1000 0
DWIDTH 14 0
BBX 13 13 0 -1
BITMAP
0200
0200
1260
13A0
1E20
1220
F220
12A0
1240
1008
1008
1008
0FF8
ENDCHAR
STARTCHAR U_4E60
ENCODING 20064
SWIDTH 1000 0
DWIDTH 14 0
BBX 11 12 1 -1
BITMAP
FFE0
0020
1020
0820
0820
01A0
0620
1820
E020
0020
00A0
0040
ENDCHAR
STARTCHAR U_4E61
ENCODING 20065
SWIDTH 1000 0
DWIDTH 14 0
BBX 11 13 1 -1
BITMAP
0200
0400
0800
1080
3F00
0200
0400
0820
7FC0
0080
0100
0E00
F000
ENDCHAR
STARTCHAR U_4E62
ENCODING 20066
SWIDTH 1000 0
DWIDTH 14 0
BBX 12 12 1 -1
BITMAP
2200
2200
AA00
AA00
AA00
AA00
AA00
AA00
AA00
BA10
EA10
81F0
ENDCHAR
STARTCHAR U_4E63
ENCODING 20067
SWIDTH 1000 0
DWIDTH 14 0
BBX 12 13 1 -1
BITMAP
2200
2200
4200
8A00
FA00
1200
2200
2200
2200
4210
9210
FA10
09F0
ENDCHAR
STARTCHAR U_4E64
ENCODING 20068
SWIDTH 1000 0
DWIDTH 14 0
BBX 13 13 0 -1
BITMAP
FFF8
0400
0440
0430
0410
FFE0
0040
0380
0C00
3008
4008
4008
3FF8
ENDCHAR
STARTCHAR U_4E65
ENCODING 20069
SWIDTH 1000 0
DWIDTH 14 0
BBX 12 13 0 -1
BITMAP
01F0
FE20
4040
2180
0000
FFE0
0040
0380
1C00
6010
8010
8010
7FF0
ENDCHAR
STARTCHAR U_4E66
ENCODING 20070
SWIDTH 1000 0
DWIDTH 14 0
BBX 12 13 1 -1
BITMAP
0440
0430
7FD0
0440
0440
0440
FFF0
0410
0410
0410
04A0
0440
0400
ENDCHAR
STARTCHAR U_4E67
ENCODING 20071
SWIDTH 1000 0
DWIDTH 14 0
BBX 13 13 0 -1
BITMAP
0080
0880
2480
10F8
FF80
0080
0080
7FE0
0180
0600
1808
2008
1FF8
ENDCHAR
STARTCHAR U_4E68
ENCODING 20072
SWIDTH 1000 0
DWIDTH 14 0
BBX 13 13 0 -1
BITMAP
1080
1080
2080
4480
FE80
0280
7C80
4480
4480
4488
4488
7C88
4478
ENDCHAR
STARTCHAR U_4E69
ENCODING 20073
SWIDTH 1000 0
DWIDTH 14 0
BBX 13 13 0 -1
BITMAP
2080
2080
2480
3E80
2080
2080
FC80
8480
8480
8488
8488
FC88
8478
ENDCHAR
STARTCHAR U_4E6A
ENCODING 20074
SWIDTH 1000 0
DWIDTH 14 0
BBX 13 13 0 -1
BITMAP
F000
13E0
12A0
22A0
22A0
23E0
42A0
42A0
42A0
42A0
83E8
8008
7FF8
ENDCHAR
STARTCHAR U_4E6B
ENCODING 20075
SWIDTH 1000 0
DWIDTH 14 0
BBX 13 13 0 -1
BITMAP
2000
FCF8
2488
2488
54F8
8888
0000
7FE0
0300
0C08
1008
2008
1FF8
ENDCHAR
STARTCHAR U_4E6C
ENCODING 20076
SWIDTH 1000 0
DWIDTH 14 0
BBX 13 13 0 -1
BITMAP
7FF0
4000
7FE0
4020
7FE0
4000
7FF0
0000
FFC0
0600
1808
2008
1FF8
ENDCHAR
STARTCHAR U_4E6D
ENCODING 20077
SWIDTH 1000 0
DWIDTH 14 0
BBX 13 13 0 -1
BITMAP
FFF8
0800
1FF0
2810
C810
0FF0
0000
7FE0
0180
0608
1808
2008
1FF8
ENDCHAR
STARTCHAR U_4E6E
ENCODING 20078
SWIDTH 1000 0
DWIDTH 14 0
BBX 13 13 0 -1
BITMAP
0C00
71F0
4510
5D10
6550
0920
1100
FFE0
0180
0600
1808
2008
1FF8
ENDCHAR
STARTCHAR U_4E6F
ENCODING 20079
SWIDTH 1000 0
DWIDTH 14 0
BBX 13 13 0 -1
BITMAP
01F0
7E40
1280
FFF8
0200
0A00
0400
7FE0
0180
0600
1808
2008
1FF8
ENDCHAR
STARTCHAR U_4E70
ENCODING 20080
SWIDTH 1000 0
DWIDTH 14 0
BBX 13 13 0 -1
BITMAP
7FF8
0010
1220
0A00
0A00
2200
1200
FFF8
0200
0500
0880
3040
C038
ENDCHAR
STARTCHAR U_4E71
ENCODING 20081
SWIDTH 1000 0
DWIDTH 14 0
BBX 13 13 0 -1
BITMAP
0C80
7080
1080
1080
FE80
1080
1080
7C80
4480
4480
4488
7C88
4478
ENDCHAR
STARTCHAR U_4E72
ENCODING 20082
SWIDTH 1000 0
DWIDTH 14 0
BBX 13 13 0 -1
BITMAP
4400
27F8
0890
2180
C240
4C38
0010
7FE0
0180
0600
1808
2008
1FF8
ENDCHAR
STARTCHAR U_4E73
ENCODING 20083
SWIDTH 1000 0
DWIDTH 14 0
BBX 13 13 0 -1
BITMAP
0F00
F500
9500
4900
FD00
0900
1100
1D00
F100
1108
1108
5108
20F8
ENDCHAR
STARTCHAR U_4E74
ENCODING 20084
SWIDTH 1000 0
DWIDTH 14 0
BBX 13 13 0 -1
BITMAP
1030
FDC0
1100
1DF8
F120
5220
3420
7FE0
0180
0600
1808
2008
1FF8
ENDCHAR
STARTCHAR U_4E75
ENCODING 20085
SWIDTH 1000 0
DWIDTH 14 0
BBX 13 13 0 -1
BITMAP
1080
0880
FF80
2280
1480
FF80
0880
0880
7E80
0888
0888
0888
0878
ENDCHAR
STARTCHAR U_4E76
ENCODING 20086
SWIDTH 1000 0
DWIDTH 14 0
BBX 13 13 0 -1
BITMAP
0240
FFF8
2220
3FE0
2220
3FE0
2220
FFF0
0180
0600
1808
2008
1FF8
ENDCHAR
STARTCHAR U_4E77
ENCODING 20087
SWIDTH 1000 0
DWIDTH 14 0
BBX 13 13 0 -1
BITMAP
4080
2290
8288
5490
20E0
CF80
4000
7FE0
0180
0600
1808
2008
1FF8
ENDCHAR
STARTCHAR U_4E78
ENCODING 20088
SWIDTH 1000 0
DWIDTH 14 0
BBX 13 13 0 -1
BITMAP
2000
23F0
2A10
BA50
EA50
AFF8
AA10
AA50
8A50
8A50
93F8
8028
7FF8
ENDCHAR
STARTCHAR U_4E79
ENCODING 20089
SWIDTH 1000 0
DWIDTH 14 0
BBX 13 13 0 -1
BITMAP
1100
7D00
1100
7D00
4500
7D00
4500
4500
7D08
1108
FF08
1108
10F8
ENDCHAR
STARTCHAR U_4E7A
ENCODING 20090
SWIDTH 1000 0
DWIDTH 14 0
BBX 13 13 0 -1
BITMAP
1C30
21C0
3D00
25F8
3D20
4220
8420
7FE0
0180
0600
1808
2008
1FF8
ENDCHAR
STARTCHAR U_4E7B
ENCODING 20091
SWIDTH 1000 0
DWIDTH 14 0
BBX 13 13 0 -1
BITMAP
1040
FE60
2090
3F48
2220
4AC0
8420
7FC0
0180
0600
1808
2008
1FF8
ENDCHAR
STARTCHAR U_4E7C
ENCODING 20092
SWIDTH 1000 0
DWIDTH 14 0
BBX 13 13 0 -1
BITMAP
4080
2FF8
8080
53F0
2080
CFF8
4000
7FE0
0180
0600
1808
2008
1FF8
ENDCHAR
STARTCHAR U_4E7D
ENCODING 20093
SWIDTH 1000 0
DWIDTH 14 0
BBX 13 13 0 -1
BITMAP
0210
1FE0
0240
FFF8
0A20
3920
CFE0
0000
7FC0
0308
0C08
1008
0FF8
ENDCHAR
STARTCHAR U_4E7E
ENCODING 20094
SWIDTH 1000 0
DWIDTH 14 0
BBX 13 13 0 -1
BITMAP
1080
FE80
10F8
7D00
4400
7CF0
4410
7C20
1040
FC88
1088
1088
1078
ENDCHAR
STARTCHAR U_4E7F
ENCODING 20095
SWIDTH 1000 0
DWIDTH 14 0
BBX 13 13 0 -1
BITMAP
0E80
F280
5480
2880
2480
7880
1480
2280
FF80
0888
2A88
4988
1878
ENDCHAR
STARTCHAR U_4E80
ENCODING 20096
SWIDTH 1000 0
DWIDTH 14 0
BBX 13 13 0 -1
BITMAP
1FC0
2080
FFE0
2220
3FE0
2220
7FF0
4210
7FF0
4210
7FF8
0208
03F8
ENDCHAR
STARTCHAR U_4E81
ENCODING 20097
SWIDTH 1000 0
DWIDTH 14 0
BBX 13 13 0 -1
BITMAP
1080
FE80
10F8
7D00
4600
7DF0
4410
7C20
0040
7C80
1108
FD08
10F8
ENDCHAR
STARTCHAR U_4E82
ENCODING 20098
SWIDTH 1000 0
DWIDTH 14 0
BBX 13 13 0 -1
BITMAP
0680
F880
5280
2C80
FE80
2480
FE80
AA80
FE88
AA88
AA88
9288
AE78
ENDCHAR
STARTCHAR U_4E83
ENCODING 20099
SWIDTH 1000 0
DWIDTH 14 0
BBX 13 13 0 -1
BITMAP
9280
5480
FE80
3880
5480
9280
9280
4280
6F80
AA88
6F88
4288
8278
ENDCHAR
STARTCHAR U_4E84
ENCODING 20100
SWIDTH 1000 0
DWIDTH 14 0
BBX 13 13 0 -1
BITMAP
1080
FE80
1080
7C80
0080
FE80
8280
7C80
4480
7C88
4888
2E88
F078
ENDCHAR
STARTCHAR U_4E85
ENCODING 20101
SWIDTH 1000 0
DWIDTH 14 0
BBX 3 13 5 -1
BITMAP
20
20
20
20
20
20
20
20
20
20
20
A0
40
ENDCHAR
STARTCHAR U_4E86
ENCODING 20102
SWIDTH 1000 0
DWIDTH 14 0
BBX 11 13 1 -1
BITMAP
FFE0
0040
0080
0300
0200
0200
0200
0200
0200
0200
0200
0A00
0400
ENDCHAR
STARTCHAR U_4E87
ENCODING 20103
SWIDTH 1000 0
DWIDTH 14 0
BBX 12 13 0 -1
BITMAP
1000
1000
1FF0
2210
4220
8200
0200
0200
0200
0200
0200
0A00
0400
ENDCHAR
STARTCHAR U_4E88
ENCODING 20104
SWIDTH 1000 0
DWIDTH 14 0
BBX 11 13 0 -1
BITMAP
7F80
0100
1A00
0400
FFE0
0440
0480
0400
0400
0400
0400
1400
0800
ENDCHAR
STARTCHAR U_4E89
ENCODING 20105
SWIDTH 1000 0
DWIDTH 14 0
BBX 13 13 0 -1
BITMAP
0800
0F80
1080
2100
3FE0
0220
FFF8
0220
3FE0
0200
0200
0A00
0400
ENDCHAR
STARTCHAR U_4E8A
ENCODING 20106
SWIDTH 1000 0
DWIDTH 14 0
BBX 13 13 0 -1
BITMAP
0400
FFF8
2480
1500
7FC0
0440
FFF8
0440
7FC0
0400
0400
1400
0800
ENDCHAR
STARTCHAR U_4E8B
ENCODING 20107
SWIDTH 1000 0
DWIDTH 14 0
BBX 13 13 0 -1
BITMAP
0200
FFF8
0200
1FC0
1240
3FE0
0220
FFF8
0220
3FE0
0200
0A00
0400
ENDCHAR
STARTCHAR U_4E8C
ENCODING 20108
SWIDTH 1000 0
DWIDTH 14 0
BBX 13 9 0 1
BITMAP
3FE0
0000
0000
0000
0000
0000
0000
0000
FFF8
ENDCHAR
STARTCHAR U_4E8D
ENCODING 20109
SWIDTH 1000 0
DWIDTH 14 0
BBX 13 13 0 -1
BITMAP
3FE0
0000
0000
0000
FFF8
0200
0200
0200
0200
0200
0200
0A00
0400
ENDCHAR
STARTCHAR U_4E8E
ENCODING 20110
SWIDTH 1000 0
DWIDTH 14 0
BBX 13 12 0 -1
BITMAP
3FE0
0200
0200
0200
FFF8
0200
0200
0200
0200
0200
0A00
0400
ENDCHAR
STARTCHAR U_4E8F
ENCODING 20111
SWIDTH 1000 0
DWIDTH 14 0
BBX 13 13 0 -1
BITMAP
3FC0
0000
0000
FFF8
0800
1000
3FE0
0020
0020
0020
0020
0240
0180
ENDCHAR
STARTCHAR U_4E90
ENCODING 20112
SWIDTH 1000 0
DWIDTH 14 0
BBX 13 13 0 -1
BITMAP
3FF0
0400
0400
FFF8
0800
0800
0FE0
0020
0020
0020
0020
0140
0080
ENDCHAR
STARTCHAR U_4E91
ENCODING 20113
SWIDTH 1000 0
DWIDTH 14 0
BBX 13 12 0 -1
BITMAP
3FE0
0000
0000
0000
FFF8
0400
0400
0840
1020
2020
7FD0
2010
ENDCHAR
STARTCHAR U_4E92
ENCODING 20114
SWIDTH 1000 0
DWIDTH 14 0
BBX 13 12 0 -1
BITMAP
7FF0
0800
0800
0FC0
1040
1040
1040
1F80
0080
0080
0080
FFF8
ENDCHAR
STARTCHAR U_4E93
ENCODING 20115
SWIDTH 1000 0
DWIDTH 14 0
BBX 13 13 0 -1
BITMAP
3FC0
0000
0000
0000
FFF8
1080
1080
1080
1080
2080
2080
2080
4080
ENDCHAR
STARTCHAR U_4E94
ENCODING 20116
SWIDTH 1000 0
DWIDTH 14 0
BBX 13 12 0 -1
BITMAP
3FE0
0200
0200
0200
0200
3FC0
0440
0440
0440
0840
0840
FFF8
ENDCHAR
STARTCHAR U_4E95
ENCODING 20117
SWIDTH 1000 0
DWIDTH 14 0
BBX 13 13 0 -1
BITMAP
0880
0880
0880
7FF0
0880
0880
0880
FFF8
0880
0880
1080
1080
2080
ENDCHAR
STARTCHAR U_4E96
ENCODING 20118
SWIDTH 1000 0
DWIDTH 14 0
BBX 13 12 0 -1
BITMAP
3FF0
0000
0000
FFF8
0000
0000
3FF0
0000
0000
0000
0000
FFF8
ENDCHAR
STARTCHAR U_4E97
ENCODING 20119
SWIDTH 1000 0
DWIDTH 14 0
BBX 13 13 0 -1
BITMAP
0200
4210
4210
4210
7FF0
4010
0000
0000
3FE0
0000
0000
0000
FFF8
ENDCHAR
STARTCHAR U_4E98
ENCODING 20120
SWIDTH 1000 0
DWIDTH 14 0
BBX 12 12 0 -1
BITMAP
FFF0
0000
3FC0
2040
2040
3FC0
2040
2040
3FC0
2040
0000
FFF0
ENDCHAR
STARTCHAR U_4E99
ENCODING 20121
SWIDTH 1000 0
DWIDTH 14 0
BBX 12 12 1 -1
BITMAP
FFF0
1000
1000
1F00
2100
2900
4500
5200
5200
0A00
0200
FFF0
ENDCHAR
STARTCHAR U_4E9A
ENCODING 20122
SWIDTH 1000 0
DWIDTH 14 0
BBX 13 12 0 -1
BITMAP
7FF0
0880
0880
0880
4890
4890
28A0
28C0
0880
0880
0880
FFF8
ENDCHAR
STARTCHAR U_4E9B
ENCODING 20123
SWIDTH 1000 0
DWIDTH 14 0
BBX 13 13 0 -1
BITMAP
1100
1100
5130
5DC0
5100
5108
5D08
E0F8
0000
3FC0
0000
0000
FFF8
ENDCHAR
STARTCHAR U_4E9C
ENCODING 20124
SWIDTH 1000 0
DWIDTH 14 0
BBX 13 13 0 -1
BITMAP
FFF8
0900
0900
0900
7FF0
4910
4910
4910
7FF0
0900
0900
0900
FFF8
ENDCHAR
STARTCHAR U_4E9D
ENCODING 20125
SWIDTH 1000 0
DWIDTH 14 0
BBX 13 13 0 -1
BITMAP
0400
0840
1FE0
0000
2020
4848
FDF8
0008
3FE0
0000
0000
0000
FFF8
ENDCHAR
STARTCHAR U_4E9E
ENCODING 20126
SWIDTH 1000 0
DWIDTH 14 0
BBX 13 12 0 -1
BITMAP
FFF8
0880
0880
78F0
4010
4010
4010
4010
78F0
0880
0880
FFF8
ENDCHAR
STARTCHAR U_4E9F
ENCODING 20127
SWIDTH 1000 0
DWIDTH 14 0
BBX 13 13 0 -1
BITMAP
7FC0
0100
0200
75E0
5520
5540
5480
5480
7480
0560
1620
0800
FFF8
ENDCHAR
STARTCHAR U_4EA0
ENCODING 20128
SWIDTH 1000 0
DWIDTH 14 0
BBX 13 4 0 8
BITMAP
0400
0200
0200
FFF8
ENDCHAR
STARTCHAR U_4EA1
ENCODING 20129
SWIDTH 1000 0
DWIDTH 14 0
BBX 13 12 0 0
BITMAP
0800
0600
0200
FFF8
1000
1000
1000
1000
1000
1000
1000
1FF0
ENDCHAR
STARTCHAR U_4EA2
ENCODING 20130
SWIDTH 1000 0
DWIDTH 14 0
BBX 13 13 0 -1
BITMAP
0800
0400
FFF8
0000
1F80
1080
1080
1080
1080
1080
2090
4090
8070
ENDCHAR
STARTCHAR U_4EA3
ENCODING 20131
SWIDTH 1000 0
DWIDTH 14 0
BBX 13 13 0 -1
BITMAP
0800
0400
0400
FFF8
1100
1100
1100
1100
2100
2100
2100
4100
8100
ENDCHAR
STARTCHAR U_4EA4
ENCODING 20132
SWIDTH 1000 0
DWIDTH 14 0
BBX 13 13 0 -1
BITMAP
0800
0400
FFF8
1080
2040
5120
9100
0900
0A00
0600
0900
30C0
C038
ENDCHAR
STARTCHAR U_4EA5
ENCODING 20133
SWIDTH 1000 0
DWIDTH 14 0
BBX 13 13 0 -1
BITMAP
0400
0200
FFF8
0400
0880
1100
3E40
0480
0900
7300
0480
1840
E020
ENDCHAR
STARTCHAR U_4EA6
ENCODING 20134
SWIDTH 1000 0
DWIDTH 14 0
BBX 13 13 0 -1
BITMAP
0400
0200
FFF8
0880
0880
28A0
2890
4890
0880
1080
1080
2280
4100
ENDCHAR
STARTCHAR U_4EA7
ENCODING 20135
SWIDTH 1000 0
DWIDTH 14 0
BBX 13 13 0 -1
BITMAP
0400
0200
7FF8
0880
0500
3FF8
2000
2000
2000
4000
4000
4000
8000
ENDCHAR
STARTCHAR U_4EA8
ENCODING 20136
SWIDTH 1000 0
DWIDTH 14 0
BBX 11 13 1 -1
BITMAP
0400
FFE0
0000
3F80
2080
3F80
0000
7FC0
0100
0200
0200
0A00
0400
ENDCHAR
STARTCHAR U_4EA9
ENCODING 20137
SWIDTH 1000 0
DWIDTH 14 0
BBX 13 13 0 -1
BITMAP
0400
0200
FFF8
0000
3FC0
2240
2240
3FC0
2240
2240
2240
3FC0
2040
ENDCHAR
STARTCHAR U_4EAA
ENCODING 20138
SWIDTH 1000 0
DWIDTH 14 0
BBX 13 13 0 -1
BITMAP
0400
FFF8
1040
5050
9048
2248
C180
0000
0000
7FC0
0040
0020
0018
ENDCHAR
STARTCHAR U_4EAB
ENCODING 20139
SWIDTH 1000 0
DWIDTH 14 0
BBX 13 13 0 -1
BITMAP
0200
FFF8
0000
3FE0
2020
3FE0
0000
3FE0
0080
FFF8
0200
0200
0E00
ENDCHAR
STARTCHAR U_4EAC
ENCODING 20140
SWIDTH 1000 0
DWIDTH 14 0
BBX 12 13 0 -1
BITMAP
0400
FFF0
0000
3FC0
2040
2040
3FC0
0400
2500
4480
8460
1420
0800
ENDCHAR
STARTCHAR U_4EAD
ENCODING 20141
SWIDTH 1000 0
DWIDTH 14 0
BBX 13 13 0 -1
BITMAP
0200
FFF8
1080
1F80
0000
7FF8
4008
9FD0
0200
0200
0200
0A00
0400
ENDCHAR
STARTCHAR U_4EAE
ENCODING 20142
SWIDTH 1000 0
DWIDTH 14 0
BBX 13 13 0 -1
BITMAP
0200
FFF8
0000
1FC0
1040
1FC0
0000
FFF8
8008
0F80
0880
1088
6078
ENDCHAR
STARTCHAR U_4EAF
ENCODING 20143
SWIDTH 1000 0
DWIDTH 14 0
BBX 13 13 0 -1
BITMAP
0200
FFF8
0000
1FE0
1020
1FE0
0000
3FF0
2010
2010
3FF0
2010
3FF0
ENDCHAR
STARTCHAR U_4EB0
ENCODING 20144
SWIDTH 1000 0
DWIDTH 14 0
BBX 13 13 0 -1
BITMAP
0200
FFF8
0000
3FE0
2020
3FE0
2020
3FE0
0200
2220
2220
4A10
8408
ENDCHAR
STARTCHAR U_4EB1
ENCODING 20145
SWIDTH 1000 0
DWIDTH 14 0
BBX 13 13 0 -1
BITMAP
0200
0100
FFF8
1000
17F0
2410
67F0
A410
2410
27F0
2410
2000
2FF8
ENDCHAR
STARTCHAR U_4EB2
ENCODING 20146
SWIDTH 1000 0
DWIDTH 14 0
BBX 13 13 0 -1
BITMAP
0400
0200
7FF0
1080
0900
FFF8
0200
7FF0
0200
1240
2220
4210
0E00
ENDCHAR
STARTCHAR U_4EB3
ENCODING 20147
SWIDTH 1000 0
DWIDTH 14 0
BBX 13 13 0 -1
BITMAP
0200
FFF8
0000
1F80
1080
FFF8
8008
8788
3C00
07C0
7C10
0410
03F0
ENDCHAR
STARTCHAR U_4EB4
ENCODING 20148
SWIDTH 1000 0
DWIDTH 14 0
BBX 13 13 0 -1
BITMAP
0400
FFF8
1100
1F00
0000
0000
FFF8
8408
3FE0
0400
7FE0
0828
F038
ENDCHAR
STARTCHAR U_4EB5
ENCODING 20149
SWIDTH 1000 0
DWIDTH 14 0
BBX 13 13 0 -1
BITMAP
0200
0200
FFF0
1080
FFE0
12A0
F9A8
1258
7608
0920
F8C0
0A40
1C38
ENDCHAR
STARTCHAR U_4EB6
ENCODING 20150
SWIDTH 1000 0
DWIDTH 14 0
BBX 13 13 0 -1
BITMAP
0400
FFF8
2040
2F40
2940
3FC0
0000
1F80
1080
1080
1F80
1080
FFF8
ENDCHAR
STARTCHAR U_4EB7
ENCODING 20151
SWIDTH 1000 0
DWIDTH 14 0
BBX 12 13 1 -1
BITMAP
0100
0100
FFF0
0440
7FF0
4280
4FE0
42A0
7FF0
42A0
4FE0
86C0
BAB0
ENDCHAR
STARTCHAR U_4EB8
ENCODING 20152
SWIDTH 1000 0
DWIDTH 14 0
BBX 13 13 0 -1
BITMAP
1110
FCA0
2BF8
3A48
03F8
FE48
0BF8
1040
1BF8
F040
1040
1040
3040
ENDCHAR
STARTCHAR U_4EB9
ENCODING 20153
SWIDTH 1000 0
DWIDTH 14 0
BBX 13 13 0 -1
BITMAP
0200
FFF8
0000
3760
2520
2520
3760
2520
FFF8
9040
1FC0
1040
FFF8
ENDCHAR
STARTCHAR U_4EBA
ENCODING 20154
SWIDTH 1000 0
DWIDTH 14 0
BBX 13 13 0 -1
BITMAP
0400
0400
0400
0400
0400
0400
0A00
0A00
1100
1080
2040
4038
8010
ENDCHAR
STARTCHAR U_4EBB
ENCODING 20155
SWIDTH 1000 0
DWIDTH 14 0
BBX 4 13 0 -1
BITMAP
10
10
20
20
60
A0
20
20
20
20
20
20
20
ENDCHAR
STARTCHAR U_4EBC
ENCODING 20156
SWIDTH 1000 0
DWIDTH 14 0
BBX 11 12 2 0
BITMAP
0400
0400
0400
0A00
0A00
1100
1100
2080
4060
0000
0000
FFE0
ENDCHAR
STARTCHAR U_4EBD
ENCODING 20157
SWIDTH 1000 0
DWIDTH 14 0
BBX 13 10 0 2
BITMAP
0200
0200
0500
0480
0840
1020
E418
0210
0180
0080
ENDCHAR
STARTCHAR U_4EBE
ENCODING 20158
SWIDTH 1000 0
DWIDTH 14 0
BBX 13 13 0 -1
BITMAP
0200
8200
8200
8200
8500
8500
8880
8880
8880
9040
A038
8000
FFF8
ENDCHAR
STARTCHAR U_4EBF
ENCODING 20159
SWIDTH 1000 0
DWIDTH 14 0
BBX 13 13 0 -1
BITMAP
1000
17F0
2040
2080
6100
A200
2200
2400
2400
2400
2808
2808
27F8
ENDCHAR
STARTCHAR U_4EC0
ENCODING 20160
SWIDTH 1000 0
DWIDTH 14 0
BBX 13 13 0 -1
BITMAP
1080
1080
2080
2080
6FF8
A080
2080
2080
2080
2080
2080
2080
2080
ENDCHAR
STARTCHAR U_4EC1
ENCODING 20161
SWIDTH 1000 0
DWIDTH 14 0
BBX 13 13 0 -1
BITMAP
1000
1000
27F0
2000
6000
A000
2000
2000
2000
2000
2000
2FF8
2000
ENDCHAR
STARTCHAR U_4EC2
ENCODING 20162
SWIDTH 1000 0
DWIDTH 14 0
BBX 13 13 0 -1
BITMAP
1100
1100
2100
2FF8
2108
6108
A108
2108
2208
2208
2208
24D0
2820
ENDCHAR
STARTCHAR U_4EC3
ENCODING 20163
SWIDTH 1000 0
DWIDTH 14 0
BBX 13 13 0 -1
BITMAP
1000
17F8
2040
2040
6040
A040
2040
2040
2040
2040
2040
2140
2080
ENDCHAR
STARTCHAR U_4EC4
ENCODING 20164
SWIDTH 1000 0
DWIDTH 14 0
BBX 13 13 0 -1
BITMAP
3FF8
2200
2200
2200
2200
2200
2200
2500
2500
2500
6480
4878
9010
ENDCHAR
STARTCHAR U_4EC5
ENCODING 20165
SWIDTH 1000 0
DWIDTH 14 0
BBX 13 13 0 -1
BITMAP
1000
1FE0
1420
2420
2420
6440
A240
2280
2280
2100
2280
2440
2838
ENDCHAR
STARTCHAR U_4EC6
ENCODING 20166
SWIDTH 1000 0
DWIDTH 14 0
BBX 13 13 0 -1
BITMAP
0880
0880
0880
1080
10C0
30A0
5098
9088
1080
1080
1080
1080
1080
ENDCHAR
STARTCHAR U_4EC7
ENCODING 20167
SWIDTH 1000 0
DWIDTH 14 0
BBX 13 13 0 -1
BITMAP
1200
1200
2200
2FE0
6220
A220
2220
2220
2420
2428
2428
2828
3018
ENDCHAR
STARTCHAR U_4EC8
ENCODING 20168
SWIDTH 1000 0
DWIDTH 14 0
BBX 13 13 0 -1
BITMAP
1000
1040
2240
2240
6240
A240
2220
2220
2420
2410
2410
2810
3008
ENDCHAR
STARTCHAR U_4EC9
ENCODING 20169
SWIDTH 1000 0
DWIDTH 14 0
BBX 13 13 0 -1
BITMAP
1000
13E0
2220
2220
6220
A220
2220
2220
2420
2428
2428
2828
3018
ENDCHAR
STARTCHAR U_4ECA
ENCODING 20170
SWIDTH 1000 0
DWIDTH 14 0
BBX 13 13 0 -1
BITMAP
0200
0200
0500
0880
1440
2220
C018
1FC0
0080
0100
0100
0200
0400
ENDCHAR
STARTCHAR U_4ECB
ENCODING 20171
SWIDTH 1000 0
DWIDTH 14 0
BBX 13 13 0 -1
BITMAP
0200
0200
0500
0880
3060
C898
0880
0880
0880
0880
1080
1080
2080
ENDCHAR
STARTCHAR U_4ECC
ENCODING 20172
SWIDTH 1000 0
DWIDTH 14 0
BBX 13 13 0 -1
BITMAP
0200
0200
0500
0880
1040
2230
C210
0500
0500
0880
1040
2020
C018
ENDCHAR
STARTCHAR U_4ECD
ENCODING 20173
SWIDTH 1000 0
DWIDTH 14 0
BBX 13 13 0 -1
BITMAP
1000
17F0
2110
2110
6120
A138
2108
2108
2208
2208
2208
2450
2820
ENDCHAR
STARTCHAR U_4ECE
ENCODING 20174
SWIDTH 1000 0
DWIDTH 14 0
BBX 13 13 0 -1
BITMAP
1080
1080
1080
1080
1080
1080
2940
2540
2540
2220
4220
4410
8808
ENDCHAR
STARTCHAR U_4ECF
ENCODING 20175
SWIDTH 1000 0
DWIDTH 14 0
BBX 13 13 0 -1
BITMAP
1080
1080
1080
2100
2100
6100
A200
2200
2220
2410
2410
2FF8
2408
ENDCHAR
STARTCHAR U_4ED0
ENCODING 20176
SWIDTH 1000 0
DWIDTH 14 0
BBX 13 13 0 -1
BITMAP
0200
0200
0500
0880
1040
2220
C218
0200
FFF8
0200
0200
0200
0200
ENDCHAR
STARTCHAR U_4ED1
ENCODING 20177
SWIDTH 1000 0
DWIDTH 14 0
BBX 13 13 0 -1
BITMAP
0200
0200
0500
0880
3060
C818
0840
0980
0E00
0800
0820
0820
07E0
ENDCHAR
STARTCHAR U_4ED2
ENCODING 20178
SWIDTH 1000 0
DWIDTH 14 0
BBX 13 13 0 -1
BITMAP
0200
0200
0500
0880
1040
2420
C218
0180
0880
0400
0200
0180
0080
ENDCHAR
STARTCHAR U_4ED3
ENCODING 20179
SWIDTH 1000 0
DWIDTH 14 0
BBX 13 13 0 -1
BITMAP
0200
0200
0500
0880
1040
2020
DF98
1080
1080
1280
1110
1010
0FF0
ENDCHAR
STARTCHAR U_4ED4
ENCODING 20180
SWIDTH 1000 0
DWIDTH 14 0
BBX 13 13 0 -1
BITMAP
1000
17F0
2020
2040
6080
AFF8
2080
2080
2080
2080
2080
2280
2100
ENDCHAR
STARTCHAR U_4ED5
ENCODING 20181
SWIDTH 1000 0
DWIDTH 14 0
BBX 13 13 0 -1
BITMAP
1080
1080
2080
2080
6FF8
A080
2080
2080
2080
2080
2080
27F0
2000
ENDCHAR
STARTCHAR U_4ED6
ENCODING 20182
SWIDTH 1000 0
DWIDTH 14 0
BBX 13 13 0 -1
BITMAP
1080
1080
2480
24F0
6790
BC90
2490
2490
2490
24B0
2488
2408
23F8
ENDCHAR
STARTCHAR U_4ED7
ENCODING 20183
SWIDTH 1000 0
DWIDTH 14 0
BBX 13 13 0 -1
BITMAP
1040
1040
2040
2FF8
6040
A240
2240
2140
2140
2080
2140
2220
2C18
ENDCHAR
STARTCHAR U_4ED8
ENCODING 20184
SWIDTH 1000 0
DWIDTH 14 0
BBX 13 13 0 -1
BITMAP
1020
1020
2020
2FF8
6020
A220
2120
2120
2020
2020
2020
20A0
2040
ENDCHAR
STARTCHAR U_4ED9
ENCODING 20185
SWIDTH 1000 0
DWIDTH 14 0
BBX 13 13 0 -1
BITMAP
1040
1040
2040
2448
6448
A448
2448
2448
2448
2448
2448
27F8
2408
ENDCHAR
STARTCHAR U_4EDA
ENCODING 20186
SWIDTH 1000 0
DWIDTH 14 0
BBX 13 13 0 -1
BITMAP
0200
0200
0500
0880
3060
C218
0200
2220
2220
2220
2220
3FE0
2020
ENDCHAR
STARTCHAR U_4EDB
ENCODING 20187
SWIDTH 1000 0
DWIDTH 14 0
BBX 13 13 0 -1
BITMAP
1020
1070
2380
6C80
A080
20F8
2F80
2080
2080
2088
2088
2088
2078
ENDCHAR
STARTCHAR U_4EDC
ENCODING 20188
SWIDTH 1000 0
DWIDTH 14 0
BBX 13 13 0 -1
BITMAP
1000
1000
27F0
6080
A080
2080
2080
2080
2080
2080
2080
2080
2FF8
ENDCHAR
STARTCHAR U_4EDD
ENCODING 20189
SWIDTH 1000 0
DWIDTH 14 0
BBX 13 13 0 -1
BITMAP
0200
0200
0500
0880
3060
C018
3FE0
0200
0200
0200
0200
0200
FFF8
ENDCHAR
STARTCHAR U_4EDE
ENCODING 20190
SWIDTH 1000 0
DWIDTH 14 0
BBX 12 13 0 -1
BITMAP
1000
17F0
2090
2090
6490
A490
2490
2890
2110
2110
2210
2450
2820
ENDCHAR
STARTCHAR U_4EDF
ENCODING 20191
SWIDTH 1000 0
DWIDTH 14 0
BBX 13 13 0 -1
BITMAP
1070
1780
2080
2080
6080
AFF8
2080
2080
2080
2080
2080
2080
2080
ENDCHAR
STARTCHAR U_4EE0
ENCODING 20192
SWIDTH 1000 0
DWIDTH 14 0
BBX 13 13 0 -1
BITMAP
1000
17F0
1080
2080
6080
A080
2FF8
2080
2080
2080
2080
2080
2080
ENDCHAR
STARTCHAR U_4EE1
ENCODING 20193
SWIDTH 1000 0
DWIDTH 14 0
BBX 13 13 0 -1
BITMAP
1200
1200
23F8
2400
6800
A7F0
2040
2080
2100
2208
2408
2408
23F8
ENDCHAR
STARTCHAR U_4EE2
ENCODING 20194
SWIDTH 1000 0
DWIDTH 14 0
BBX 12 13 0 -1
BITMAP
1200
1200
13F0
2410
2810
6210
A110
2110
2010
2010
2010
20A0
2040
ENDCHAR
STARTCHAR U_4EE3
ENCODING 20195
SWIDTH 1000 0
DWIDTH 14 0
BBX 13 13 0 -1
BITMAP
1140
1120
2100
21F8
6F00
A100
2100
2100
2080
2080
2048
2028
2018
ENDCHAR
STARTCHAR U_4EE4
ENCODING 20196
SWIDTH 1000 0
DWIDTH 14 0
BBX 13 13 0 -1
BITMAP
0200
0200
0500
0880
1440
2220
C218
1FE0
0040
0880
0500
0200
0100
ENDCHAR
STARTCHAR U_4EE5
ENCODING 20197
SWIDTH 1000 0
DWIDTH 14 0
BBX 12 13 1 -1
BITMAP
0080
9080
8880
8880
8080
8080
8080
9080
A180
C140
8220
0410
1810
ENDCHAR
STARTCHAR U_4EE6
ENCODING 20198
SWIDTH 1000 0
DWIDTH 14 0
BBX 13 13 0 -1
BITMAP
1080
1080
2080
2080
6490
A490
2488
2888
2080
2080
2080
2280
2100
ENDCHAR
STARTCHAR U_4EE7
ENCODING 20199
SWIDTH 1000 0
DWIDTH 14 0
BBX 13 13 0 -1
BITMAP
0200
0200
0200
03F0
0200
0200
FFF8
0200
0300
0480
0840
1020
6018
ENDCHAR
STARTCHAR U_4EE8
ENCODING 20200
SWIDTH 1000 0
DWIDTH 14 0
BBX 13 13 0 -1
BITMAP
1000
1000
27F0
2000
6000
A000
23E0
2000
2000
2000
2000
2FF8
2000
ENDCHAR
STARTCHAR U_4EE9
ENCODING 20201
SWIDTH 1000 0
DWIDTH 14 0
BBX 13 13 0 -1
BITMAP
1100
1100
2100
2100
6100
A1F0
2100
2100
2100
2100
2100
2100
2FF8
ENDCHAR
STARTCHAR U_4EEA
ENCODING 20202
SWIDTH 1000 0
DWIDTH 14 0
BBX 13 13 0 -1
BITMAP
1100
1080
2490
2410
6220
A220
2140
2140
2080
2140
2220
2410
3808
ENDCHAR
STARTCHAR U_4EEB
ENCODING 20203
SWIDTH 1000 0
DWIDTH 14 0
BBX 13 13 0 -1
BITMAP
1100
1100
1100
2240
2240
6480
A480
2900
2100
2220
2410
2FF8
2408
ENDCHAR
STARTCHAR U_4EEC
ENCODING 20204
SWIDTH 1000 0
DWIDTH 14 0
BBX 12 13 0 -1
BITMAP
1400
12F0
2010
2410
6410
A410
2410
2410
2410
2410
2410
2410
2430
ENDCHAR
STARTCHAR U_4EED
ENCODING 20205
SWIDTH 1000 0
DWIDTH 14 0
BBX 13 13 0 -1
BITMAP
1000
17F0
2110
2110
6510
A310
2110
2190
2250
2230
2418
2850
3020
ENDCHAR
STARTCHAR U_4EEE
ENCODING 20206
SWIDTH 1000 0
DWIDTH 14 0
BBX 13 13 0 -1
BITMAP
1070
1780
2400
2400
6400
A7F0
2510
2510
24A0
24A0
2840
28A0
3318
ENDCHAR
STARTCHAR U_4EEF
ENCODING 20207
SWIDTH 1000 0
DWIDTH 14 0
BBX 13 13 0 -1
BITMAP
1080
1080
2080
24A0
6490
A488
2888
3080
2010
2020
2040
2180
2E00
ENDCHAR
STARTCHAR U_4EF0
ENCODING 20208
SWIDTH 1000 0
DWIDTH 14 0
BBX 13 13 0 -1
BITMAP
1100
16F8
2488
2488
6488
A488
2488
2588
26A8
2490
2080
2080
2080
ENDCHAR
STARTCHAR U_4EF1
ENCODING 20209
SWIDTH 1000 0
DWIDTH 14 0
BBX 13 13 0 -1
BITMAP
1080
1080
2140
2220
6510
A888
2080
27F0
2020
2040
2040
2080
2100
ENDCHAR
STARTCHAR U_4EF2
ENCODING 20210
SWIDTH 1000 0
DWIDTH 14 0
BBX 13 13 0 -1
BITMAP
1080
1080
2080
2FF8
6888
A888
2FF8
2888
2080
2080
2080
2080
2080
ENDCHAR
STARTCHAR U_4EF3
ENCODING 20211
SWIDTH 1000 0
DWIDTH 14 0
BBX 13 13 0 -1
BITMAP
1440
1440
2440
2448
6770
A440
2440
2440
2440
2440
2548
2648
2438
ENDCHAR
STARTCHAR U_4EF4
ENCODING 20212
SWIDTH 1000 0
DWIDTH 14 0
BBX 12 13 0 -1
BITMAP
1000
13F0
2210
2210
63F0
A210
2210
23F0
2210
2410
2410
2850
3020
ENDCHAR
STARTCHAR U_4EF5
ENCODING 20213
SWIDTH 1000 0
DWIDTH 14 0
BBX 13 13 0 -1
BITMAP
1200
1200
23F0
2480
6880
A080
2FF8
2080
2080
2080
2080
2080
2080
ENDCHAR
STARTCHAR U_4EF6
ENCODING 20214
SWIDTH 1000 0
DWIDTH 14 0
BBX 13 13 0 -1
BITMAP
1080
1480
2480
27F0
6880
B080
2080
2FF8
2080
2080
2080
2080
2080
ENDCHAR
STARTCHAR U_4EF7
ENCODING 20215
SWIDTH 1000 0
DWIDTH 14 0
BBX 13 13 0 -1
BITMAP
1080
1080
2140
2220
6410
AA28
2220
2220
2220
2220
2220
2420
2820
ENDCHAR
STARTCHAR U_4EF8
ENCODING 20216
SWIDTH 1000 0
DWIDTH 14 0
BBX 13 13 0 -1
BITMAP
1070
1780
1080
2080
2080
6FF8
A080
2080
2140
2140
2220
2410
2808
ENDCHAR
STARTCHAR U_4EF9
ENCODING 20217
SWIDTH 1000 0
DWIDTH 14 0
BBX 13 13 0 -1
BITMAP
1080
1080
2FF8
2080
6080
A7F0
2080
2080
2FF8
2080
2080
2080
2080
ENDCHAR
STARTCHAR U_4EFA
ENCODING 20218
SWIDTH 1000 0
DWIDTH 14 0
BBX 13 13 0 -1
BITMAP
0200
0200
0500
0880
3060
C018
1FE0
1000
1000
1FC0
1000
1000
1FE0
ENDCHAR
STARTCHAR U_4EFB
ENCODING 20219
SWIDTH 1000 0
DWIDTH 14 0
BBX 13 13 0 -1
BITMAP
1000
1070
2780
2080
6080
A080
2080
2FF8
2080
2080
2080
2080
27F0
ENDCHAR
STARTCHAR U_4EFC
ENCODING 20220
SWIDTH 1000 0
DWIDTH 14 0
BBX 13 13 0 -1
BITMAP
1000
1FF8
2080
2080
6080
A080
27F0
2080
2080
2080
2080
2080
2FF8
ENDCHAR
STARTCHAR U_4EFD
ENCODING 20221
SWIDTH 1000 0
DWIDTH 14 0
BBX 13 13 0 -1
BITMAP
1040
1240
2220
2420
6810
B7E8
2120
2120
2120
2220
2220
24A0
2840
ENDCHAR
STARTCHAR U_4EFE
ENCODING 20222
SWIDTH 1000 0
DWIDTH 14 0
BBX 13 13 0 -1
BITMAP
1000
17F8
2100
2100
6100
A1F8
2210
2210
2210
27E0
2020
2020
2FF8
ENDCHAR
STARTCHAR U_4EFF
ENCODING 20223
SWIDTH 1000 0
DWIDTH 14 0
BBX 13 13 0 -1
BITMAP
1100
1080
2FF8
2200
6200
A3F0
2210
2210
2210
2410
2410
28A0
3040
ENDCHAR
STARTCHAR U_4F00
ENCODING 20224
SWIDTH 1000 0
DWIDTH 14 0
BBX 13 13 0 -1
BITMAP
1080
1280
2240
2240
6420
A520
2910
3108
2200
2240
2420
2FF0
2410
ENDCHAR
STARTCHAR U_4F01
ENCODING 20225
SWIDTH 1000 0
DWIDTH 14 0
BBX 13 13 0 -1
BITMAP
0200
0200
0500
0880
3160
C118
1100
11E0
1100
1100
1100
1100
FFF8
ENDCHAR
STARTCHAR U_4F02
ENCODING 20226
SWIDTH 1000 0
DWIDTH 14 0
BBX 13 13 0 -1
BITMAP
1080
1080
2FF8
2080
67F0
A490
2490
2490
2490
24D0
20A0
2080
2080
ENDCHAR
STARTCHAR U_4F03
ENCODING 20227
SWIDTH 1000 0
DWIDTH 14 0
BBX 13 13 0 -1
BITMAP
1000
17F0
2020
2340
6080
AFF8
2090
20A0
2080
2080
2080
2280
2100
ENDCHAR
STARTCHAR U_4F04
ENCODING 20228
SWIDTH 1000 0
DWIDTH 14 0
BBX 13 13 0 -1
BITMAP
1000
17F0
1090
2090
27F0
6480
A880
2FF8
2088
20A8
2090
2080
2080
ENDCHAR
STARTCHAR U_4F05
ENCODING 20229
SWIDTH 1000 0
DWIDTH 14 0
BBX 13 13 0 -1
BITMAP
1080
1080
2FF8
2080
6490
A490
2490
27F0
2080
2080
2088
2088
2078
ENDCHAR
STARTCHAR U_4F06
ENCODING 20230
SWIDTH 1000 0
DWIDTH 14 0
BBX 13 13 0 -1
BITMAP
1200
1200
23F8
2548
6948
A148
2248
2288
2488
2908
2108
2250
2420
ENDCHAR
STARTCHAR U_4F07
ENCODING 20231
SWIDTH 1000 0
DWIDTH 14 0
BBX 13 13 0 -1
BITMAP
1000
13E0
1220
2220
2220
6418
A800
27F0
2210
2120
20C0
2120
2E18
ENDCHAR
STARTCHAR U_4F08
ENCODING 20232
SWIDTH 1000 0
DWIDTH 14 0
BBX 13 13 0 -1
BITMAP
1080
1040
1040
2240
2200
6A10
AA08
3208
2200
2210
2210
2210
21F0
ENDCHAR
STARTCHAR U_4F09
ENCODING 20233
SWIDTH 1000 0
DWIDTH 14 0
BBX 13 13 0 -1
BITMAP
1080
1040
2FF8
2000
63E0
A220
2220
2220
2220
2228
2428
2428
2818
ENDCHAR
STARTCHAR U_4F0A
ENCODING 20234
SWIDTH 1000 0
DWIDTH 14 0
BBX 13 13 0 -1
BITMAP
1000
17F0
2110
2110
6FF8
A110
2110
2FF0
2100
2200
2200
2400
2800
ENDCHAR
STARTCHAR U_4F0B
ENCODING 20235
SWIDTH 1000 0
DWIDTH 14 0
BBX 13 13 0 -1
BITMAP
1000
1FF0
1220
2220
2240
62F0
A210
2210
2310
24A0
2440
28A0
3318
ENDCHAR
STARTCHAR U_4F0C
ENCODING 20236
SWIDTH 1000 0
DWIDTH 14 0
BBX 13 13 0 -1
BITMAP
1000
17F8
1400
25F0
2510
6510
A510
2510
2560
2508
2908
2908
30F8
ENDCHAR
STARTCHAR U_4F0D
ENCODING 20237
SWIDTH 1000 0
DWIDTH 14 0
BBX 13 13 0 -1
BITMAP
1000
1FF8
2100
2100
6100
A100
2FE0
2220
2220
2220
2220
2220
3FF8
ENDCHAR
STARTCHAR U_4F0E
ENCODING 20238
SWIDTH 1000 0
DWIDTH 14 0
BBX 13 13 0 -1
BITMAP
1100
1100
2FF8
2100
6100
AFF0
2420
2240
2240
2180
2180
2260
3C18
ENDCHAR
STARTCHAR U_4F0F
ENCODING 20239
SWIDTH 1000 0
DWIDTH 14 0
BBX 13 13 0 -1
BITMAP
1080
10A0
2090
2080
6FF8
A080
2080
2140
2140
2220
2220
2410
2808
ENDCHAR
STARTCHAR U_4F10
ENCODING 20240
SWIDTH 1000 0
DWIDTH 14 0
BBX 13 13 0 -1
BITMAP
1140
1120
2100
21F8
6F00
A110
2110
2120
2140
2080
2148
2228
2C18
ENDCHAR
STARTCHAR U_4F11
ENCODING 20241
SWIDTH 1000 0
DWIDTH 14 0
BBX 13 13 0 -1
BITMAP
1080
1080
2080
2FF8
6080
A080
21C0
22A0
2490
2888
2080
2080
2080
ENDCHAR
STARTCHAR U_4F12
ENCODING 20242
SWIDTH 1000 0
DWIDTH 14 0
BBX 13 13 0 -1
BITMAP
1070
1780
2400
2400
67F8
A440
2440
2440
2440
2440
2840
2840
3040
ENDCHAR
STARTCHAR U_4F13
ENCODING 20243
SWIDTH 1000 0
DWIDTH 14 0
BBX 13 13 0 -1
BITMAP
1000
1FF8
1080
2080
2100
61C0
A2A0
2498
2888
2080
2080
2080
2080
ENDCHAR
STARTCHAR U_4F14
ENCODING 20244
SWIDTH 1000 0
DWIDTH 14 0
BBX 13 13 0 -1
BITMAP
1000
1FF8
1808
2000
23C0
6240
A240
2240
2240
2440
2448
2848
3038
ENDCHAR
STARTCHAR U_4F15
ENCODING 20245
SWIDTH 1000 0
DWIDTH 14 0
BBX 13 13 0 -1
BITMAP
1080
1080
1080
27F0
2080
6080
AFF8
2080
2140
2140
2220
2410
2808
ENDCHAR
STARTCHAR U_4F16
ENCODING 20246
SWIDTH 1000 0
DWIDTH 14 0
BBX 13 13 0 -1
BITMAP
1100
1100
2FF8
2100
6100
A3F0
2210
2520
2520
28C0
30C0
2120
2618
ENDCHAR
STARTCHAR U_4F17
ENCODING 20247
SWIDTH 1000 0
DWIDTH 14 0
BBX 13 13 0 -1
BITMAP
0200
0200
0500
0880
3060
C018
1080
1080
1080
2940
2520
4210
8408
ENDCHAR
STARTCHAR U_4F18
ENCODING 20248
SWIDTH 1000 0
DWIDTH 14 0
BBX 13 13 0 -1
BITMAP
1120
1110
2100
2FF8
6100
A140
2140
2140
2240
2248
2448
2848
3038
ENDCHAR
STARTCHAR U_4F19
ENCODING 20249
SWIDTH 1000 0
DWIDTH 14 0
BBX 13 13 0 -1
BITMAP
1080
1080
2080
2490
6490
A8A0
2080
2140
2140
2220
2220
2410
2808
ENDCHAR
STARTCHAR U_4F1A
ENCODING 20250
SWIDTH 1000 0
DWIDTH 14 0
BBX 13 13 0 -1
BITMAP
0200
0200
0500
0880
3060
DFD8
0000
0000
7FF0
0400
0880
1040
3FE0
ENDCHAR
STARTCHAR U_4F1B
ENCODING 20251
SWIDTH 1000 0
DWIDTH 14 0
BBX 13 13 0 -1
BITMAP
1000
1FF8
2800
2A20
2920
68C0
A840
28A0
2910
2A10
2800
2800
2FF8
ENDCHAR
STARTCHAR U_4F1C
ENCODING 20252
SWIDTH 1000 0
DWIDTH 14 0
BBX 13 13 0 -1
BITMAP
1100
1100
2FE0
6120
A228
2228
2438
2880
2080
2FF8
2080
2080
2080
ENDCHAR
STARTCHAR U_4F1D
ENCODING 20253
SWIDTH 1000 0
DWIDTH 14 0
BBX 13 13 0 -1
BITMAP
1000
17F0
2000
2000
6000
AFF8
2100
2100
2200
2220
2410
2FF8
2408
ENDCHAR
STARTCHAR U_4F1E
ENCODING 20254
SWIDTH 1000 0
DWIDTH 14 0
BBX 13 13 0 -1
BITMAP
0200
0200
0500
0880
3260
C218
1240
0A80
FFF8
0200
0200
0200
0200
ENDCHAR
STARTCHAR U_4F1F
ENCODING 20255
SWIDTH 1000 0
DWIDTH 14 0
BBX 13 13 0 -1
BITMAP
1080
1080
2FF8
2080
67F0
A080
2080
2FF8
2088
2088
20B0
2080
2080
ENDCHAR
STARTCHAR U_4F20
ENCODING 20256
SWIDTH 1000 0
DWIDTH 14 0
BBX 13 13 0 -1
BITMAP
1080
1080
27F0
2100
6100
BFF8
2200
2200
27F0
2020
2140
2080
2040
ENDCHAR
STARTCHAR U_4F21
ENCODING 20257
SWIDTH 1000 0
DWIDTH 14 0
BBX 13 13 0 -1
BITMAP
1100
1100
2FF8
2200
6280
A480
2FF0
2080
2080
3FF8
2080
2080
2080
ENDCHAR
STARTCHAR U_4F22
ENCODING 20258
SWIDTH 1000 0
DWIDTH 14 0
BBX 13 13 0 -1
BITMAP
1000
17F8
2220
2220
6420
A7F8
2060
20A0
2120
2220
2420
38A0
2040
ENDCHAR
STARTCHAR U_4F23
ENCODING 20259
SWIDTH 1000 0
DWIDTH 14 0
BBX 13 13 0 -1
BITMAP
1000
17E0
2420
2520
6520
A520
2520
25A0
22A0
2280
2488
2888
3078
ENDCHAR
STARTCHAR U_4F24
ENCODING 20260
SWIDTH 1000 0
DWIDTH 14 0
BBX 13 13 0 -1
BITMAP
1400
1400
27F8
2900
7100
A7F0
2110
2110
2110
2210
2210
2450
2820
ENDCHAR
STARTCHAR U_4F25
ENCODING 20261
SWIDTH 1000 0
DWIDTH 14 0
BBX 13 13 0 -1
BITMAP
1420
1440
2480
2700
6400
BFF8
2500
2500
2480
2440
2520
2618
2400
ENDCHAR
STARTCHAR U_4F26
ENCODING 20262
SWIDTH 1000 0
DWIDTH 14 0
BBX 13 13 0 -1
BITMAP
1080
1080
2140
2220
6410
AA08
2220
2240
2380
2200
2210
2210
21F0
ENDCHAR
STARTCHAR U_4F27
ENCODING 20263
SWIDTH 1000 0
DWIDTH 14 0
BBX 13 13 0 -1
BITMAP
1080
1080
2140
2220
6410
ABE8
2220
2220
22A0
2240
2210
2210
21F0
ENDCHAR
STARTCHAR U_4F28
ENCODING 20264
SWIDTH 1000 0
DWIDTH 14 0
BBX 13 13 0 -1
BITMAP
1200
1200
23F8
2408
6B08
A088
2008
2048
2088
2708
2208
2050
2020
ENDCHAR
STARTCHAR U_4F29
ENCODING 20265
SWIDTH 1000 0
DWIDTH 14 0
BBX 13 13 0 -1
BITMAP
1100
1080
2000
2FF8
6220
A220
2220
2140
2140
2080
2140
2220
2C18
ENDCHAR
STARTCHAR U_4F2A
ENCODING 20266
SWIDTH 1000 0
DWIDTH 14 0
BBX 13 13 0 -1
BITMAP
1080
1480
2280
2080
6FF8
A088
20C8
20A8
2128
2108
2208
2428
2810
ENDCHAR
STARTCHAR U_4F2B
ENCODING 20267
SWIDTH 1000 0
DWIDTH 14 0
BBX 13 13 0 -1
BITMAP
1080
1040
27F8
2408
6810
A000
2000
2000
2000
2000
2000
27F8
2000
ENDCHAR
STARTCHAR U_4F2C
ENCODING 20268
SWIDTH 1000 0
DWIDTH 14 0
BBX 13 13 0 -1
BITMAP
1000
17F0
2410
2410
6410
A7F0
2480
2480
2440
2440
2820
2810
3008
ENDCHAR
STARTCHAR U_4F2D
ENCODING 20269
SWIDTH 1000 0
DWIDTH 14 0
BBX 13 13 0 -1
BITMAP
1100
1080
2FF8
2080
6100
A220
27C0
2080
2100
2200
2420
2FF0
2410
ENDCHAR
STARTCHAR U_4F2E
ENCODING 20270
SWIDTH 1000 0
DWIDTH 14 0
BBX 13 13 0 -1
BITMAP
1400
1400
24F8
7F50
A550
2550
2950
2950
2520
2220
2550
2890
3108
ENDCHAR
STARTCHAR U_4F2F
ENCODING 20271
SWIDTH 1000 0
DWIDTH 14 0
BBX 12 13 0 -1
BITMAP
1080
1100
27F0
2410
6410
A410
27F0
2410
2410
2410
2410
27F0
2410
ENDCHAR
STARTCHAR U_4F30
ENCODING 20272
SWIDTH 1000 0
DWIDTH 14 0
BBX 13 13 0 -1
BITMAP
1080
1080
2080
2FF8
6080
A080
2080
27F0
2410
2410
2410
27F0
2410
ENDCHAR
STARTCHAR U_4F31
ENCODING 20273
SWIDTH 1000 0
DWIDTH 14 0
BBX 13 13 0 -1
BITMAP
1080
1080
2140
2220
6410
A888
2080
24A0
2490
2888
3088
2280
2100
ENDCHAR
STARTCHAR U_4F32
ENCODING 20274
SWIDTH 1000 0
DWIDTH 14 0
BBX 13 13 0 -1
BITMAP
1000
17F0
2410
2410
67F0
A500
2510
2520
25C0
2500
2908
2908
30F8
ENDCHAR
STARTCHAR U_4F33
ENCODING 20275
SWIDTH 1000 0
DWIDTH 14 0
BBX 13 13 0 -1
BITMAP
1120
1120
2520
2520
6520
BFF8
2520
2520
2520
2520
25E0
2400
27F8
ENDCHAR
STARTCHAR U_4F34
ENCODING 20276
SWIDTH 1000 0
DWIDTH 14 0
BBX 13 13 0 -1
BITMAP
1080
1490
2290
22A0
6080
A7F0
2080
2080
2FF8
2080
2080
2080
2080
ENDCHAR
STARTCHAR U_4F35
ENCODING 20277
SWIDTH 1000 0
DWIDTH 14 0
BBX 12 13 0 -1
BITMAP
1000
17F0
2550
2550
6550
A550
2550
2550
2630
2410
2410
27F0
2410
ENDCHAR
STARTCHAR U_4F36
ENCODING 20278
SWIDTH 1000 0
DWIDTH 14 0
BBX 13 13 0 -1
BITMAP
1080
1080
2140
2220
6510
A888
2000
27F0
2020
2240
2180
2080
2040
ENDCHAR
STARTCHAR U_4F37
ENCODING 20279
SWIDTH 1000 0
DWIDTH 14 0
BBX 12 13 0 -1
BITMAP
1080
1080
2080
67F0
A490
2490
27F0
2490
2490
2490
2490
27F0
2410
ENDCHAR
STARTCHAR U_4F38
ENCODING 20280
SWIDTH 1000 0
DWIDTH 14 0
BBX 13 13 0 -1
BITMAP
1040
1040
27F8
2448
6448
A7F8
2448
2448
27F8
2448
2040
2040
2040
ENDCHAR
STARTCHAR U_4F39
ENCODING 20281
SWIDTH 1000 0
DWIDTH 14 0
BBX 13 13 0 -1
BITMAP
1000
17E0
2420
6420
A7E0
2420
2420
2420
27E0
2420
2420
2420
3FF8
ENDCHAR
STARTCHAR U_4F3A
ENCODING 20282
SWIDTH 1000 0
DWIDTH 14 0
BBX 12 13 0 -1
BITMAP
1000
17F0
2010
2FD0
6010
A7D0
2450
2450
27D0
2450
2010
2050
2020
ENDCHAR
STARTCHAR U_4F3B
ENCODING 20283
SWIDTH 1000 0
DWIDTH 14 0
BBX 13 13 0 -1
BITMAP
1000
17F0
2080
2490
62A0
A080
2FF8
2080
2080
2080
2080
2080
2080
ENDCHAR
STARTCHAR U_4F3C
ENCODING 20284
SWIDTH 1000 0
DWIDTH 14 0
BBX 13 13 0 -1
BITMAP
1000
1020
2520
24A0
64A0
A420
2420
24A0
2520
2650
2450
2088
2308
ENDCHAR
STARTCHAR U_4F3D
ENCODING 20285
SWIDTH 1000 0
DWIDTH 14 0
BBX 13 13 0 -1
BITMAP
1400
1400
2F78
2548
6548
A548
2548
2548
2548
2548
2948
2978
3348
ENDCHAR
STARTCHAR U_4F3E
ENCODING 20286
SWIDTH 1000 0
DWIDTH 14 0
BBX 13 13 0 -1
BITMAP
1000
17F8
2040
2080
61A0
A290
2488
3888
2080
2080
2080
2FF8
2000
ENDCHAR
STARTCHAR U_4F3F
ENCODING 20287
SWIDTH 1000 0
DWIDTH 14 0
BBX 13 13 0 -1
BITMAP
1000
17F0
2410
2410
6410
A410
27F0
2000
2000
2220
2210
2408
2808
ENDCHAR
STARTCHAR U_4F40
ENCODING 20288
SWIDTH 1000 0
DWIDTH 14 0
BBX 13 13 0 -1
BITMAP
1000
13F0
2210
6210
A3F0
2200
2200
23F8
2208
2208
2208
23F8
2208
ENDCHAR
STARTCHAR U_4F41
ENCODING 20289
SWIDTH 1000 0
DWIDTH 14 0
BBX 13 13 0 -1
BITMAP
1080
1080
2100
6220
A410
2FF8
2008
27F0
2410
2410
2410
27F0
2410
ENDCHAR
STARTCHAR U_4F42
ENCODING 20290
SWIDTH 1000 0
DWIDTH 14 0
BBX 13 13 0 -1
BITMAP
1000
17F8
2080
6080
A080
24F0
2480
2480
2480
2480
2480
2480
2FF8
ENDCHAR
STARTCHAR U_4F43
ENCODING 20291
SWIDTH 1000 0
DWIDTH 14 0
BBX 13 13 0 -1
BITMAP
1000
17F8
2448
2448
6448
A448
27F8
2448
2448
2448
2448
27F8
2408
ENDCHAR
STARTCHAR U_4F44
ENCODING 20292
SWIDTH 1000 0
DWIDTH 14 0
BBX 13 13 0 -1
BITMAP
1210
1210
2210
6FF8
A210
2210
23F0
2210
2210
2210
2210
23F0
2210
ENDCHAR
STARTCHAR U_4F45
ENCODING 20293
SWIDTH 1000 0
DWIDTH 14 0
BBX 13 13 0 -1
BITMAP
1080
1080
27F0
2080
6080
AFF8
2080
21C0
22A0
2490
2888
2080
2080
ENDCHAR
STARTCHAR U_4F46
ENCODING 20294
SWIDTH 1000 0
DWIDTH 14 0
BBX 13 13 0 -1
BITMAP
1000
17F0
2410
2410
67F0
A410
2410
2410
27F0
2410
2000
2000
2FF8
ENDCHAR
STARTCHAR U_4F47
ENCODING 20295
SWIDTH 1000 0
DWIDTH 14 0
BBX 13 13 0 -1
BITMAP
1100
1080
2FF8
2808
6000
AFF8
2080
2080
2080
2080
2080
2280
2100
ENDCHAR
STARTCHAR U_4F48
ENCODING 20296
SWIDTH 1000 0
DWIDTH 14 0
BBX 13 13 0 -1
BITMAP
1100
1100
2FF8
6100
A280
27F0
2C90
3490
2490
2490
24B0
2080
2080
ENDCHAR
STARTCHAR U_4F49
ENCODING 20297
SWIDTH 1000 0
DWIDTH 14 0
BBX 13 13 0 -1
BITMAP
1080
1080
2080
27F0
6080
A080
2FF8
2100
2100
2220
2410
2FF8
2408
ENDCHAR
STARTCHAR U_4F4A
ENCODING 20298
SWIDTH 1000 0
DWIDTH 14 0
BBX 13 13 0 -1
BITMAP
1080
1080
27F8
2488
6490
A480
27F0
2410
2620
2540
28C0
2920
3618
ENDCHAR
STARTCHAR U_4F4B
ENCODING 20299
SWIDTH 1000 0
DWIDTH 14 0
BBX 12 13 0 -1
BITMAP
1000
17F0
2110
6110
A210
2450
2820
27F0
2410
2410
2410
27F0
2410
ENDCHAR
STARTCHAR U_4F4C
ENCODING 20300
SWIDTH 1000 0
DWIDTH 14 0
BBX 13 13 0 -1
BITMAP
1040
1240
2240
2240
6A48
ABD0
2A60
2A40
2A40
2A40
2BC8
3C48
2038
ENDCHAR
STARTCHAR U_4F4D
ENCODING 20301
SWIDTH 1000 0
DWIDTH 14 0
BBX 13 13 0 -1
BITMAP
1100
1080
2000
2FF8
6000
A420
2420
2220
2240
2240
2040
2080
2FF8
ENDCHAR
STARTCHAR U_4F4E
ENCODING 20302
SWIDTH 1000 0
DWIDTH 14 0
BBX 13 13 0 -1
BITMAP
1070
1780
2480
2480
6480
A7F8
2480
2480
2440
2448
2528
2698
2448
ENDCHAR
STARTCHAR U_4F4F
ENCODING 20303
SWIDTH 1000 0
DWIDTH 14 0
BBX 13 13 0 -1
BITMAP
1100
1080
2000
2FF8
6080
A080
2080
27F0
2080
2080
2080
2080
2FF8
ENDCHAR
STARTCHAR U_4F50
ENCODING 20304
SWIDTH 1000 0
DWIDTH 14 0
BBX 13 13 0 -1
BITMAP
1100
1100
2FF8
2100
6200
A200
27F0
2480
2880
3080
2080
2080
2FF8
ENDCHAR
STARTCHAR U_4F51
ENCODING 20305
SWIDTH 1000 0
DWIDTH 14 0
BBX 13 13 0 -1
BITMAP
1080
1080
2FF8
2100
6100
A200
27F0
2A10
3210
2210
2210
23F0
2210
ENDCHAR
STARTCHAR U_4F52
ENCODING 20306
SWIDTH 1000 0
DWIDTH 14 0
BBX 13 13 0 -1
BITMAP
1080
1080
2080
67F0
A490
2490
2490
3FF8
2080
2140
2220
2410
3808
ENDCHAR
STARTCHAR U_4F53
ENCODING 20307
SWIDTH 1000 0
DWIDTH 14 0
BBX 13 13 0 -1
BITMAP
1080
1080
2080
2FF8
6080
A1C0
22A0
2490
2888
2080
27F0
2080
2080
ENDCHAR
STARTCHAR U_4F54
ENCODING 20308
SWIDTH 1000 0
DWIDTH 14 0
BBX 13 13 0 -1
BITMAP
1080
1080
2080
20F8
6080
A080
2080
27F0
2410
2410
2410
27F0
2410
ENDCHAR
STARTCHAR U_4F55
ENCODING 20309
SWIDTH 1000 0
DWIDTH 14 0
BBX 13 13 0 -1
BITMAP
1000
17F8
2020
2020
67A0
A4A0
24A0
27A0
24A0
2020
2020
20A0
2040
ENDCHAR
STARTCHAR U_4F56
ENCODING 20310
SWIDTH 1000 0
DWIDTH 14 0
BBX 13 13 0 -1
BITMAP
1100
1090
2290
2210
6220
AA20
2A50
3248
2288
2300
2610
3A10
21F0
ENDCHAR
STARTCHAR U_4F57
ENCODING 20311
SWIDTH 1000 0
DWIDTH 14 0
BBX 13 13 0 -1
BITMAP
1100
1080
2FF8
2808
7210
A200
2270
2380
2200
2200
2208
2208
21F8
ENDCHAR
STARTCHAR U_4F58
ENCODING 20312
SWIDTH 1000 0
DWIDTH 14 0
BBX 13 13 0 -1
BITMAP
0200
0500
0880
1040
2FA0
C018
0000
7FF0
0200
1240
2220
4A10
0400
ENDCHAR
STARTCHAR U_4F59
ENCODING 20313
SWIDTH 1000 0
DWIDTH 14 0
BBX 13 13 0 -1
BITMAP
0200
0500
0880
1040
2FA0
C218
0200
7FF0
0200
1240
2220
4A10
0400
ENDCHAR
STARTCHAR U_4F5A
ENCODING 20314
SWIDTH 1000 0
DWIDTH 14 0
BBX 13 13 0 -1
BITMAP
1080
1480
2480
27F0
6880
B080
2FF8
2080
2140
2140
2220
2410
2808
ENDCHAR
STARTCHAR U_4F5B
ENCODING 20315
SWIDTH 1000 0
DWIDTH 14 0
BBX 13 13 0 -1
BITMAP
1140
1140
27F0
2150
67F0
A540
2540
27F8
2148
2148
2258
2440
2840
ENDCHAR
STARTCHAR U_4F5C
ENCODING 20316
SWIDTH 1000 0
DWIDTH 14 0
BBX 13 13 0 -1
BITMAP
1200
1200
27F8
2500
6900
B1F0
2100
2100
21F8
2100
2100
2100
2100
ENDCHAR
STARTCHAR U_4F5D
ENCODING 20317
SWIDTH 1000 0
DWIDTH 14 0
BBX 12 13 0 -1
BITMAP
1200
1200
27F0
2410
6810
B3D0
2250
2250
23D0
2010
2010
2050
2020
ENDCHAR
STARTCHAR U_4F5E
ENCODING 20318
SWIDTH 1000 0
DWIDTH 14 0
BBX 13 13 0 -1
BITMAP
1000
17F0
2000
2000
6FF8
A100
2100
2FF8
2220
2640
2180
2240
2C38
ENDCHAR
STARTCHAR U_4F5F
ENCODING 20319
SWIDTH 1000 0
DWIDTH 14 0
BBX 13 13 0 -1
BITMAP
1200
13F0
2420
2A40
6180
A240
2420
3918
2080
2040
2300
2080
2040
ENDCHAR
STARTCHAR U_4F60
ENCODING 20320
SWIDTH 1000 0
DWIDTH 14 0
BBX 13 13 0 -1
BITMAP
1200
1200
27F8
2410
68A0
A080
24A0
2490
2888
3088
2080
2280
2100
ENDCHAR
STARTCHAR U_4F61
ENCODING 20321
SWIDTH 1000 0
DWIDTH 14 0
BBX 13 13 0 -1
BITMAP
1080
1080
1140
2220
2410
6888
A080
2490
2490
2490
2490
27F0
2410
ENDCHAR
STARTCHAR U_4F62
ENCODING 20322
SWIDTH 1000 0
DWIDTH 14 0
BBX 13 13 0 -1
BITMAP
1000
17F8
2400
2400
67F0
A410
2410
2410
27F0
2400
2400
2400
27F8
ENDCHAR
STARTCHAR U_4F63
ENCODING 20323
SWIDTH 1000 0
DWIDTH 14 0
BBX 13 13 0 -1
BITMAP
1000
17F8
2448
2448
67F8
A448
2448
27F8
2448
2448
2448
2848
3058
ENDCHAR
STARTCHAR U_4F64
ENCODING 20324
SWIDTH 1000 0
DWIDTH 14 0
BBX 13 13 0 -1
BITMAP
1000
1FF8
2200
2200
63E0
A220
22A0
2260
2420
2428
2528
2628
2418
ENDCHAR
STARTCHAR U_4F65
ENCODING 20325
SWIDTH 1000 0
DWIDTH 14 0
BBX 13 13 0 -1
BITMAP
0200
0500
0880
1040
2020
DFD8
0000
0040
2440
1280
1280
0100
FFF8
ENDCHAR
STARTCHAR U_4F66
ENCODING 20326
SWIDTH 1000 0
DWIDTH 14 0
BBX 13 13 0 -1
BITMAP
1000
1FF8
2100
6100
A200
2200
27F0
2A10
3210
2210
2210
23F0
2210
ENDCHAR
STARTCHAR U_4F67
ENCODING 20327
SWIDTH 1000 0
DWIDTH 14 0
BBX 13 13 0 -1
BITMAP
1100
1100
21F0
2100
6100
AFF8
2100
2140
2120
2110
2110
2100
2100
ENDCHAR
STARTCHAR U_4F68
ENCODING 20328
SWIDTH 1000 0
DWIDTH 14 0
BBX 13 13 0 -1
BITMAP
1400
1400
27F0
6810
B7D0
2450
2450
27D0
2410
2460
2408
2408
23F8
ENDCHAR
STARTCHAR U_4F69
ENCODING 20329
SWIDTH 1000 0
DWIDTH 14 0
BBX 13 13 0 -1
BITMAP
1FE0
1820
2BE0
28A0
6BE0
AAA0
2AA0
2AA0
2AA0
2AA8
32E8
3098
2088
ENDCHAR
STARTCHAR U_4F6A
ENCODING 20330
SWIDTH 1000 0
DWIDTH 14 0
BBX 12 13 0 -1
BITMAP
1000
17F0
2410
25D0
6550
A550
2550
2550
25D0
2550
2410
27F0
2410
ENDCHAR
STARTCHAR U_4F6B
ENCODING 20331
SWIDTH 1000 0
DWIDTH 14 0
BBX 13 13 0 -1
BITMAP
1100
11F0
2210
6520
A0C0
2120
2210
2C08
23F0
2210
2210
23F0
2210
ENDCHAR
STARTCHAR U_4F6C
ENCODING 20332
SWIDTH 1000 0
DWIDTH 14 0
BBX 13 13 0 -1
BITMAP
1110
1110
27E0
2120
6140
AFF8
2100
2200
2660
3B80
2210
2210
21F0
ENDCHAR
STARTCHAR U_4F6D
ENCODING 20333
SWIDTH 1000 0
DWIDTH 14 0
BBX 13 13 0 -1
BITMAP
1100
11F0
2220
6540
A080
2360
2C98
27F0
2080
2480
27F8
2080
2080
ENDCHAR
STARTCHAR U_4F6E
ENCODING 20334
SWIDTH 1000 0
DWIDTH 14 0
BBX 13 13 0 -1
BITMAP
1080
1180
2240
6420
A810
37E8
2000
27E0
2420
2420
2420
27E0
2420
ENDCHAR
STARTCHAR U_4F6F
ENCODING 20335
SWIDTH 1000 0
DWIDTH 14 0
BBX 13 13 0 -1
BITMAP
1410
1220
2FF8
2080
6080
A7F0
2080
2080
2FF8
2080
2080
2080
2080
ENDCHAR
STARTCHAR U_4F70
ENCODING 20336
SWIDTH 1000 0
DWIDTH 14 0
BBX 13 13 0 -1
BITMAP
1000
1FF8
2100
2200
67F0
A410
2410
27F0
2410
2410
2410
27F0
2410
ENDCHAR
STARTCHAR U_4F71
ENCODING 20337
SWIDTH 1000 0
DWIDTH 14 0
BBX 13 13 0 -1
BITMAP
0200
0500
0880
3060
DFD8
0000
7FF0
0100
1100
11E0
1100
1100
FFF8
ENDCHAR
STARTCHAR U_4F72
ENCODING 20338
SWIDTH 1000 0
DWIDTH 14 0
BBX 12 13 0 -1
BITMAP
1100
11F0
2210
6520
A8C0
2080
2100
27F0
3A10
2210
2210
23F0
2210
ENDCHAR
STARTCHAR U_4F73
ENCODING 20339
SWIDTH 1000 0
DWIDTH 14 0
BBX 13 13 0 -1
BITMAP
1080
1080
27F0
2080
6080
AFF8
2080
2080
27F0
2080
2080
2080
2FF8
ENDCHAR
STARTCHAR U_4F74
ENCODING 20340
SWIDTH 1000 0
DWIDTH 14 0
BBX 13 13 0 -1
BITMAP
1000
1FF8
2420
27E0
6420
A420
27E0
2420
2478
3FA0
2020
2020
2020
ENDCHAR
STARTCHAR U_4F75
ENCODING 20341
SWIDTH 1000 0
DWIDTH 14 0
BBX 13 13 0 -1
BITMAP
1410
1220
2FF8
6220
A220
2220
2FF8
2220
2220
2220
2420
2420
2820
ENDCHAR
STARTCHAR U_4F76
ENCODING 20342
SWIDTH 1000 0
DWIDTH 14 0
BBX 13 13 0 -1
BITMAP
1080
1080
2FF8
2080
6080
A7F0
2000
27F0
2410
2410
2410
27F0
2410
ENDCHAR
STARTCHAR U_4F77
ENCODING 20343
SWIDTH 1000 0
DWIDTH 14 0
BBX 13 13 0 -1
BITMAP
1000
17F0
2410
67F0
A410
27F0
2500
2510
24A0
2440
2520
2618
2400
ENDCHAR
STARTCHAR U_4F78
ENCODING 20344
SWIDTH 1000 0
DWIDTH 14 0
BBX 13 13 0 -1
BITMAP
1030
17C0
2080
6080
AFF8
2080
2080
27F0
2410
2410
2410
27F0
2410
ENDCHAR
STARTCHAR U_4F79
ENCODING 20345
SWIDTH 1000 0
DWIDTH 14 0
BBX 13 13 0 -1
BITMAP
1200
13E0
2440
6FF8
B400
25E0
2520
2520
2520
2560
2908
2908
30F8
ENDCHAR
STARTCHAR U_4F7A
ENCODING 20346
SWIDTH 1000 0
DWIDTH 14 0
BBX 13 13 0 -1
BITMAP
1080
1080
2140
6220
A410
2BE8
2080
2080
27F0
2080
2080
2080
2FF8
ENDCHAR
STARTCHAR U_4F7B
ENCODING 20347
SWIDTH 1000 0
DWIDTH 14 0
BBX 13 13 0 -1
BITMAP
1240
1240
2248
2A50
6660
A240
2260
2650
2A48
2240
2248
2448
2838
ENDCHAR
STARTCHAR U_4F7C
ENCODING 20348
SWIDTH 1000 0
DWIDTH 14 0
BBX 13 13 0 -1
BITMAP
1100
1080
1FF8
2000
2220
6410
AA28
2220
2140
2080
2140
2220
2C18
ENDCHAR
STARTCHAR U_4F7D
ENCODING 20349
SWIDTH 1000 0
DWIDTH 14 0
BBX 13 13 0 -1
BITMAP
1080
1080
28F8
6508
A450
2240
2440
3840
28A0
28A0
2910
2210
2408
ENDCHAR
STARTCHAR U_4F7E
ENCODING 20350
SWIDTH 1000 0
DWIDTH 14 0
BBX 13 13 0 -1
BITMAP
1240
1240
2420
2810
67E8
A420
27E0
2420
27E0
2420
2420
24A0
2440
ENDCHAR
STARTCHAR U_4F7F
ENCODING 20351
SWIDTH 1000 0
DWIDTH 14 0
BBX 13 13 0 -1
BITMAP
1080
1FF8
2080
2FF0
6890
A890
2FF0
2880
2480
2300
2300
24C0
3838
ENDCHAR
STARTCHAR U_4F80
ENCODING 20352
SWIDTH 1000 0
DWIDTH 14 0
BBX 13 13 0 -1
BITMAP
1008
1F88
2528
6528
A528
3FE8
2528
2528
2528
2528
2908
2908
3118
ENDCHAR
STARTCHAR U_4F81
ENCODING 20353
SWIDTH 1000 0
DWIDTH 14 0
BBX 13 13 0 -1
BITMAP
1080
1480
2480
67F0
A880
3080
2FF8
2240
2240
2240
2448
2848
3038
ENDCHAR
STARTCHAR U_4F82
ENCODING 20354
SWIDTH 1000 0
DWIDTH 14 0
BBX 13 13 0 -1
BITMAP
1080
1040
27F8
2400
6470
A780
2480
24F8
2780
2480
2888
2888
3078
ENDCHAR
STARTCHAR U_4F83
ENCODING 20355
SWIDTH 1000 0
DWIDTH 14 0
BBX 13 13 0 -1
BITMAP
1000
17F0
2410
2410
67F0
A000
24A0
24A0
24A0
24A0
24A8
28A8
3098
ENDCHAR
STARTCHAR U_4F84
ENCODING 20356
SWIDTH 1000 0
DWIDTH 14 0
BBX 13 13 0 -1
BITMAP
1000
1FF8
2100
2220
6410
AFF8
2080
2080
27F0
2080
2080
2080
2FF8
ENDCHAR
STARTCHAR U_4F85
ENCODING 20357
SWIDTH 1000 0
DWIDTH 14 0
BBX 13 13 0 -1
BITMAP
1100
1080
1FF8
2080
6100
A220
27C0
2090
2120
2240
2CA0
2110
2E08
ENDCHAR
STARTCHAR U_4F86
ENCODING 20358
SWIDTH 1000 0
DWIDTH 14 0
BBX 13 13 0 -1
BITMAP
0200
0200
FFF8
1240
1240
2AA0
4218
0700
0A80
1240
2220
C218
0200
ENDCHAR
STARTCHAR U_4F87
ENCODING 20359
SWIDTH 1000 0
DWIDTH 14 0
BBX 13 13 0 -1
BITMAP
1080
1080
1FF8
2080
67F0
A090
27F0
2480
27F8
2088
2158
2220
2C18
ENDCHAR
STARTCHAR U_4F88
ENCODING 20360
SWIDTH 1000 0
DWIDTH 14 0
BBX 13 13 0 -1
BITMAP
1080
1080
11F0
2220
2D40
6080
A140
26F8
2110
26A0
2040
2180
2E00
ENDCHAR
STARTCHAR U_4F89
ENCODING 20361
SWIDTH 1000 0
DWIDTH 14 0
BBX 13 13 0 -1
BITMAP
1080
1FF8
2220
2410
6BE8
A000
2FF8
2100
23F0
2010
2010
20A0
2040
ENDCHAR
STARTCHAR U_4F8A
ENCODING 20362
SWIDTH 1000 0
DWIDTH 14 0
BBX 13 13 0 -1
BITMAP
1080
1490
2290
62A0
A080
3FF8
2240
2240
2240
2440
2448
2848
3038
ENDCHAR
STARTCHAR U_4F8B
ENCODING 20363
SWIDTH 1000 0
DWIDTH 14 0
BBX 13 13 0 -1
BITMAP
1008
1FC8
2208
2428
67A8
A8A8
2928
3528
2228
2228
2408
2808
3018
ENDCHAR
STARTCHAR U_4F8C
ENCODING 20364
SWIDTH 1000 0
DWIDTH 14 0
BBX 13 13 0 -1
BITMAP
0200
0500
0C80
3260
DFD8
0080
0100
3FE0
0000
FFF8
0800
1020
3FF0
ENDCHAR
STARTCHAR U_4F8D
ENCODING 20365
SWIDTH 1000 0
DWIDTH 14 0
BBX 13 13 0 -1
BITMAP
1080
17F0
2080
2080
6FF8
A020
2020
2FF8
2420
2220
2220
20A0
2040
ENDCHAR
STARTCHAR U_4F8E
ENCODING 20366
SWIDTH 1000 0
DWIDTH 14 0
BBX 13 13 0 -1
BITMAP
1080
1490
2290
22A0
6080
AFF8
2080
21C0
22A0
2490
2888
2080
2080
ENDCHAR
STARTCHAR U_4F8F
ENCODING 20367
SWIDTH 1000 0
DWIDTH 14 0
BBX 13 13 0 -1
BITMAP
1080
1480
27F0
2880
7080
AFF8
2080
21C0
22A0
2490
2888
2080
2080
ENDCHAR
STARTCHAR U_4F90
ENCODING 20368
SWIDTH 1000 0
DWIDTH 14 0
BBX 13 13 0 -1
BITMAP
1100
1100
2200
6FF0
AA90
2A90
2A90
2A90
2A90
2A90
2A90
2A90
3FF8
ENDCHAR
STARTCHAR U_4F91
ENCODING 20369
SWIDTH 1000 0
DWIDTH 14 0
BBX 13 13 0 -1
BITMAP
1080
1080
2FF8
2100
63F0
A610
2BF0
2210
23F0
2210
2210
2250
2220
ENDCHAR
STARTCHAR U_4F92
ENCODING 20370
SWIDTH 1000 0
DWIDTH 14 0
BBX 13 13 0 -1
BITMAP
1100
1080
2FF8
6808
A100
2100
2FF8
2240
2440
2280
2180
2260
2C18
ENDCHAR
STARTCHAR U_4F93
ENCODING 20371
SWIDTH 1000 0
DWIDTH 14 0
BBX 13 13 0 -1
BITMAP
1080
1080
27F0
6090
AFF8
2090
27F0
2080
27F0
2080
2FF8
2080
2080
ENDCHAR
STARTCHAR U_4F94
ENCODING 20372
SWIDTH 1000 0
DWIDTH 14 0
BBX 13 13 0 -1
BITMAP
1100
1140
2220
27F0
6090
A480
27F0
2880
2080
3FF8
2080
2080
2080
ENDCHAR
STARTCHAR U_4F95
ENCODING 20373
SWIDTH 1000 0
DWIDTH 14 0
BBX 13 13 0 -1
BITMAP
0400
07F8
0880
0900
1BF8
2AA8
CAA8
0AA8
0AA8
0AA8
0AA8
0AA8
0A18
ENDCHAR
STARTCHAR U_4F96
ENCODING 20374
SWIDTH 1000 0
DWIDTH 14 0
BBX 13 13 0 -1
BITMAP
0200
0200
0500
0880
1070
2F88
C000
3FF0
2510
3FF0
2510
2510
2570
ENDCHAR
STARTCHAR U_4F97
ENCODING 20375
SWIDTH 1000 0
DWIDTH 14 0
BBX 13 13 0 -1
BITMAP
1000
1FF8
2808
2BE8
6808
ABE8
2A28
2A28
2BE8
2808
2828
2810
2810
ENDCHAR
STARTCHAR U_4F98
ENCODING 20376
SWIDTH 1000 0
DWIDTH 14 0
BBX 13 13 0 -1
BITMAP
0440
0420
0BF8
0A08
1C30
29C0
C840
0BF8
0840
0848
0848
0848
0838
ENDCHAR
STARTCHAR U_4F99
ENCODING 20377
SWIDTH 1000 0
DWIDTH 14 0
BBX 13 13 0 -1
BITMAP
1040
1050
2048
6FF8
A040
2040
2FC0
2140
2120
2120
21A8
2E18
2008
ENDCHAR
STARTCHAR U_4F9A
ENCODING 20378
SWIDTH 1000 0
DWIDTH 14 0
BBX 12 13 0 -1
BITMAP
1400
1400
2FF0
2810
77D0
A450
27D0
2450
27D0
2450
2010
2050
2020
ENDCHAR
STARTCHAR U_4F9B
ENCODING 20379
SWIDTH 1000 0
DWIDTH 14 0
BBX 13 13 0 -1
BITMAP
1220
1220
2220
2FF8
6220
A220
2220
3FF8
2220
2210
2410
2408
2808
ENDCHAR
STARTCHAR U_4F9C
ENCODING 20380
SWIDTH 1000 0
DWIDTH 14 0
BBX 13 13 0 -1
BITMAP
1200
1200
27C0
6440
A540
2540
3FF8
2640
2540
2940
2940
2840
30C0
ENDCHAR
STARTCHAR U_4F9D
ENCODING 20381
SWIDTH 1000 0
DWIDTH 14 0
BBX 13 13 0 -1
BITMAP
1100
1080
2FF8
2100
6290
A2A0
24C0
2C80
3440
2440
2520
2610
2408
ENDCHAR
STARTCHAR U_4F9E
ENCODING 20382
SWIDTH 1000 0
DWIDTH 14 0
BBX 13 13 0 -1
BITMAP
1200
1200
2238
6F28
A528
2528
2528
2528
2528
2238
2528
2800
2800
ENDCHAR
STARTCHAR U_4F9F
ENCODING 20383
SWIDTH 1000 0
DWIDTH 14 0
BBX 13 13 0 -1
BITMAP
1100
1100
2FF8
2200
65F0
A410
2C20
37F8
2420
2420
2520
2520
24C0
ENDCHAR
STARTCHAR U_4FA0
ENCODING 20384
SWIDTH 1000 0
DWIDTH 14 0
BBX 13 13 0 -1
BITMAP
1040
1040
27F8
2040
6248
A150
2FF8
2040
20A0
20A0
2110
2210
2C08
ENDCHAR
STARTCHAR U_4FA1
ENCODING 20385
SWIDTH 1000 0
DWIDTH 14 0
BBX 13 13 0 -1
BITMAP
1000
1FF8
2140
2140
6FF0
A950
2950
2950
2950
2950
2950
2FF0
2810
ENDCHAR
STARTCHAR U_4FA2
ENCODING 20386
SWIDTH 1000 0
DWIDTH 14 0
BBX 13 13 0 -1
BITMAP
1000
1FF0
2080
6FF0
A890
2FF0
2890
3FF8
2810
2810
2850
2850
2820
ENDCHAR
ENDFONT
